<?xml version="1.0" encoding="UTF-8"?><svg id="Layer_2" xmlns="http://www.w3.org/2000/svg" viewBox="0 0 283.89 283.9"><defs><style>.cls-1{opacity:.65;}.cls-1,.cls-2{fill:#fff;}</style></defs><g id="Layer_1-2"><path class="cls-1" d="M253.14,141.64v.31c0,61.41-49.78,111.19-111.19,111.19h-.49v-30.08c.16,0,.33.01.49.01,29.78,0,53.22-11.72,67.09-31.88,1.7-2.48,3.27-5.08,4.68-7.81,6.06-11.72,9.35-25.69,9.35-41.43,0-.1-.01-.21-.01-.31h30.08Z"/><path class="cls-1" d="M138.74,191.05c-3.13-5.02-5.78-10.43-9.49-14.97-9.35-11.45-22.56-15.49-36.94-16.77,1.02-18.8,1.98-36.59,2.95-54.46-8.59,1.33-10.91,6.52-10.51,14.01.19,3.58-.63,7.2-.9,10.81-1.05,13.72-2.06,27.45-3.12,41.71,23.3-2.82,42.14,3.15,58.01,19.67Z"/><path class="cls-1" d="M60.83,142.11c0-.05,0-.11,0-.16,0-49.02,31.67-80.84,80.62-81.11v-30.07c-61.18.27-110.7,49.94-110.7,111.18,0,.05,0,.11,0,.16h30.07Z"/><path class="cls-2" d="M142.15,255.64c-.07,0-.14,0-.2,0-62.58,0-113.34-50.56-113.68-113.06H0c.34,78.11,63.76,141.32,141.94,141.32.07,0,.14,0,.2,0v-28.26Z"/><path class="cls-2" d="M141.54,0v28.26c.13,0,.27,0,.4,0,62.79,0,113.69,50.9,113.69,113.69,0,.21,0,.42,0,.63h28.26c0-.21,0-.42,0-.63C283.89,63.55,220.34,0,141.94,0c-.13,0-.27,0-.4,0Z"/><path class="cls-2" d="M102.08,89.48c-1.29,21.63-2.54,42.65-3.81,63.9,18.27,3.74,32.46,12.32,41.67,31.06,0-19.17.31-35.62-.08-52.07-.47-20.06-17.53-39.51-37.78-42.89Z"/><path class="cls-2" d="M134.39,194.42c-16.39-16.33-35.99-21.39-58.7-16.56,1.49-18.71,2.9-36.25,4.3-53.8-1.13-.09-2.26-.18-3.39-.28-2.54,22.78-5.08,45.55-7.78,69.74,23.18-9.72,44.48-8.32,65.58.89Z"/><path class="cls-1" d="M184.57,125.75c-2.29-.13-4.36,6.32-6.72,6.19,4.66.27,8.74.5,14.01.8-2.6-.15-5.06-6.86-7.29-6.98Z"/><path class="cls-2" d="M197.3,111.86c-.22-1.99-6.98-4.11-7.64-3.47.74,8.15,1.47,16.31,2.2,24.35-5.27-.3-9.35-.53-14.01-.8-.87-7.73-1.76-15.68-2.67-23.8-2.82.23-5.55.31-8.24.71-9.34,1.36-23.04,11.56-23.16,18.21-.36,21.08-.13,42.16-.13,63.92,10.14-5.16,18.91-10.77,28.47-14.16,9.64-3.41,20.06-4.6,30.86-6.92-1.67-17.8-3.41-37.95-5.68-58.04Z"/><path class="cls-1" d="M197.3,111.86c-.22-1.99-6.98-4.11-7.64-3.47.74,8.15,1.47,16.31,2.2,24.35-5.27-.3-9.35-.53-14.01-.8-.87-7.73-1.76-15.68-2.67-23.8-2.82.23-5.55.31-8.24.71-9.34,1.36-23.04,11.56-23.16,18.21-.36,21.08-.13,42.16-.13,63.92,10.14-5.16,18.91-10.77,28.47-14.16,9.64-3.41,20.06-4.6,30.86-6.92-1.67-17.8-3.41-37.95-5.68-58.04Z"/><path class="cls-1" d="M102.08,89.48c20.24,3.38,37.3,22.83,37.78,42.89.39,16.44.08,32.9.08,52.07-9.2-18.74-23.4-27.32-41.67-31.06,1.27-21.25,2.52-42.27,3.81-63.9Z"/><path class="cls-2" d="M134.39,194.42c-21.1-9.2-42.39-10.6-65.58-.89,2.7-24.19,5.24-46.97,7.78-69.74,1.13.09,2.26.18,3.39.28-1.4,17.54-2.8,35.09-4.3,53.8,22.71-4.83,42.3.23,58.7,16.56Z"/><path class="cls-2" d="M205.84,123.53c-.98.12-1.95.23-2.93.35,1.84,19,3.68,38,5.56,57.43-19.86-9.62-35.63.52-51.78,9.12,17.49-5.46,34.75-5.93,52.35.77,1.71-2.48,3.27-5.08,4.68-7.81-2.71-20.58-5.29-40.22-7.88-59.85Z"/></g></svg>