<?xml version="1.0" encoding="UTF-8"?><svg id="Layer_2" xmlns="http://www.w3.org/2000/svg" viewBox="0 0 283.89 283.9"><defs><style>.cls-1{opacity:.4;}.cls-1,.cls-2{fill:#fff;}.cls-3{opacity:.65;}</style></defs><g id="Layer_1-2"><path class="cls-1" d="M184.46,79.14l-93.53,5.18-12.69,48.27,10.06,43.36,33.94,28.4,2.43.19,5.98.46,10.72.83,55.32-67.3-12.23-59.39ZM138.72,199.61l-7.72-.6,2.02-34.05c-2.04-.07-4.03-.33-5.96-.75l-2.03,34.33-.42-.03-30.92-25.88-8.62-37.16,17.01,2.63c-.33-1.84-.5-3.73-.5-5.65,0-.17.01-.33.01-.5l-16.32-2.52,9.49-36.06,15.28,17.18c1.35-1.48,2.84-2.83,4.43-4.04l-14.82-16.66,79.97-4.43.55,2.69-24.64,19.85c1.52,1.33,2.91,2.8,4.16,4.39l21.84-17.64,8.16,39.58-23.07-3.13c.02.43.03.85.03,1.29,0,1.6-.12,3.18-.34,4.72l21.35,2.9-48.94,59.54Z"/><circle class="cls-2" cx="93.28" cy="87.2" r="6.81"/><g class="cls-3"><path class="cls-2" d="M60.83,142.11c0-.05,0-.11,0-.16,0-49.02,31.67-80.84,80.62-81.11v-30.07c-61.18.27-110.7,49.94-110.7,111.18,0,.05,0,.11,0,.16h30.07Z"/><path class="cls-2" d="M253.13,141.63h-30.07c0,.11,0,.21,0,.32,0,49.18-31.93,81.12-81.12,81.12-.16,0-.33,0-.49,0v30.07c.16,0,.33,0,.49,0,61.41,0,111.19-49.78,111.19-111.19,0-.11,0-.21,0-.32Z"/></g><path class="cls-2" d="M142.15,255.64c-.07,0-.14,0-.2,0-62.58,0-113.34-50.56-113.68-113.06H0c.34,78.11,63.76,141.32,141.94,141.32.07,0,.14,0,.2,0v-28.26Z"/><path class="cls-2" d="M141.54,0v28.26c.13,0,.27,0,.4,0,62.79,0,113.69,50.9,113.69,113.69,0,.21,0,.42,0,.63h28.26c0-.21,0-.42,0-.63C283.89,63.55,220.34,0,141.94,0c-.13,0-.27,0-.4,0Z"/><path class="cls-2" d="M197.04,188.28l-33.09-33.1c4.83-6.31,7.7-14.2,7.7-22.73,0-20.7-16.84-37.54-37.53-37.54s-37.54,16.84-37.54,37.54,16.84,37.53,37.54,37.53c8.42,0,16.2-2.79,22.47-7.5l33.13,33.12c1.95,1.95,5.11,1.95,7.06,0l.26-.26c1.95-1.95,1.95-5.11,0-7.06ZM106.58,132.45c0-15.19,12.35-27.54,27.54-27.54s27.53,12.35,27.53,27.54-12.35,27.53-27.53,27.53-27.54-12.35-27.54-27.53Z"/><g class="cls-3"><path class="cls-2" d="M152.5,142.45v4.4h-36.42v-4.4c.08-5.18,4.3-9.36,9.51-9.36h7.09c-4.34-.74-7.64-4.53-7.64-9.09,0-5.09,4.13-9.22,9.22-9.22s9.23,4.13,9.23,9.22c0,4.56-3.3,8.35-7.65,9.09h7.15c5.2,0,9.43,4.18,9.51,9.36Z"/></g><circle class="cls-2" cx="193.44" cy="127.5" r="7.75"/><path class="cls-2" d="M208.76,143.01c-.07-4.35-3.61-7.86-7.98-7.86h-14.62c-4.37,0-7.92,3.51-7.98,7.86h0v3.7h30.6v-3.7h0Z"/><circle class="cls-2" cx="127.59" cy="188.83" r="8.63"/><path class="cls-2" d="M144.64,206.08c-.07-4.85-4.02-8.75-8.89-8.75h-16.27c-4.86,0-8.81,3.91-8.89,8.75h0v4.11h34.05v-4.11h0Z"/><circle class="cls-2" cx="182.05" cy="81.41" r="7.7"/><path class="cls-2" d="M197.27,96.81c-.07-4.33-3.59-7.81-7.93-7.81h-14.53c-4.34,0-7.87,3.49-7.93,7.81h0v3.67h30.4v-3.67h0Z"/><circle class="cls-2" cx="81.94" cy="132.64" r="6.81"/><circle class="cls-2" cx="90.99" cy="173.32" r="6.81"/></g></svg>