<?xml version="1.0" encoding="UTF-8"?><svg id="Layer_2" xmlns="http://www.w3.org/2000/svg" viewBox="0 0 283.9 283.9"><defs><style>.cls-1{fill:#1f3966;}.cls-2{opacity:.65;}</style></defs><g id="Layer_1-2"><polygon class="cls-1" points="242.26 113.4 226.47 123.45 208.75 127.86 198.34 127.86 198.34 141.74 171.24 141.74 150.48 145.86 138.26 147.22 129.32 149.46 128.4 149.69 123.73 153.93 112.9 163.79 96.13 165.18 75.76 181.43 53.56 193.9 49.7 187.02 71.61 174.71 93.09 157.51 109.57 156.14 122.35 144.53 119.79 120.18 127.63 119.36 129.27 134.93 132.27 130.26 145.26 126.38 148.07 112.39 164.63 108.24 168.98 83.64 185.39 85.14 199.36 62.27 206.08 66.38 189.57 93.43 175.48 92.16 171.51 114.66 154.82 118.83 152.06 132.58 137.33 136.98 135.52 139.82 137.14 139.41 149.44 138.05 170.85 133.86 190.45 133.86 190.45 119.98 207.78 119.98 223.32 116.1 238.03 106.74 242.26 113.4"/><path class="cls-1" d="M141.95,283.9C63.68,283.9,0,220.22,0,141.95h31.18c0,61.08,49.69,110.77,110.76,110.77v31.18Z"/><path class="cls-1" d="M283.9,141.95h-31.18c0-61.08-49.69-110.77-110.76-110.77V0c78.27,0,141.95,63.68,141.95,141.95Z"/><g class="cls-2"><path class="cls-1" d="M61.07,141.95h-31.18c0-61.79,50.27-112.06,112.07-112.06v31.18c-44.6,0-80.88,36.28-80.88,80.88Z"/><path class="cls-1" d="M141.95,254.02v-31.18c44.6,0,80.88-36.28,80.88-80.88h31.18c0,61.79-50.27,112.07-112.06,112.07Z"/></g></g></svg>