<?xml version="1.0" encoding="UTF-8"?><svg id="Layer_2" xmlns="http://www.w3.org/2000/svg" viewBox="0 0 283.9 283.9"><defs><style>.cls-1{opacity:.6;}.cls-1,.cls-2,.cls-3,.cls-4,.cls-5{fill:#fff;}.cls-3{opacity:.2;}.cls-3,.cls-4,.cls-5{fill-rule:evenodd;}.cls-4{opacity:.4;}.cls-5{opacity:.8;}.cls-6{opacity:.65;}</style></defs><g id="Layer_1-2"><path class="cls-3" d="M141.95,252.72v-29.89c44.6,0,80.88-36.28,80.88-80.88h29.88c0-61.07-49.69-110.76-110.76-110.77v29.89c-44.6,0-80.88,36.28-80.88,80.88h-29.88c0,61.08,49.69,110.77,110.76,110.77Z"/><path class="cls-5" d="M91.22,240.37l75.56-130.6-64.14,26.5-45.2,77.18c9.35,11.04,20.82,20.22,33.78,26.92Z"/><path class="cls-1" d="M212.09,176.79c5.65-11.03,8.86-24.25,8.86-37.47l29.88-.06c0-1.31-.03-1.8-.08-3.1l-146.6-.13,52.56,40.41,55.38.34Z"/><path class="cls-4" d="M138.34,61.16c-15.23.67-29.37,5.57-41.29,13.55l59.57,103.39,9.13-68.8-27.4-48.14Z"/><path class="cls-2" d="M141.95,283.9C63.68,283.9,0,220.22,0,141.95h31.18c0,61.08,49.69,110.77,110.76,110.77v31.18Z"/><path class="cls-2" d="M283.9,141.95h-31.18c0-61.08-49.69-110.77-110.76-110.77V0c78.27,0,141.95,63.68,141.95,141.95Z"/><g class="cls-6"><path class="cls-2" d="M61.07,141.95h-31.18c0-61.79,50.27-112.06,112.07-112.06v31.18c-44.6,0-80.88,36.28-80.88,80.88Z"/><path class="cls-2" d="M141.95,254.02v-31.18c44.6,0,80.88-36.28,80.88-80.88h31.18c0,61.79-50.27,112.07-112.06,112.07Z"/></g></g></svg>