<?xml version="1.0" encoding="UTF-8"?><svg id="Layer_2" xmlns="http://www.w3.org/2000/svg" viewBox="0 0 283.9 283.9"><defs><style>.cls-1,.cls-2{fill:#1f3966;}.cls-3{opacity:.65;}.cls-2{opacity:.4;}</style></defs><g id="Layer_1-2"><path class="cls-1" d="M141.95,205.57c-35.08,0-63.62-28.54-63.62-63.62s28.54-63.62,63.62-63.62,63.62,28.54,63.62,63.62-28.54,63.62-63.62,63.62ZM141.95,86.33c-30.67,0-55.62,24.95-55.62,55.62s24.95,55.62,55.62,55.62,55.62-24.95,55.62-55.62-24.95-55.62-55.62-55.62Z"/><path class="cls-2" d="M195.84,135.57c-3.85-3.44-7.34-6.59-10.87-9.71-10.15-8.97-22.13-12.52-35.38-10.92-18.96,2.28-29.95,13.85-32.13,35.27,1.3-1.73,2.42-3.65,3.95-5.15,3.99-3.88,8.73-5.06,14.03-2.97,4.88,1.94,7.25,5.66,7.81,10.85,1.3,12.18-1.3,20.26-15.77,22.79-13.54,2.37-16.29.62-23.65-2.27-6.02-2.37-11.2-8.87-13.35-14.27,7.21,21.52,27.52,37.02,51.46,37.02,29.98,0,54.28-24.3,54.28-54.28,0-2.16-.14-4.28-.38-6.38Z"/><path class="cls-1" d="M141.95,283.9C63.68,283.9,0,220.22,0,141.95h31.18c0,61.08,49.69,110.77,110.76,110.77v31.18Z"/><path class="cls-1" d="M283.9,141.95h-31.18c0-61.08-49.69-110.77-110.76-110.77V0c78.27,0,141.95,63.68,141.95,141.95Z"/><g class="cls-3"><path class="cls-1" d="M61.07,141.95h-31.18c0-61.79,50.27-112.06,112.07-112.06v31.18c-44.6,0-80.88,36.28-80.88,80.88Z"/><path class="cls-1" d="M141.95,254.02v-31.18c44.6,0,80.88-36.28,80.88-80.88h31.18c0,61.79-50.27,112.07-112.06,112.07Z"/></g></g></svg>