<?xml version="1.0" encoding="UTF-8"?><svg id="Layer_2" xmlns="http://www.w3.org/2000/svg" viewBox="0 0 283.9 283.9"><defs><style>.cls-1,.cls-2{fill-rule:evenodd;}.cls-1,.cls-2,.cls-3{fill:#1f3966;}.cls-2,.cls-4{opacity:.65;}</style></defs><g id="Layer_1-2"><path class="cls-2" d="M103.86,221.14v-30.22h19.57c2.08,14.26-.87,25.98-16.94,30.22h-2.64Z"/><path class="cls-1" d="M149.18,121.28c5.06,5.16,9.41,9.59,14.12,14.39.18-1.63.31-2.84.46-4.22h19.31c3.51,20.52-6.68,38.86-24.73,46.47-9.14,3.85-18.69,2.7-28.13,2.74-20.94.1-41.89.03-62.84.03h-3.39c-2.1-8.88,7.52-20.3,19.9-20.2,6.44.05,12.88,0,19.96,0,0-6.38,0-12.61,0-18.84.02-19.26,12.67-35.7,31.48-39.49,7.51-1.51,15.43-.95,23.16-1.3,1.56-.07,3.12,0,5.02,0,0-6.64.06-12.74-.01-18.85-.11-10.13,5.75-18.1,15.19-20.4,1.5-.37,3.09-.35,5.11-.56v39.77h39.75c.86,9.54-6.8,19.4-15.96,19.98-9.59.61-19.24.41-28.86.47-9.62.06-19.23,0-29.55,0ZM152.01,159.49c2.81-2.72,5.58-5.21,8.1-7.92,1.85-1.98,1.58-3.81-.56-5.83-6.53-6.17-12.86-12.54-19.21-18.9-4.33-4.34-5.5-4.42-9.87-.18-.94.91-1.84,1.88-2.69,2.88-2.1,2.49-2.15,4.44.56,6.96,6.79,6.3,13.18,13.03,19.76,19.56,1.01,1,2.13,1.89,3.9,3.42ZM137.84,160.41c-4.55-4.76-8.87-9.27-13.51-14.11v14.11h13.51Z"/><path class="cls-3" d="M141.95,283.9C63.68,283.9,0,220.22,0,141.95h31.18c0,61.08,49.69,110.77,110.76,110.77v31.18Z"/><path class="cls-3" d="M283.9,141.95h-31.18c0-61.08-49.69-110.77-110.76-110.77V0c78.27,0,141.95,63.68,141.95,141.95Z"/><g class="cls-4"><path class="cls-3" d="M61.07,141.95h-31.18c0-61.79,50.27-112.06,112.07-112.06v31.18c-44.6,0-80.88,36.28-80.88,80.88Z"/><path class="cls-3" d="M141.95,254.02v-31.18c44.6,0,80.88-36.28,80.88-80.88h31.18c0,61.79-50.27,112.07-112.06,112.07Z"/></g></g></svg>