<?xml version="1.0" encoding="UTF-8"?><svg id="Layer_2" xmlns="http://www.w3.org/2000/svg" viewBox="0 0 283.89 283.9"><defs><style>.cls-1,.cls-2{fill:#fff;}.cls-1,.cls-3{opacity:.65;}</style></defs><g id="Layer_1-2"><path class="cls-2" d="M208.9,145.47c.04-.17.08-.35.12-.52.02-1.16.43-2.24.83-3.29.33-.86.3-1.81.71-2.66-.67,1.23-1.3,2.47-2,3.68-1.06,1.82-1.89,3.78-3.21,5.46-.07.09-.18.14-.28.2-.93,1.37-1.86,2.74-2.79,4.12-.47.84-1.01,1.62-1.63,2.34-.47.74-.89,1.52-1.61,2.06-.05.09-.1.18-.14.27-.49.85-1.11,1.61-1.8,2.31-1.22,1.62-2.52,3.18-4,4.57-1.26,1.62-2.72,3.04-4.27,4.37-.61.7-1.28,1.34-2.05,1.87-.1.1-.21.19-.31.29-1.36,1.4-2.82,2.8-4.51,3.66-1.42.72-2.41,1.94-3.81,2.6-.59.57-1.18,1.13-1.97,1.43-.16.28-.39.48-.73.53-.81.65-1.7,1.16-2.67,1.53-.16.24-.37.38-.66.37-.76.57-1.54,1.09-2.47,1.32-.27.15-.45.45-.78.5-.86.49-1.71.97-2.68,1.21-.38.29-.78.54-1.29.55-1.13.67-2.36,1.1-3.58,1.56-.14.19-.31.27-.54.17-.06.01-.13.02-.19.03-.26.25-.54.44-1.03.41.23-.42.57-.57.96-.65l3.5-2.03c.78-.52,1.56-1.04,2.35-1.56.14-.08.29-.17.43-.25,1.82-1.37,3.64-2.74,5.46-4.12.38-.42.79-.8,1.33-1.01.33-.49.77-.85,1.29-1.12,1.44-1.42,2.88-2.83,4.43-4.14.6-.84,1.32-1.56,2.11-2.22.64-.94,1.43-1.75,2.23-2.56.47-.79,1.02-1.53,1.71-2.15.03-.06.06-.11.09-.17.52-.68,1.04-1.36,1.56-2.04,1.35-2.15,2.86-4.2,4.06-6.45.28-.52.58-1.03.88-1.55.29-.6.59-1.19.88-1.79.37-.84.74-1.67,1.12-2.51.31-.84.62-1.68.93-2.52.31-.81.63-1.61.94-2.42.08-1.41.66-2.71,1.01-4.05.21-.79.27-1.65.78-2.35.19-.4,0-.87.24-1.26.19-1,.39-1.99.58-2.99,0-.99.09-1.98.32-2.94-.11-.86-.02-1.72.11-2.57v-.02c-.02-.07-.03-.15-.05-.22-.02-1.83-.05-3.66-.07-5.49-.23-.94-.28-1.89-.29-2.85-.29-1.9-.57-3.81-1-5.68-.06-.25,0-.53,0-.79-.25-.15-.25-.38-.18-.62-.04-.08-.08-.15-.12-.23-.23-.51-.43-1.03-.44-1.61-.3-1.02-.6-2.04-.91-3.06-.15-.18-.16-.41-.17-.63-.47-.69-.66-1.49-.88-2.28-.32-.52-.54-1.08-.71-1.66-.49-.52-.69-1.18-.96-1.82-.35-.48-.74-.94-.95-1.51-.5-.54-1-1.09-1.31-1.77-.33-.18-.53-.47-.73-.77-.67-.73-1.34-1.46-2.02-2.2-.46-.31-.89-.65-1.2-1.12-.4-.35-.8-.69-1.2-1.04-.77-.61-1.54-1.21-2.3-1.82-.79-.54-1.57-1.07-2.36-1.61-.81-.48-1.61-.97-2.42-1.45-.82-.42-1.63-.85-2.45-1.27-.95-.43-1.89-.86-2.84-1.29-.73-.28-1.47-.56-2.2-.85-.87-.25-1.76-.45-2.56-.88-.87-.25-1.74-.49-2.62-.74-.94-.21-1.88-.43-2.81-.64-.53-.13-1.06-.25-1.59-.38-1.19-.22-2.38-.45-3.58-.67l-2.7-.38c-.97-.09-1.95-.19-2.92-.28-.79-.07-1.58-.14-2.38-.21-1.93-.05-3.85-.09-5.78-.14-.95.03-1.9.07-2.85.1-1.92.17-3.84.35-5.76.52-.97.26-1.97.37-2.97.48-.12.02-.25.04-.37.06-.84.29-1.73.4-2.6.55-2.04.57-4.08,1.13-6.12,1.7-3.28,1.05-6.36,2.58-9.51,3.96-1.06.74-2.18,1.35-3.35,1.89-1.39,1.12-3.03,1.86-4.41,3-.34.28-.7.55-1.05.83-.07.31-.26.46-.59.41-.07,0-.11.02-.12.09-.07.27-.08.63-.53.45-.01.31-.18.46-.49.44-.03.25-.17.34-.42.29-.07.27-.15.51-.51.42l-.03.06c-.04.26-.15.43-.46.35-.13.32-.28.61-.7.57-.16.02-.24.14-.3.27.14.31-.09.28-.27.29-.24.39-.43.83-.98.86-.04.17-.12.3-.31.32v.06c-.63.82-1.25,1.67-2.25,2.11-.09.34-.26.62-.59.77-.56.69-.99,1.52-1.89,1.89h.01c-.2.66-.52,1.21-1.27,1.37-.05,0-.1,0-.15,0-.29.59-.69,1.1-1.24,1.48-.16.29-.3.59-.58.79-.44.65-.88,1.3-1.46,1.84-1.18,1.73-2.35,3.47-3.53,5.2-.53.86-1.06,1.73-1.58,2.59-.45.76-.8,1.59-1.39,2.27-.36.75-.71,1.49-1.07,2.24-.11,1.13-.81,2.04-1.28,3.02-.65,1.35-1.34,2.69-1.99,4.04-.09.19-.13.4-.41.38-.05.05-.1.11-.15.16-.02.12-.04.24-.06.35.19.48-.05.89-.24,1.28-.87,1.84-1.57,3.73-2.29,5.63-1.14,3.02-2.27,6.05-3.11,9.17-.07.25-.17.45-.49.4l-.88,3.13c.62-.43.61-1.28,1.21-1.73.36-.95.87-1.81,1.48-2.62.15-.61.61-1.06.84-1.62-.17-.24-.09-.5.04-.67,1.54-1.97,2.51-4.32,4.08-6.26.14-.18.21-.46.53-.38.04-.04.07-.1.08-.15.34-1.27,1.17-2.28,1.93-3.28.76-.99,1.4-2.07,2.25-2.99.12-.13.23-.18.38-.16.04-.04.07-.08.08-.14.04-.76.65-1.18,1.04-1.73.67-.94,1.37-1.87,2.23-2.65.76-1.26,1.76-2.32,2.82-3.34.07-.04.15-.08.22-.12.15-.41.1-1,.81-.91.07-.18.09-.4.33-.46.48-.77.94-1.56,1.85-1.93.05-.14.11-.26.27-.29.06-.19.08-.41.32-.47.14-.36.46-.53.77-.72.06-.22.19-.31.42-.27.27-.23.54-.47.81-.7.07-.06.13-.12.2-.19.19-.18.37-.36.56-.55.07-.05.14-.1.21-.15h0c.26-.38.59-.68.99-.91.3-.56.83-.89,1.31-1.28.76-.78,1.54-1.53,2.46-2.12h0c.74-.82,1.63-1.45,2.5-2.09.33-.4.73-.69,1.19-.92.56-.42,1.12-.84,1.68-1.26.58-.46,1.15-.95,1.85-1.22.3-.23.52-.57.93-.65.75-.64,1.59-1.15,2.48-1.57.18-.18.38-.33.64-.38.84-.6,1.74-1.11,2.69-1.51.19-.18.41-.31.68-.36.74-.53,1.57-.87,2.4-1.23.4-.27.82-.48,1.3-.55.65-.43,1.37-.71,2.12-.89.63-.48,1.43-.58,2.12-.93.02,0,.03-.01.05-.02.03-.02.07-.03.12-.03.05,0,.1,0,.15.01.03-.04.08-.06.13-.07.13-.07.26-.15.39-.22h.01s.03-.02.05-.02c.04-.03.09-.04.15-.03.03-.01.06-.02.1-.03.27-.04.51-.18.77-.24,0,0,0,0,0,0,.1-.09.22-.14.34-.18.1-.03.21-.04.31-.08.08-.03.16.04.18.11.01.04,0,.08-.02.12-.02.04-.05.05-.09.07-.09.03-.2.05-.29.07-.02,0-.05.01-.07.02-.01,0-.02,0-.03.01,0,0,0,0,0,0,0,0,0,0,0,0-.02.01-.05.02-.07.04,0,0,0,0,0,0,0,0-.02.01-.02.02-.2.23-.53.29-.79.44-.07.04-.18.18-.28.15-.01.01-.03.03-.04.04-.03.02-.06.04-.1.05-.02.01-.05.02-.07.02,0,0-.01,0-.02,0-.04.03-.09.04-.15.04-.11.06-.21.12-.32.18-.03.02-.07.03-.11.03-.02.01-.04.03-.06.04-.86.42-1.62,1.02-2.54,1.32-.18.21-.4.35-.68.38-.87.62-1.71,1.29-2.75,1.63-.04.14-.11.26-.28.3-1.01.71-2.03,1.43-3.04,2.14-.88.63-1.75,1.26-2.63,1.89-.24.38-.65.56-.99.83-.46.38-.88.82-1.43,1.09-.07.06-.14.12-.21.18h.01c-.68.73-1.44,1.37-2.25,1.96-.06.06-.13.11-.19.17-.39.34-.77.67-1.16,1.01-.03.12-.06.24-.2.28v.02c-.08.06-.15.12-.21.17-.97.97-1.93,1.94-2.9,2.91-.69.75-1.37,1.5-2.06,2.25-.42.6-.87,1.19-1.47,1.63-.07.27-.25.46-.47.62-.55.83-1.17,1.6-1.85,2.32-.14.27-.28.53-.42.8-.47,1.36-1.31,2.48-2.28,3.5-.67,1.49-1.54,2.86-2.49,4.18-.13.92-.66,1.67-1.06,2.46-2.15,4.18-3.26,8.7-4.4,13.21-.55,2.19-.73,4.47-1.01,6.73-.32,2.64-.45,5.3-.37,7.97,0,.23-.1.47-.15.7.25.37.18.75.06,1.14.25.53.34,1.07.07,1.62-.17.71.19,1.41.04,2.12v.03c.03.07.06.15.08.22.09.92.44,1.8.36,2.74.45.97.55,2.03.81,3.05.78,2,1.28,4.08,1.89,6.13.07.16.14.32.2.49l1.01,2.64c.23.46.46.92.68,1.38.4.61.81,1.21,1.03,1.92.4.4.71.86.92,1.38.56.61,1.12,1.21,1.47,1.97.25.13.44.32.59.56.73.75,1.46,1.5,2.19,2.25.55.47,1.09.95,1.64,1.42.27.09.47.29.65.5.78.56,1.56,1.11,2.34,1.67.81.49,1.61.99,2.42,1.48.76.42,1.61.69,2.26,1.31.06.02.11.04.16.07.91.18,1.69.69,2.52,1.07l2.52,1.05c.87.27,1.78.45,2.59.89.86.25,1.72.5,2.58.75.46.12.93.24,1.39.36,1.34.13,2.59.62,3.88.93.89.17,1.78.34,2.66.51.91.08,1.82.16,2.7.42,1.77.18,3.54.35,5.31.53.99.05,1.98.1,2.97.16.86.02,1.72.04,2.57.06.86,0,1.73,0,2.59,0,.21-.14.42-.04.63,0,.88-.23,1.78-.2,2.67-.2.97-.1,1.94-.19,2.91-.29.49-.09.97-.26,1.48-.16.39-.19.82-.21,1.25-.23,1.03-.17,2.06-.34,3.09-.51,2.05-.52,4.1-1.05,6.15-1.57.04-.02.07-.02.1.02.14-.09.3-.13.46-.07.74-.59,1.67-.71,2.53-.97.61-.35,1.27-.56,1.94-.76.36-.27.78-.4,1.22-.48,2.1-1.05,4.25-1.96,6.3-3.12,3.16-1.79,6.19-3.76,9.03-6.03.51-.42,1.02-.83,1.52-1.25.3-.24.6-.47.91-.71l4.58-4.37c1.37-1.56,2.73-3.11,4.1-4.67,1.15-1.54,2.43-2.98,3.47-4.61.47-.63.94-1.26,1.41-1.89.67-1.29,1.47-2.49,2.37-3.63.06-.13.12-.25.18-.38-.03-.14.04-.21.15-.27.15-.28.3-.56.45-.83.38-.71.75-1.41,1.13-2.12.15-1.33,1.07-2.3,1.61-3.45.75-1.59,1.42-3.22,2.23-4.77,1.12-2.15,1.85-4.45,2.89-6.62.19-.4.28-.86.4-1.29.13-.47.28-.91.72-1.2.18-.26.12-.62.4-.83ZM185.66,147.45c.39-.66.85-1.28,1.27-1.92.34-.6.68-1.2,1.03-1.79-.12-.21-.06-.42.03-.6.5-1.14,1.01-2.27,1.53-3.39.04-.08.19-.11.29-.16.05-.12.1-.24.15-.36-.09-1.23.6-2.25,1.02-3.31.57-1.43.92-2.92,1.36-4.38.44-1.47.83-2.96,1.25-4.43.08-.28.07-.61.36-.8.04-.18.07-.37.11-.55-.16-.88-.1-1.72.39-2.5.22-.93.24-1.88.31-2.84.4.08.3.38.32.58.41,4.75.18,9.48-.56,14.19-.24,1.54-.5,3.08-.75,4.62.05-.11.09-.22.2-.48.07,1.25-.22,2.31-.62,3.3-.45,1.12-.65,2.32-1.11,3.44-.09.22-.11.48-.45.45-.04.12-.08.24-.13.36.1.72-.18,1.37-.46,1.98-1.1,2.32-2.2,4.63-3.4,6.9-.61,1.16-1.4,2.21-2.12,3.31-.1.15-.23.29-.44.26l-.19.33c.18.68-.42,1.11-.7,1.48-.98,1.31-1.85,2.72-3.06,3.85-.06.05-.15.07-.24.1-.45.87-.88,1.75-1.89,2.12l-.02.07c-.36.84-.82,1.59-1.77,1.86-2.86,2.84-5.82,5.57-9.05,8-6.85,5.15-14.3,9.1-22.64,11.26-5.41,1.41-10.9,1.88-16.45,1.17-1.74-.22-3.37-.92-5-1.54-3.47-1.31-6.78-2.94-9.85-5.04-5.11-3.51-8.97-7.97-10.77-14.02-.14-.1-.14-.25-.1-.4h0c-.36-.13-.27-.38-.18-.64-.73-.44-.47-1.27-.53-1.85-.33-3.23-.23-6.46.71-9.62.53-1.78.98-3.59,1.52-5.36.21-.68.39-1.41.97-1.91.05-.12.1-.24.15-.36-.14-.44.05-.86.23-1.21,1.26-2.5,2.14-5.19,3.87-7.44.26-.34.09-1.05.82-1.02.07-.11.13-.21.2-.32-.1-.77.42-1.11.98-1.41,2.28-2.99,4.77-5.8,7.73-8.15,5.81-4.59,12.33-7.44,19.77-8.01,2.7-.21,4.99,1.22,5.87,3.69.85,2.38-.04,5.17-2.19,6.62-.88.59-1.94.8-3,.87-2.67.17-5.18.96-7.65,1.91-.14.36-.39.45-.74.31-.04-.02-.08,0-.11.02-.12.33-.34.44-.67.33-.14.24-.35.29-.61.23h0c-.07.23-.23.31-.45.24-.1.35-.32.48-.68.36-.49.69-1.17,1.04-1.99,1.14-.04.16-.1.3-.3.28v-.02c-.27.59-.75.88-1.38.94h0c-.04.3-.19.46-.51.43h0c-.05.41-.34.53-.71.56-.03.25-.18.33-.42.28-.04.01-.05.04-.04.08-.04.18-.08.35-.31.36-.07.04-.14.09-.21.13-.03.16-.08.3-.28.3-.02.17-.07.31-.28.29h0c-.1.62-.5.93-1.1,1.04l-.12.16c.24.42-.08.41-.33.44-.54,1.23-1.37,2.23-2.37,3.11h.01c-.31,1.2-1.12,2.15-1.68,3.23-1.68,3.25-3.05,6.6-3.93,10.16-.08.31-.08.67-.38.88-1.03,5.73.69,10.5,5.08,14.31,2.65,2.3,5.77,3.77,9.08,4.88,4.55,1.52,9.17,2.45,14,1.93,5.42-.58,10.53-2.17,15.42-4.53,6.38-3.08,11.97-7.25,16.98-12.23.08-.08.14-.19.21-.29.05-.14.11-.27.28-.3.06-.19.06-.43.35-.45v.02c.37-.7.64-1.48,1.57-1.64h-.01c.45-1.18,1.5-1.9,2.18-2.9.58-.86,1.29-1.64,1.92-2.46.13-.18.26-.31.49-.3.33-.64.45-1.44,1.27-1.71.07-.11.14-.22.21-.33-.21-.7.42-1.12.71-1.52,1.07-1.45,1.79-3.1,2.71-4.63ZM98.21,135.91c-.26,1.31-1.1,2.36-1.64,3.55-.61,1.35-1.28,2.67-1.81,4.05-.13.32-.27.65-.61.82-.06.1-.12.2-.18.31-.05.13-.1.25-.15.38-.05,1.27-.48,2.4-1.28,3.38l-.13.36c.15.34-.04.64-.13.95-.55,1.99-1.09,3.98-1.67,5.96-.35,1.21-.53,2.44-.69,3.68-.06.46-.09.96-.48,1.31-.02.13-.03.25-.05.38.46,1.08-.12,2.1-.18,3.15,0,.15-.23.31-.42.19-.32-.2.02-.33.09-.49-.29-3.68-.36-7.35,0-11.03.26-2.74.7-5.46,1.18-8.17-.29-.15-.2-.39-.13-.62.55-1.96,1.09-3.91,1.64-5.87.06-.23.11-.48.44-.46,2.65-7.12,6.53-13.5,11.43-19.3,4.73-5.6,10.13-10.44,16.24-14.5,5.81-3.85,12.01-6.87,18.78-8.61,5.33-1.37,10.72-1.87,16.18-.99,2.33.37,4.51,1.3,6.68,2.2,4.56,1.9,8.79,4.34,12.39,7.76,2.05,1.94,3.69,4.2,5.06,6.66.24.07.33.22.25.46.36.1.51.31.34.68v-.02c.19.09.17.24.12.39.04.08.08.15.12.23.26.06.35.2.2.46h0c.2.08.17.23.1.38.04.08.08.15.12.23h-.02c.29.14.35.35.19.62h.02c.2.11.14.28.08.46-.03.03-.03.06,0,.09.4.19.4.51.27.87h0c.48.51.52,1.11.29,1.75.65.78.33,1.74.37,2.6.02.48.44,1.12-.19,1.56-.01.13-.02.25-.03.38.06.06.18.13.18.19-.23,1.87-.12,3.82-1.07,5.55-.13.47-.26.95-.39,1.42-.41,1.94-.59,3.96-1.89,5.61-.07.18-.15.37-.22.55.14.57-.11,1.07-.32,1.54-1.46,3.25-3.17,6.36-5.17,9.32-.13.2-.16.49-.48.21-2.02,2.62-4.16,5.12-6.7,7.27-5.97,5.06-12.76,8.18-20.62,8.87-3.15.28-5.27-1.22-6.32-4.53-.44-.19-.34-.57-.33-.92.05-1.21.39-2.34.96-3.4.16-.29.29-.61.72-.55,1.27-1.31,2.88-1.65,4.63-1.82,2.79-.26,5.46-1.13,8.04-2.18,2.2-.9,4.29-2.01,6.13-3.53.19-.44.37-.9.99-.81.16-.54.46-.93,1.05-1,.02-.17.08-.31.29-.29h0c.4-.84,1.1-1.41,1.85-1.93h-.01c.54-.92,1-1.9,1.99-2.46h0c.72-1.36,1.44-2.73,2.17-4.1,1.76-3.26,3.06-6.7,3.89-10.3.57-2.45.44-4.92-.2-7.36-.08-.29-.21-.56-.06-.86-.31-.21-.5-.46-.31-.86h0c-.76-1.04-1.49-2.11-1.93-3.34h-.07c-.07-.1-.14-.18-.21-.27h.02c-.72-.41-1.33-.93-1.61-1.74h0c-.41-.14-.88-.22-.92-.8-1.68-1.45-3.6-2.52-5.63-3.35-4.02-1.64-8.15-2.97-12.53-3.15-6-.25-11.7,1.15-17.19,3.46-7.42,3.12-13.85,7.7-19.53,13.36-.11.1-.19.23-.28.35.03.2.07.38-.13.57-2.34,2.21-4.25,4.78-6.25,7.28-1.1,1.39-1.83,3.02-3.06,4.3-.06.06-.14.09-.21.13-.38.96-.64,1.98-1.61,2.57l-.16.32c.25.36.14.52-.29.5ZM193.97,168.17c-.96,1.89-2.29,3.52-3.58,5.18-2.76,3.58-5.79,6.91-9.18,9.92-2.68,2.38-5.52,4.55-8.56,6.45-6.12,3.83-12.71,6.55-19.77,8.08-6.15,1.33-12.37,1.77-18.65,1.47-7.14-.34-14.09-1.68-20.83-3.99-6.24-2.14-11.89-5.32-16.35-10.35-1.77-2-2.57-4.46-3.3-6.94-1.65-5.63-1.83-11.36-1.03-17.14.67-4.82,2.12-9.41,3.86-13.94,1.99-5.15,4.53-10.01,7.57-14.6,2.48-3.74,5.34-7.19,8.53-10.36,3.9-3.88,8.2-7.26,13.01-9.93,5.82-3.23,11.98-5.42,18.72-5.73,4.3-.19,8.32.97,12.31,2.38,2.52.89,4.85,2.11,6.88,3.86,3.53,3.04,4.87,6.87,3.83,11.42-1.06,4.63-2.82,8.99-5.48,12.96-3.69,5.49-8.79,8.92-15.15,10.64-1.93.52-3.92.53-5.85,1.04-2.34.61-4.01,2.05-5.14,4.08-2.5,4.46-.86,9.93,3.66,12.31,1.93,1.01,4.03,1.06,6.16.85,6.06-.6,11.54-2.74,16.63-6.02,7.11-4.59,12.29-10.88,16.14-18.31,2.37-4.58,4.12-9.42,5.21-14.47,1.14-5.25.93-10.46-1.06-15.51-1.28-3.26-3.21-6.12-5.65-8.61-4.19-4.27-9.19-7.31-14.72-9.54-2.41-.97-4.86-1.76-7.37-2.41-4.88-1.25-9.84-1.58-14.84-1.13-7.48.67-14.54,2.92-21.37,5.95-4.83,2.14-9.3,4.9-13.57,8-6.22,4.51-11.68,9.83-16.76,15.55-.65.74-1.2,1.58-1.98,2.19-.07.12-.13.24-.2.35-.02-.02-.05-.04-.05-.07,0-.15.07-.27.23-.31.96-2.11,2.27-4.03,3.52-5.97,3.93-6.1,8.57-11.6,14.11-16.3,7.44-6.31,15.89-10.66,25.39-12.97,8.16-1.98,16.39-2.33,24.71-1.39,5.44.61,10.74,1.83,15.89,3.59,5.03,1.72,9.67,4.25,13.71,7.79,1.04.91,2.03,1.88,3.05,2.82,2.18,1.99,2.93,4.71,3.68,7.4,1.44,5.16,1.64,10.44,1.01,15.73-.54,4.52-1.75,8.88-3.37,13.14-1.6,4.22-3.45,8.31-5.71,12.21-3.48,6.03-7.76,11.45-12.86,16.18-3.47,3.21-7.27,6.02-11.43,8.29-5.47,2.98-11.23,5.07-17.49,5.52-2.68.19-5.34.03-7.95-.68-3.34-.9-6.68-1.82-9.66-3.67-2.66-1.65-4.93-3.67-6.04-6.7-.74-2.02-.91-4.12-.43-6.22.66-2.94,1.63-5.78,2.91-8.51,1.67-3.57,3.8-6.8,6.72-9.5,3.24-3,7.08-4.77,11.28-5.96,1.84-.52,3.74-.49,5.59-.96,2.35-.6,4.01-2.03,5.17-4.04,2.58-4.46.88-10.1-3.71-12.43-1.94-.98-4.04-1-6.18-.79-4.31.42-8.34,1.72-12.22,3.58-5.04,2.42-9.34,5.81-13.07,9.92-3.31,3.65-5.93,7.78-8.06,12.22-1.95,4.08-3.5,8.32-4.46,12.73-1.5,6.85-.86,13.46,2.85,19.57,2.21,3.65,5.21,6.59,8.67,9.07,3.69,2.65,7.71,4.6,11.96,6.17,5.66,2.09,11.48,3.08,17.49,2.91,4.8-.13,9.49-1.04,14.08-2.48,3.6-1.13,6.98-2.75,10.4-4.3,3.77-1.7,7.44-3.55,10.96-5.7,5.66-3.46,10.85-7.55,15.57-12.23.51-.51,1.05-.98,1.58-1.46.06-.07.08-.27.2-.16.09.08-.04.19-.15.23Z"/><path class="cls-1" d="M86.27,121.49c.97-2.11,2.27-4.03,3.52-5.97,3.93-6.1,8.57-11.6,14.11-16.3,7.44-6.31,15.89-10.66,25.39-12.97,8.16-1.98,16.39-2.33,24.71-1.39,5.44.61,10.74,1.83,15.89,3.59,5.03,1.72,9.67,4.25,13.71,7.79,1.04.91,2.03,1.88,3.05,2.82,2.18,1.99,2.93,4.71,3.68,7.4,1.44,5.16,1.64,10.44,1.01,15.73-.54,4.52-1.75,8.88-3.37,13.14-1.6,4.22-3.45,8.31-5.71,12.21-3.48,6.03-7.76,11.45-12.86,16.18-3.47,3.21-7.27,6.02-11.43,8.29-5.47,2.98-11.23,5.07-17.49,5.52-2.68.19-5.34.03-7.95-.68-3.34-.9-6.68-1.82-9.66-3.67-2.66-1.65-4.93-3.67-6.04-6.7-.74-2.02-.91-4.12-.43-6.22.66-2.94,1.63-5.78,2.91-8.51,1.67-3.57,3.8-6.8,6.72-9.5,3.24-3,7.08-4.77,11.28-5.96,1.84-.52,3.74-.49,5.59-.96,2.35-.6,4.01-2.03,5.17-4.04,2.58-4.46.88-10.1-3.71-12.43-1.94-.98-4.04-1-6.18-.79-4.31.42-8.34,1.72-12.22,3.58-5.04,2.42-9.34,5.81-13.07,9.92-3.31,3.65-5.93,7.78-8.06,12.22-1.95,4.08-3.5,8.32-4.46,12.73-1.5,6.85-.86,13.46,2.85,19.57,2.21,3.65,5.21,6.59,8.67,9.07,3.69,2.65,7.71,4.6,11.96,6.17,5.66,2.09,11.48,3.08,17.49,2.91,4.8-.13,9.49-1.04,14.08-2.48,3.6-1.13,6.98-2.75,10.4-4.3,3.77-1.7,7.44-3.55,10.96-5.7,5.66-3.46,10.85-7.55,15.57-12.23.51-.51,1.05-.98,1.58-1.46l.05.07c-.96,1.88-2.29,3.52-3.58,5.18-2.76,3.58-5.79,6.91-9.18,9.92-2.68,2.38-5.52,4.55-8.56,6.45-6.12,3.83-12.71,6.55-19.77,8.08-6.15,1.33-12.37,1.77-18.65,1.47-7.14-.34-14.09-1.68-20.83-3.99-6.24-2.14-11.89-5.32-16.35-10.35-1.77-2-2.57-4.46-3.3-6.94-1.65-5.63-1.83-11.36-1.03-17.14.67-4.82,2.12-9.41,3.86-13.94,1.99-5.15,4.53-10.01,7.57-14.6,2.48-3.74,5.34-7.19,8.53-10.36,3.9-3.88,8.2-7.26,13.01-9.93,5.82-3.23,11.98-5.42,18.72-5.73,4.3-.19,8.32.97,12.31,2.38,2.52.89,4.85,2.11,6.88,3.86,3.53,3.04,4.87,6.87,3.83,11.42-1.06,4.63-2.82,8.99-5.48,12.96-3.69,5.49-8.79,8.92-15.15,10.64-1.93.52-3.92.53-5.85,1.04-2.34.61-4.01,2.05-5.14,4.08-2.5,4.46-.86,9.93,3.66,12.31,1.93,1.01,4.03,1.06,6.16.85,6.06-.6,11.54-2.74,16.63-6.02,7.11-4.59,12.29-10.88,16.14-18.31,2.37-4.58,4.12-9.42,5.21-14.47,1.14-5.25.93-10.46-1.06-15.51-1.28-3.26-3.21-6.12-5.65-8.61-4.19-4.27-9.19-7.31-14.72-9.54-2.41-.97-4.86-1.76-7.37-2.41-4.88-1.25-9.84-1.58-14.84-1.13-7.48.67-14.54,2.92-21.37,5.95-4.83,2.14-9.3,4.9-13.57,8-6.22,4.51-11.68,9.83-16.76,15.55-.65.74-1.2,1.58-1.98,2.19l-.02-.03ZM133,161.81c.77-2.67-.73-5.47-3.33-6.21-2.65-.75-5.48.76-6.17,3.39-.71,2.72.61,5.22,3.32,6.05,2.74.84,5.27-.57,6.18-3.23ZM155.62,111.62c-2.62-.75-5.41.75-6.11,3.33-.73,2.68.5,5.31,3.39,6.16,2.55.75,5.27-.4,6.11-3.56.74-2.77-.85-5.1-3.39-5.92ZM154.12,135.04c1.75.49,3.56-.44,4.03-2.06.54-1.88-.4-3.68-2.21-4.19-1.79-.51-3.67.5-4.15,2.21-.49,1.77.53,3.54,2.33,4.04ZM115.61,126.04c.41-.77-.27-1.77-1.09-2.04-.84-.28-1.78.26-2.04,1.14-.27.92.25,1.93,1.14,2.11.83.17,1.91-.29,1.98-1.2ZM135.86,114.73c.28-.96-.19-1.9-1.08-2.15-.85-.24-1.79.32-2.03,1.19-.24.88.29,1.84,1.13,2.06.83.22,1.74-.29,1.98-1.11ZM135.42,146.88c.98.28,1.79-.13,2.05-1.04.26-.92-.27-1.85-1.2-2.09-.85-.22-1.66.27-1.92,1.16-.3,1.03.06,1.68,1.07,1.97ZM136.38,167.78c-.93-.26-1.69.15-1.95,1.06-.26.89.23,1.83,1.09,2.08.86.25,1.78-.28,2.04-1.16.27-.94-.17-1.69-1.18-1.97Z"/><g class="cls-3"><path class="cls-2" d="M60.83,142.11c0-.05,0-.11,0-.16,0-49.02,31.67-80.84,80.62-81.11v-30.07c-61.18.27-110.7,49.94-110.7,111.18,0,.05,0,.11,0,.16h30.07Z"/><path class="cls-2" d="M253.13,141.63h-30.07c0,.11,0,.21,0,.32,0,49.18-31.93,81.12-81.12,81.12-.16,0-.33,0-.49,0v30.07c.16,0,.33,0,.49,0,61.41,0,111.19-49.78,111.19-111.19,0-.11,0-.21,0-.32Z"/></g><path class="cls-2" d="M142.15,255.64c-.07,0-.14,0-.2,0-62.58,0-113.34-50.56-113.68-113.06H0c.34,78.11,63.76,141.32,141.94,141.32.07,0,.14,0,.2,0v-28.26Z"/><path class="cls-2" d="M141.54,0v28.26c.13,0,.27,0,.4,0,62.79,0,113.69,50.9,113.69,113.69,0,.21,0,.42,0,.63h28.26c0-.21,0-.42,0-.63C283.89,63.55,220.34,0,141.94,0c-.13,0-.27,0-.4,0Z"/></g></svg>