<?xml version="1.0" encoding="UTF-8"?><svg id="Layer_2" xmlns="http://www.w3.org/2000/svg" viewBox="0 0 283.9 283.89"><defs><style>.cls-1{opacity:.65;}.cls-1,.cls-2{fill:#fff;}</style></defs><g id="Layer_1-2"><path class="cls-2" d="M283.9,142.76h-29.44c0-62.49-50.84-113.33-113.33-113.33V0c78.72,0,142.77,64.04,142.77,142.76Z"/><path class="cls-2" d="M142.76,283.89C64.04,283.89,0,219.85,0,141.13h29.44c0,62.49,50.84,113.32,113.33,113.32v29.44Z"/><path class="cls-1" d="M58.28,141.25h-29.44c0-62.89,51.16-114.05,114.05-114.05v29.44c-46.65,0-84.61,37.96-84.61,84.61Z"/><path class="cls-1" d="M141.2,254.17v-29.44c46.15,0,83.7-37.55,83.7-83.7h29.44c0,62.38-50.75,113.14-113.14,113.14Z"/><path class="cls-2" d="M201.27,118.76c.78,2.11.12,4.46-1.55,5.97l-10.5,9.56c.27,2.01.41,4.08.41,6.16s-.15,4.15-.41,6.16l10.5,9.56c1.67,1.5,2.33,3.86,1.55,5.97-1.07,2.89-2.35,5.65-3.83,8.32l-1.14,1.97c-1.6,2.67-3.4,5.19-5.36,7.57-1.43,1.75-3.81,2.33-5.94,1.65l-13.51-4.29c-3.25,2.5-6.84,4.59-10.67,6.16l-3.03,13.85c-.49,2.21-2.18,3.95-4.42,4.32-3.35.56-6.79.85-10.31.85s-6.96-.29-10.31-.85c-2.23-.36-3.93-2.11-4.42-4.32l-3.03-13.85c-3.83-1.58-7.42-3.66-10.67-6.16l-13.49,4.32c-2.13.68-4.51.07-5.94-1.65-1.97-2.38-3.76-4.9-5.36-7.57l-1.14-1.97c-1.48-2.67-2.77-5.43-3.83-8.32-.78-2.11-.12-4.46,1.55-5.97l10.5-9.56c-.27-2.04-.41-4.1-.41-6.19s.15-4.15.41-6.16l-10.5-9.56c-1.67-1.5-2.33-3.86-1.55-5.97,1.07-2.89,2.35-5.65,3.83-8.32l1.14-1.97c1.6-2.67,3.4-5.19,5.36-7.57,1.43-1.75,3.81-2.33,5.94-1.65l13.51,4.29c3.25-2.5,6.84-4.59,10.67-6.16l3.03-13.85c.49-2.21,2.18-3.95,4.42-4.32,3.35-.58,6.79-.87,10.31-.87s6.96.29,10.31.85c2.23.36,3.93,2.11,4.42,4.32l3.03,13.85c3.83,1.58,7.42,3.66,10.67,6.16l13.51-4.29c2.13-.68,4.51-.07,5.94,1.65,1.97,2.38,3.76,4.9,5.36,7.57l1.14,1.97c1.48,2.67,2.77,5.43,3.83,8.32l-.02.02ZM143.07,159.86c10.72,0,19.41-8.69,19.41-19.41s-8.69-19.41-19.41-19.41-19.41,8.69-19.41,19.41,8.69,19.41,19.41,19.41Z"/></g></svg>