<?xml version="1.0" encoding="UTF-8"?><svg id="Layer_2" xmlns="http://www.w3.org/2000/svg" viewBox="0 0 283.89 283.9"><defs><style>.cls-1{fill:none;}.cls-2{opacity:.65;}.cls-2,.cls-3{fill:#fff;}</style></defs><g id="Layer_1-2"><path class="cls-3" d="M142.15,255.64c-.07,0-.14,0-.2,0-62.58,0-113.34-50.56-113.68-113.06H0c.34,78.11,63.76,141.32,141.94,141.32.07,0,.14,0,.2,0v-28.26Z"/><path class="cls-3" d="M141.54,0v28.26c.13,0,.27,0,.4,0,62.79,0,113.69,50.9,113.69,113.69,0,.21,0,.42,0,.63h28.26c0-.21,0-.42,0-.63C283.89,63.55,220.34,0,141.94,0c-.13,0-.27,0-.4,0Z"/><path class="cls-1" d="M106.7,144.5c-1.1.2-1.82.87-1.83,2.04-.01,1.18.7,1.99,1.87,2.02,1.39.03,2.19-.86,2.09-2.23-.08-1.14-.85-1.81-2.13-1.83Z"/><path class="cls-1" d="M93.72,126.54c1.1-.11,1.92-.62,2.01-1.87.08-1.22-.58-2.03-1.74-2.15-1.41-.16-2.28.71-2.29,2.06-.02,1.14.76,1.86,2.03,1.96Z"/><path class="cls-1" d="M108.08,133.5c-1.69.11-2.84,1.02-2.72,2.85.11,1.61,1.3,2.4,2.75,2.33,1.67-.08,2.66-1.17,2.83-2.85-.39-1.52-1.32-2.43-2.86-2.33Z"/><path class="cls-1" d="M118.05,138.27c-2.09,0-3.38,1.17-3.41,3.34-.03,2.03,1.24,3.02,3.13,3.03,2.09,0,3.33-1.13,3.52-3.36-.28-1.8-1.33-3-3.24-3Z"/><path class="cls-1" d="M94.91,136.28c-2.28.01-3.75,1.28-3.87,3.54-.13,2.29,1.25,3.56,3.76,3.87,2.08-.33,3.86-1.28,3.87-3.89,0-2.38-1.47-3.54-3.76-3.52Z"/><path class="cls-1" d="M125.96,128.53c-2.02-.24-3.51.8-3.84,2.82-.35,2.14.99,3.43,2.98,3.59,1.99.15,3.3-1.04,3.75-3.22-.13-1.69-1.06-2.97-2.89-3.18Z"/><path class="cls-2" d="M141.45,30.76v30.07c-39.5.22-67.73,20.99-77.17,54.75-.16.6-.32,1.21-.48,1.81-1.94,7.59-2.97,15.79-2.97,24.55v.16h-30.07v-.16c0-61.24,49.51-110.91,110.69-111.18Z"/><path class="cls-3" d="M194.33,79.86c1.25,2.75.96,4.7.34,6.77-2.52,8.55-4.9,17.14-7.37,25.71-.52,1.81-.09,2.86,1.93,3.09,4.81.54,9.56,1.27,13.49,4.45,1.57,1.27,2.5-.18,3.47-.91,5.14-3.92,10.18-7.94,14.32-12.99,1.68-2.05,3.18-4.38,5.94-5.76.57,2.94-1.26,4.49-2.87,6.15-4.93,5.06-9.68,10.3-14.83,15.11-3.36,3.14-.25,5.44.43,7.99.75,2.82,3.22,1.54,4.96,1.35,5.41-.6,10.39-3.39,16.16-3.6-.84,2.37-2.74,2.52-4.35,3.01-2.13.66-4.33,1.11-6.48,1.71-2.31.65-5.42.7-6.68,2.24-1.34,1.65,2.04,3.57,2.16,5.77.35,6.57.65,13.15.77,19.73.02,1.07-.66,2.53-1.5,3.18-4.83,3.72-2.04,6.76.71,9.82,1.91,2.12,3.83,4.2,6.59,5.34,1.37.57,2.81,1.43,2.35,3.33-.27,1.09-1.15,1.8-2.27,1.92-1.78.2-2.6-.92-3.38-2.37-2.14-4-5.33-7.23-8.18-10.72-1.48-1.81-2.51-1.7-3.67.19-.93,1.52-2.01,2.96-2.92,4.5-4.55,7.7-12.71,11.09-21.23,8.6-5.31-1.55-11.04-1.51-16.04-4.24-1.92-1.04-2.68.5-3.51,1.74-4.17,6.24-8.5,12.39-10.5,19.78-.38,1.42-.7,2.92-2.05,4.1-2.08-1.91-.87-3.82-.05-5.6,2.72-5.85,5.06-11.85,7.26-17.92.81-2.22.56-3.36-1.63-4.65-4.66-2.74-7.02-6.83-5.98-12.47.69-3.76-.86-5.36-4.82-5.56-5.4-.27-10.68.3-16.44,1.71.82-3.16,3.03-2.68,4.49-3.08,2.89-.79,5.91-1.08,8.82-1.81,5.13-1.29,5.8-3.11,2.16-7.06-1.31-1.42-.72-1.71-.45-3.23.94-5.38,3.5-9.44,7.36-13.02.56-.52.63-1.64.76-2.51,1-6.53,4.38-10.11,10.87-11.41,7.77-1.56,7.87-1.71,6.55-9.41-.69-4.03-1.76-7.9-4.11-11.33-.85-1.24-1.69-2.62-.5-4.11.71-.88,1.67-1.27,2.81-.74,1.54.72,2.05,1.98,2.14,3.63.31,5.62,1.14,11.18,2.58,16.63.14.53.09,1.28.44,1.57,1.28,1.08,10.02-1.37,10.73-3.02,3.51-8.22,7.63-16.22,8.98-25.21.3-2.02.68-4.08,2.26-6.42ZM182.19,174.44c2.38-.27,4.85-.95,4.9-3.99.06-3.49-2.61-4.5-5.53-4.52-2.84-.03-5.33,1.28-5.12,4.39.2,2.99,2.77,4,5.75,4.13ZM166.35,158.08c-.2-2.43-1.27-4.37-3.96-4.42-2.85-.06-4.32,1.79-4.29,4.56.03,2.58,1.47,4.3,4.11,4.27,2.64-.02,3.89-1.8,4.14-4.41ZM195.22,150.66c-.17-1.89-.95-3.45-3.13-3.63-2.45-.2-3.61,1.44-3.74,3.55-.12,1.95.95,3.57,3.08,3.73,2.36.17,3.46-1.35,3.78-3.65ZM201.68,155.94c.31,1.69,1.37,2.74,3.03,2.64,1.46-.09,2.39-1.18,2.35-2.74-.04-1.53-.89-2.6-2.44-2.62-1.69-.03-2.71.99-2.94,2.72ZM161.4,136.45c1.43-.03,2.39-.67,2.39-2.11,0-1.35-.83-2.26-2.22-2.32-1.41-.06-2.32.82-2.38,2.14-.05,1.34.85,2.15,2.21,2.29Z"/><path class="cls-2" d="M253.13,141.63h-30.07c0,.11,0,.21,0,.32,0,49.18-31.93,81.12-81.12,81.12-.16,0-.33,0-.49,0v30.07c.16,0,.33,0,.49,0,61.41,0,111.19-49.78,111.19-111.19,0-.11,0-.21,0-.32Z"/><path class="cls-2" d="M147.92,111.3c-3.13,1.52-5.91,2.88-8.87,4.32-4.87,1.88-8.54.99-11.18-4.02-1.22-2.3-1.76-3.93-.34-6.09,1.9-2.88,3.64-5.87,5.63-8.69.88-1.26,2.05-2.29,1.21-3.97-.36-.73-1.1-1.15-1.87-.93-1.83.51-1.79,2.24-2.11,3.66-.74,3.29-2.44,6.11-4.25,8.89-.87,1.34-1.59,1.2-3.21.75-5.78-1.6-11.7-2.75-17.62-3.77-1.89-.33-3.99.41-5.5,1.67-2.22,1.87-3.3.64-4.69-1.05-1.44-1.76-1.69-4.48-4.55-5.72.73,3.11,1.22,5.87,2.04,8.53.87,2.85-.04,4.34-2.95,4.68-2.66.31-5.44,1.17-6.44,3.58-1.76,4.23-4.8,4.2-8.39,3.7-3.43-.48-6.87-.82-10.31-1.22-.08,0-.16-.02-.24-.03-.17.6-.32,1.21-.48,1.81.62,0,1.24.01,1.83.1,2.22.33,4.47.63,6.64,1.2,8.66,2.3,8.65,2.34,9.02,11.18q.41,9.73-8.73,12.83c-.14.05-.29.08-.44.11-1.41.22-2.72.59-2.75,2.37-.01.77.2,1.56,1.01,1.85,1.68.6,2.37-.83,3.33-1.71,5.27-4.88,6.71-4.69,12.18-.34,2.39,1.9,2.64,3.57,1.66,6.02-1.84,4.6-3.62,9.21-5.46,13.81-.66,1.63-1.71,3.19.04,5.69,2.08-6.59,4.48-12.47,8.07-17.8,3.39-5.03,4.18-5.38,9.02-1.79,3.81,2.84,7.58,3.47,11.64.81.91-.6,1.77-1.02,2.89-1.02,4.21.01,7.33-1.97,10.11-5.06,4.88-5.43,4.99-5.32,11.33-2.13,1.25.63,2.53,1.2,4.21,2-.52-3.39-3.24-3.95-4.87-5.5-1.03-.98-2.75-1.55-1.68-3.55,1.59-2.96,1.39-6.23.85-9.28-.92-5.25.24-8.95,5.79-10.48.02,0,.03-.02.05-.03,3.78-.61,13.47-5.86,8.37-5.39ZM93.99,122.52c1.16.13,1.82.93,1.74,2.15-.09,1.25-.91,1.75-2.01,1.87-1.26-.11-2.04-.82-2.03-1.96.02-1.35.88-2.22,2.29-2.06ZM94.79,143.69c-2.51-.31-3.88-1.58-3.76-3.87.12-2.26,1.59-3.52,3.87-3.54,2.29-.01,3.76,1.14,3.76,3.52,0,2.61-1.79,3.56-3.87,3.89ZM106.74,148.56c-1.17-.03-1.88-.83-1.87-2.02.01-1.17.73-1.84,1.83-2.04,1.27.02,2.04.69,2.13,1.83.1,1.37-.7,2.26-2.09,2.23ZM108.12,138.68c-1.45.07-2.65-.71-2.75-2.33-.12-1.83,1.02-2.74,2.72-2.85,1.55-.1,2.48.81,2.86,2.33-.17,1.68-1.16,2.77-2.83,2.85ZM117.77,144.64c-1.89,0-3.16-1-3.13-3.03.03-2.16,1.32-3.34,3.41-3.34,1.91,0,2.96,1.21,3.24,3-.19,2.24-1.43,3.37-3.52,3.36ZM125.1,134.93c-2-.15-3.33-1.45-2.98-3.59.33-2.01,1.82-3.05,3.84-2.82,1.84.22,2.76,1.5,2.89,3.18-.45,2.18-1.76,3.37-3.75,3.22Z"/></g></svg>