<?xml version="1.0" encoding="UTF-8"?><svg id="Layer_2" xmlns="http://www.w3.org/2000/svg" viewBox="0 0 283.9 283.9"><defs><style>.cls-1{opacity:.2;}.cls-1,.cls-2{fill:#fff;}.cls-3{opacity:.65;}</style></defs><g id="Layer_1-2"><path class="cls-1" d="M125.18,103.32c3.67,5.05,8.87,2.48,13.44,2.96.29.03.7-.24.93-.49,4.26-4.63,3.15-14.02-2.26-17.27-1.44-.87-3.54-1-5.3-.88-1.59.12-2.82,1.09-1.4,3.07,1.13,1.59,1.9,3.45,3.09,5,1.08,1.41,1.4,2.75-.02,3.82-1.38,1.04-3.03,1.13-4.3-.43-.94-1.15-1.82-2.35-2.73-3.52-1.95-2.49-3.53-2.77-6.38-1.32-3.89,1.98-6.6,5.18-8.97,8.69-.39.59-.58,1.76-.26,2.32,2.72,4.8,3.26,9.93,2.56,15.26-.24,1.83.69,2.06,2.15,2.03,2.98-.05,6.01.29,8.95-.09,3.31-.44,5.02,1.47,6.85,3.53,1.07,1.21,1.06,2.39-.03,3.61-1.18,1.32-2.65,1.78-3.85.43-2.45-2.74-5.57-1.32-8.4-1.7-3.28-.44-6.13.22-8.11,3.14-1.07,1.58-2.86,2.36-3.99,1-.83-1.01-.51-3.14-.34-4.73.08-.71,1.06-1.31,1.62-1.97.39-.46,1.12-.98,1.07-1.4-.55-4.57-1.22-9.11-1.87-13.85-6.2,3.3-11.81,20.7-9.31,27.54,8.25-2.29,9.45-1.44,8.3,6.04-.14.85-1.12,2.16-1.79,2.21-1.14.08-3.01-.37-3.37-1.14-.64-1.39-1.28-1.75-2.41-1.07-1.04.63-2.63,1.53-2.69,2.39-.25,3.59-1.27,7.54,2.97,9.93,1.81,1.02,1.76,2.65.81,4.49-2.7,5.28.73,11,6.72,10.85,2.32-.06,4.71-1.16,6.87-2.21,1.65-.81,3.01-.79,3.88.58.9,1.42.87,3.19-.71,4.31-1.09.77-2.34,1.46-3.62,1.78-2.31.59-4.7.87-7.05,1.29-.26.34-.51.68-.77,1.03,2.85,2.48,5.58,5.13,8.59,7.4,3.15,2.38,6.47,5.02,10.82,3.36,1.76-.67,3.31-2,4.8-3.23,1.46-1.19,2.98-1.11,3.91.15.62.82.62,2.49.24,3.55-.39,1.07-1.57,1.86-2.4,2.77-1.5,1.64-1.42,2.71.3,3.75,3.62,2.19,8.89-.01,9.49-4.2.39-2.68.39-5.48.09-8.17-.42-3.76-2.64-6.57-5.31-6.77-3.98-.3-8.13-1.07-10.22,4.12-1.07,2.65-3.58,3.29-5.09,2-2.04-1.74-.95-3.54.21-5.25.28-.41.6-.79.87-1.2,1.37-2.08,2.71-4.12,2.39-6.85-.11-.9.45-1.9.76-2.83.69-2.06,1.42-4.1,2.26-6.52-4.19,0-7.91.06-11.63-.03-1.78-.04-3.18.27-3.83,2.16-.15.44-.52.96-.92,1.12-1.15.45-2.39,1.03-3.55.95-.42-.03-1.12-1.85-.99-2.76.39-2.89,1.22-5.72,1.64-8.61.25-1.7.71-2.89,2.6-2.98,1.83-.09,2.92.85,2.88,2.63-.04,2.14,1.12,2.37,2.82,2.34,3.98-.08,7.96-.08,11.95-.02,3.26.06,4.58,1.29,4.6,4.5,0,1.58-.36,3.2-.79,4.73-.47,1.65-1.28,3.21-1.82,4.85-.46,1.38-.27,2.28,1.61,2.4,3.66.21,7.79-2.59,8.8-6.17,1.55-5.47.73-10.72-1.31-15.9-.36-.9-.95-1.86-.89-2.75.19-2.8-1.49-2.84-3.55-2.92-3.58-.12-7.22-.16-10.7-.87-2.01-.41-3.08-.91-3.71,1.61-.22.89-1.77,1.87-2.8,1.96-.71.07-2.2-1.28-2.23-2.03-.08-2.67.32-5.35.53-8.03,2.41.02,4.82.02,7.23.08.34,0,.67.3,1.02.44,3.99,1.7,8.2,1.84,12.44,1.6.77-.04,2.06-.41,2.19-.88,1.02-3.7,3.4-7.03,2.1-11.37-.89-2.98-.51-6.34-.7-9.54-.07-1.22.01-2.49-.31-3.64-.18-.63-1.09-1.53-1.61-1.5-4.46.28-9.59-1.89-12.81,3.25-.12.19-.39.3-.6.44-1.59,1.07-3.31,1.53-4.65-.14-1.17-1.46-.82-3.1.68-4.25,1.8-1.38,1.88-2.68.17-4.18-1.65-1.44-2.12-3.01-.28-4.7,1.88-1.72,3.5-.41,4.44.9Z"/><path class="cls-1" d="M190.11,138.52c.84-2.96.96-6.01-.89-9.15-1.74,1.13-3.17,2.39-4.84,3.05-1.05.41-2.91.4-3.59-.26-1.2-1.16-1.27-2.97.26-4.26,1.23-1.04,2.7-1.82,3.8-2.97.86-.91,2.03-2.37,1.81-3.3-.79-3.39-2.1-6.65-3.2-9.92-2.31,2.38-4.15,4.47-6.19,6.33-1.45,1.31-3.17,2.33-4.77,3.47-1.1.78-1.97,1.29-1.28,3.16.66,1.75.34,3.93.18,5.89-.14,1.72-1.26,2.54-3.09,2.46-1.84-.08-2.31-1.22-2.39-2.7-.07-1.45-.01-2.91-.01-4.75-1.41.65-2.43,1.06-3.39,1.58-3.42,1.84-4.49,1.58-7.03-1.28-1.27-1.42-1.75-3.13-.59-4.31.77-.79,2.66-.54,4.05-.64.99-.07,2.11.37,2.97.05,5.53-2.06,9.88-5.95,14.2-9.76,1.28-1.13,1.96-3.14,2.48-4.87.24-.82-.43-2.72-.94-2.81-3-.58-4.1-2.96-5.67-5.05-.75-.99-2.1-1.87-3.31-2.1-1.75-.34-2.4-1.27-3.1-2.72-.59-1.22-1.81-2.14-2.71-3.17-.75,2.05-.89,3.97-1.91,4.83-1.97,1.66-4.16-.1-3.98-3.32.13-2.29-.67-3.93-2.57-4.88-1.95-.98-3.8-.35-5.53.94-1.78,1.32-2.56,2.74-1.9,5.06.69,2.46.2,5.52,1.53,7.44,1.32,1.92,4.09,3.23,6.49,3.9,2.49.71,5.32.75,7.37-1.9.43-.55,2.35-.51,3.17-.03.67.39,1.31,2.17.98,2.74-.97,1.64-2.42,4.19-3.73,4.22-4.88.12-10.19,2.2-14.59-1.95-.6-.57-1.69-.63-2.56-.93-.22.93-.66,1.87-.62,2.78.13,2.72.48,5.43.7,8.15.4,4.85.78,9.7,1.18,14.71,2.17,0,3.77.03,5.37,0,1.72-.04,3.29.59,2.96,2.39-.2,1.06-1.66,2.31-2.81,2.68-1.47.47-3.21.25-4.81.1-2.47-.22-3.2,1.07-3.51,3.24-.5,3.57.13,6.88,1.57,10.12.66,1.48.73,3.72,1.82,4.39,1.28.78,3.37.21,5.11.23.25,0,.5,0,.75,0,1.82.08,3.48-.6,3.58-2.44.11-2.06,2.28-4.42-.73-6.33-.94-.6-1.88-2.31-1.69-3.31.33-1.77,2.09-2.13,3.87-2.07,2.86.1,5.72.01,8.58.03,1.88.02,3.71.33,3.75-2.64,0-.75,1.87-1.95,2.98-2.09,1.38-.18,2.15,1.1,1.89,2.57-.48,2.76,1.39,3.69,3.41,4.46,1.9.73,1.83,2.26,1.47,3.72-.45,1.85-1.99,2.1-3.57,1.7-1.07-.27-2.03-1.17-3.08-1.26-3.18-.28-6.38-.29-9.57-.41-.42,2.01-.85,4.03-1.26,6.05-.05.24,0,.5-.07.74-1.06,4.08-2.95,6.37-7.66,6.52-1.49.05-2.98,0-4.48,0-3.97,0-3.95,0-4.32,4.1-.08.84-.34,1.68-.65,2.46-.82,2.04-2.4,4.06-2.37,6.06.03,2.08,1.59,4.14,2.49,6.2.05.11.15.2.22.3.44-.24.85-.6,1.31-.69,1.71-.33,3.86-1.67,4.84.76.85,2.09-.14,3.87-2.39,4.69-2,.72-2.89,2.03-2.8,4.25.07,1.71-.34,3.44-.58,5.16-.24,1.68.41,2.59,2.15,2.76,3.81.37,7.27-.45,10.05-2.52-.65-2.27-1.38-4.22-1.7-6.23-.12-.76.55-2.18,1.16-2.38.9-.29,2.12.11,3.1.48.48.18.84.89,1.13,1.42.99,1.88,2.61,2.07,4.45,1.75,2.87-.5,5.22-2.05,6.36-4.59.88-1.95,2.14-2.84,3.93-3.58,2.9-1.21,4.53-3.49,5.28-6.77h-16.55c.25,1.27.53,2.33.66,3.41.19,1.66.28,3.42-1.92,3.8-1.85.32-3.12-.51-3.52-2.44-.05-.24-.16-.47-.21-.72-.52-2.7-1.7-4.8-4.5-5.81-1.97-.71-2.55-2.41-1.76-4.24.82-1.92,2.86-1.86,4.16-1.07,4.07,2.5,8.41,1.46,12.33,1.62-.25-2.66-.57-5.18-.7-7.7-.1-1.94.58-3.41,2.89-3.46,2.54-.06,2.19,1.75,2.31,3.35.38,5.05,3.76,8.14,8.53,7.87,3.54-.2,5.01-2.57,3.56-5.88-.74-1.7-1.59-3.36-2.5-4.98-.94-1.69-1.27-3.4.39-4.66,1.89-1.43,3.36-.2,4.92,1.72,0-3.74.7-7.24-.22-10.25-.71-2.32-.84-4.09-.21-6.32Z"/><path class="cls-2" d="M195.69,132.41c-.36-2.44-1.56-4.77-2.39-7.15-.39-1.12-.92-2.2-1.23-3.33-1.07-3.89-1.53-8.06-3.22-11.64-2.38-5.02-4.54-10.51-10.26-13.02-1.91-4.6-7.18-5.56-10.01-9.28-2.22-2.91-5.97-3.53-9.28-4.88-6.59-2.71-11.02-2.46-16.34,2.18-.3-.16-.64-.3-.92-.52-5.65-4.48-13.09-3.85-17.76,1.46-.5.56-1.26,1.09-1.98,1.23-7.81,1.51-12.62,6.67-16.24,13.27-1.26,2.3-1.97,4.74-4.44,6.42-1.79,1.22-2.97,3.57-4,5.63-1.25,2.52-2.14,5.23-3.04,7.9-1.97,5.93-3.45,11.92-2.36,18.27.17,1-.05,2.18-.46,3.13-2.29,5.39-2.08,10.66.35,15.94.63,1.37,1.02,2.89,1.29,4.38.48,2.63.17,5.59,1.3,7.87,1.57,3.18,4.63,5.57,5.32,9.35.1.55.53,1.13.96,1.53,3.87,3.65,7.57,7.53,11.74,10.8,2.23,1.75,5.21,3.03,8.01,3.41,2.59.35,4.27.83,5.41,3.33.49,1.09,1.85,1.96,3.01,2.54,3.89,1.96,7.93,1.4,11.96.41,1.15-.28,2.48-.72,3.51-.4,7.65,2.42,14.25.81,20.05-4.64.75-.7,1.79-1.31,2.78-1.49,4.34-.83,7.63-3.19,10.41-6.49.93-1.1,2.09-2.01,3.11-3.03,1.73-1.71,3.68-3.27,5.09-5.21,1.93-2.64,3.24-5.73,5.19-8.35,1.67-2.23,2.36-4.48,2.28-7.21-.04-1.4.46-2.86.92-4.22,1.67-4.97,2.62-10.03,2.28-15.28-.27-4.31-.44-8.64-1.07-12.9ZM121.02,107.12c1.72,1.5,1.63,2.8-.17,4.18-1.5,1.15-1.85,2.79-.68,4.25,1.34,1.67,3.06,1.21,4.65.14.21-.14.47-.24.6-.44,3.22-5.15,8.35-2.98,12.81-3.25.53-.03,1.44.87,1.61,1.5.32,1.15.23,2.42.31,3.64.19,3.19-.19,6.55.7,9.54,1.3,4.34-1.08,7.67-2.1,11.37-.13.47-1.42.84-2.19.88-4.23.24-8.44.1-12.44-1.6-.34-.14-.67-.43-1.02-.44-2.41-.06-4.82-.06-7.23-.08-.22,2.68-.61,5.36-.53,8.03.02.75,1.52,2.1,2.23,2.03,1.03-.1,2.58-1.08,2.8-1.96.63-2.52,1.7-2.02,3.71-1.61,3.48.71,7.12.75,10.7.87,2.06.08,3.74.11,3.55,2.92-.05.89.54,1.85.89,2.75,2.04,5.17,2.86,10.42,1.31,15.9-1.02,3.58-5.15,6.38-8.8,6.17-1.88-.11-2.07-1.01-1.61-2.4.54-1.64,1.35-3.19,1.82-4.85.43-1.53.8-3.15.79-4.73-.02-3.21-1.34-4.44-4.6-4.5-3.98-.07-7.96-.06-11.95.02-1.71.03-2.86-.19-2.82-2.34.04-1.79-1.05-2.72-2.88-2.63-1.89.09-2.36,1.28-2.6,2.98-.42,2.89-1.26,5.72-1.64,8.61-.12.91.57,2.73.99,2.76,1.16.08,2.4-.49,3.55-.95.4-.16.77-.68.92-1.12.65-1.89,2.05-2.2,3.83-2.16,3.72.08,7.44.03,11.63.03-.84,2.42-1.57,4.46-2.26,6.52-.31.93-.87,1.93-.76,2.83.32,2.73-1.02,4.77-2.39,6.85-.28.41-.59.79-.87,1.2-1.16,1.71-2.25,3.51-.21,5.25,1.51,1.28,4.02.65,5.09-2,2.09-5.2,6.24-4.42,10.22-4.12,2.67.2,4.89,3.01,5.31,6.77.3,2.69.3,5.49-.09,8.17-.6,4.18-5.87,6.38-9.49,4.2-1.72-1.04-1.81-2.12-.3-3.75.83-.91,2.02-1.7,2.4-2.77.38-1.06.38-2.73-.24-3.55-.93-1.26-2.45-1.35-3.91-.15-1.49,1.22-3.04,2.55-4.8,3.23-4.35,1.66-7.67-.99-10.82-3.36-3.01-2.27-5.74-4.92-8.59-7.4.26-.34.51-.68.77-1.03,2.35-.41,4.74-.7,7.05-1.29,1.28-.32,2.53-1.01,3.62-1.78,1.58-1.12,1.61-2.9.71-4.31-.87-1.37-2.24-1.39-3.88-.58-2.15,1.05-4.55,2.15-6.87,2.21-5.99.16-9.43-5.57-6.72-10.85.95-1.84.99-3.47-.81-4.49-4.24-2.4-3.23-6.34-2.97-9.93.06-.87,1.65-1.77,2.69-2.39,1.13-.68,1.77-.33,2.41,1.07.36.78,2.23,1.22,3.37,1.14.66-.05,1.65-1.36,1.79-2.21,1.15-7.49-.05-8.33-8.3-6.04-2.5-6.84,3.11-24.24,9.31-27.54.66,4.74,1.33,9.29,1.87,13.85.05.42-.68.95-1.07,1.4-.56.66-1.55,1.27-1.62,1.97-.17,1.59-.49,3.73.34,4.73,1.14,1.37,2.93.59,3.99-1,1.97-2.91,4.83-3.58,8.11-3.14,2.83.38,5.95-1.04,8.4,1.7,1.2,1.35,2.67.89,3.85-.43,1.09-1.22,1.1-2.4.03-3.61-1.82-2.06-3.54-3.97-6.85-3.53-2.93.39-5.96.04-8.95.09-1.45.02-2.39-.2-2.15-2.03.7-5.33.16-10.46-2.56-15.26-.32-.56-.14-1.74.26-2.32,2.37-3.52,5.08-6.71,8.97-8.69,2.85-1.45,4.43-1.17,6.38,1.32.92,1.17,1.79,2.37,2.73,3.52,1.27,1.56,2.93,1.47,4.3.43,1.42-1.07,1.09-2.41.02-3.82-1.18-1.55-1.95-3.41-3.09-5-1.42-1.98-.19-2.96,1.4-3.07,1.76-.12,3.86.01,5.3.88,5.4,3.25,6.52,12.63,2.26,17.27-.23.25-.64.52-.93.49-4.57-.48-9.77,2.09-13.44-2.96-.95-1.3-2.56-2.62-4.44-.9-1.84,1.69-1.36,3.26.28,4.7ZM190.54,155.09c-1.56-1.93-3.03-3.16-4.92-1.72-1.66,1.26-1.34,2.97-.39,4.66.91,1.62,1.76,3.28,2.5,4.98,1.44,3.3-.02,5.67-3.56,5.88-4.77.28-8.15-2.82-8.53-7.87-.12-1.6.22-3.41-2.31-3.35-2.31.06-2.99,1.52-2.89,3.46.13,2.52.45,5.03.7,7.7-3.92-.16-8.25.88-12.33-1.62-1.3-.8-3.34-.85-4.16,1.07-.79,1.82-.21,3.53,1.76,4.24,2.81,1.01,3.98,3.12,4.5,5.81.05.24.16.47.21.72.4,1.93,1.68,2.76,3.52,2.44,2.2-.38,2.11-2.14,1.92-3.8-.13-1.08-.41-2.13-.66-3.41h16.55c-.75,3.28-2.37,5.56-5.28,6.77-1.78.74-3.05,1.63-3.93,3.58-1.14,2.54-3.49,4.09-6.36,4.59-1.84.32-3.45.13-4.45-1.75-.28-.54-.64-1.24-1.13-1.42-.99-.36-2.2-.77-3.1-.48-.61.2-1.28,1.62-1.16,2.38.31,2.01,1.04,3.96,1.7,6.23-2.78,2.07-6.24,2.89-10.05,2.52-1.73-.17-2.38-1.08-2.15-2.76.24-1.72.64-3.45.58-5.16-.09-2.22.79-3.53,2.8-4.25,2.26-.82,3.24-2.6,2.39-4.69-.99-2.43-3.13-1.09-4.84-.76-.46.09-.87.45-1.31.69-.07-.1-.17-.18-.22-.3-.9-2.07-2.47-4.12-2.49-6.2-.03-2.01,1.55-4.02,2.37-6.06.31-.79.58-1.63.65-2.46.37-4.09.35-4.1,4.32-4.1,1.49,0,2.98.05,4.48,0,4.71-.15,6.6-2.44,7.66-6.52.06-.24.02-.5.07-.74.42-2.02.84-4.03,1.26-6.05,3.19.12,6.39.13,9.57.41,1.06.09,2.01.99,3.08,1.26,1.58.4,3.12.15,3.57-1.7.36-1.46.43-2.99-1.47-3.72-2.02-.77-3.89-1.71-3.41-4.46.25-1.46-.51-2.75-1.89-2.57-1.12.15-2.98,1.34-2.98,2.09-.04,2.97-1.87,2.66-3.75,2.64-2.86-.02-5.72.06-8.58-.03-1.78-.06-3.54.29-3.87,2.07-.19.99.76,2.71,1.69,3.31,3.01,1.91.84,4.28.73,6.33-.1,1.84-1.76,2.52-3.58,2.44-.25-.01-.5,0-.75,0-1.74-.02-3.83.55-5.11-.23-1.09-.66-1.16-2.9-1.82-4.39-1.44-3.25-2.07-6.56-1.57-10.12.31-2.17,1.04-3.46,3.51-3.24,1.6.15,3.34.36,4.81-.1,1.15-.37,2.62-1.61,2.81-2.68.33-1.8-1.24-2.43-2.96-2.39-1.6.04-3.21,0-5.37,0-.4-5.01-.78-9.86-1.18-14.71-.22-2.72-.57-5.43-.7-8.15-.04-.92.4-1.85.62-2.78.86.3,1.95.35,2.56.93,4.39,4.14,9.7,2.07,14.59,1.95,1.31-.03,2.75-2.58,3.73-4.22.34-.57-.3-2.35-.98-2.74-.82-.48-2.74-.53-3.17.03-2.05,2.64-4.87,2.6-7.37,1.9-2.4-.67-5.17-1.99-6.49-3.9-1.32-1.91-.83-4.98-1.53-7.44-.66-2.33.12-3.74,1.9-5.06,1.73-1.29,3.58-1.92,5.53-.94,1.89.95,2.69,2.59,2.57,4.88-.18,3.22,2.02,4.98,3.98,3.32,1.03-.86,1.16-2.78,1.91-4.83.91,1.02,2.13,1.94,2.71,3.17.7,1.45,1.36,2.38,3.1,2.72,1.21.23,2.57,1.1,3.31,2.1,1.57,2.09,2.67,4.47,5.67,5.05.51.1,1.18,1.99.94,2.81-.51,1.74-1.19,3.74-2.48,4.87-4.32,3.81-8.67,7.7-14.2,9.76-.86.32-1.98-.12-2.97-.05-1.39.1-3.28-.14-4.05.64-1.17,1.18-.68,2.89.59,4.31,2.54,2.85,3.61,3.12,7.03,1.28.96-.52,1.98-.92,3.39-1.58,0,1.84-.06,3.3.01,4.75.08,1.48.54,2.62,2.39,2.7,1.84.08,2.95-.74,3.09-2.46.16-1.97.48-4.15-.18-5.89-.7-1.87.17-2.38,1.28-3.16,1.6-1.14,3.32-2.16,4.77-3.47,2.04-1.86,3.88-3.95,6.19-6.33,1.1,3.27,2.41,6.53,3.2,9.92.22.93-.95,2.39-1.81,3.3-1.09,1.15-2.57,1.93-3.8,2.97-1.53,1.29-1.45,3.1-.26,4.26.68.67,2.55.68,3.59.26,1.67-.66,3.1-1.91,4.84-3.05,1.84,3.14,1.72,6.19.89,9.15-.63,2.23-.5,4,.21,6.32.92,3.01.22,6.51.22,10.25Z"/><path class="cls-2" d="M141.95,283.9C63.68,283.9,0,220.22,0,141.95h31.18c0,61.08,49.69,110.77,110.76,110.77v31.18Z"/><path class="cls-2" d="M283.9,141.95h-31.18c0-61.08-49.69-110.77-110.76-110.77V0c78.27,0,141.95,63.68,141.95,141.95Z"/><g class="cls-3"><path class="cls-2" d="M61.07,141.95h-31.18c0-61.79,50.27-112.06,112.07-112.06v31.18c-44.6,0-80.88,36.28-80.88,80.88Z"/><path class="cls-2" d="M141.95,254.02v-31.18c44.6,0,80.88-36.28,80.88-80.88h31.18c0,61.79-50.27,112.07-112.06,112.07Z"/></g></g></svg>