<?xml version="1.0" encoding="UTF-8"?><svg id="Layer_2" xmlns="http://www.w3.org/2000/svg" viewBox="0 0 283.89 283.9"><defs><style>.cls-1,.cls-2,.cls-3{fill:#1f3966;}.cls-4,.cls-3{opacity:.65;}.cls-2{opacity:.2;}</style></defs><g id="Layer_1-2"><g class="cls-4"><path class="cls-1" d="M60.83,142.11c0-.05,0-.11,0-.16,0-49.02,31.67-80.84,80.62-81.11v-30.07c-61.18.27-110.7,49.94-110.7,111.18,0,.05,0,.11,0,.16h30.07Z"/><path class="cls-1" d="M253.13,141.63h-30.07c0,.11,0,.21,0,.32,0,49.18-31.93,81.12-81.12,81.12-.16,0-.33,0-.49,0v30.07c.16,0,.33,0,.49,0,61.41,0,111.19-49.78,111.19-111.19,0-.11,0-.21,0-.32Z"/></g><path class="cls-1" d="M142.15,255.64c-.07,0-.14,0-.2,0-62.58,0-113.34-50.56-113.68-113.06H0c.34,78.11,63.76,141.32,141.94,141.32.07,0,.14,0,.2,0v-28.26Z"/><path class="cls-1" d="M141.54,0v28.26c.13,0,.27,0,.4,0,62.79,0,113.69,50.9,113.69,113.69,0,.21,0,.42,0,.63h28.26c0-.21,0-.42,0-.63C283.89,63.55,220.34,0,141.94,0c-.13,0-.27,0-.4,0Z"/><path class="cls-1" d="M147.54,77.16c4.57.18,9.01,1.25,13.39,2.55,3.6,1.06,7.01,2.6,10.44,4.1,1.54.88,3.07,1.75,4.61,2.63.06.17.19.2.35.2,2.78,1.88,5.48,3.85,8.09,5.96,2.55,2.39,5.01,4.85,7.35,7.44.94,1.19,1.87,2.38,2.81,3.57.07.09.14.18.21.26.94,1.4,1.87,2.8,2.81,4.2,0,.19.05.34.24.42.69,1.25,1.39,2.51,2.08,3.76.06.33.19.62.45.84.25.79.62,1.52,1.05,2.21.3,1.01.71,1.98,1.21,2.91,1.69,4.69,3.05,9.46,3.77,14.4.2,1.35.1,2.74.62,4.03v10.93c-.39.14-.24.49-.27.76-.22,2.06-.53,4.1-.9,6.13-.75,4.07-2.07,7.98-3.44,11.87-.55.89-.91,1.86-1.24,2.84-.38.78-.77,1.57-1.15,2.35,0,0,.01-.02.01-.02-.84,1.49-1.67,2.98-2.51,4.47,0,0,.02-.02.02-.02-.95,1.4-1.89,2.8-2.84,4.2-.14.2-.29.41-.43.61-.95,1.19-1.9,2.39-2.86,3.58h.02c-1.13,1.2-2.25,2.41-3.38,3.62-.06.02-.09.05-.11.11-1.21,1.13-2.43,2.25-3.64,3.38v-.02c-2.59,2.09-5.28,4.07-8.06,5.91-.09.05-.18.1-.27.16-1.5.85-3,1.7-4.5,2.54l.02-.02c-.78.38-1.57.77-2.35,1.15-.98.33-1.95.69-2.84,1.24-.2.05-.41.09-.6.16-4.53,1.76-9.2,3.01-14.01,3.76-1.55.24-3.15.16-4.66.69h-12.45c-.13-.6-.61-.46-1.01-.47-.26-.04-.54-.18-.72.13-.09.17.06.27.2.34h-.51c.63-.62-.04-.66-.36-.7-3.25-.41-6.38-1.32-9.55-2.1-.04-.08-.1-.09-.17-.05-1.44-.51-2.89-1.01-4.33-1.52-.96-.41-1.92-.81-2.87-1.22-.86-.42-1.72-.83-2.58-1.25v.03c-1.42-.79-2.84-1.58-4.27-2.37-.19-.12-.38-.24-.57-.36-1.43-.95-2.86-1.91-4.29-2.86-.02-.08-.06-.11-.14-.1-2.47-1.94-4.87-3.96-7.17-6.1-.18-.18-.35-.35-.53-.53-1.02-1.09-2.03-2.18-3.05-3.28-.14-.17-.29-.34-.43-.51-.88-1.1-1.75-2.2-2.63-3.3-.07-.09-.14-.17-.21-.26-1.03-1.45-3.33-4.69-5.57-8.97h0c-.56-1.19-1.11-2.37-1.67-3.55-.16-.51-.69-1.8-.75-1.95-1.65-4.05-2.81-8.25-3.65-12.54-.31-1.58-.88-4.71-.88-8.3,0-3.99-.23-12.89,2.53-12.96,2.71.14,1.28,5.23,1.78,13.87.15,2.66.48,5.14,1.03,7.66,4.43,20.16,16.01,34.67,34.56,43.67.63.31.99.27,1.5-.25,2.33-2.39,5.01-4.25,8.14-5.47,1.63-.63,2.71-1.88,3.09-3.61.75-3.46-2.12-6.91-5.33-6.57-3.41.36-4.48-1.37-5.31-3.46-.63-1.59-.77-3.3-.74-4.99.08-3.51-1.52-6.14-4.54-7.61-2.57-1.25-3.58-3.29-4.18-5.79-.41-1.72-.62-3.49-1.25-5.16-.87-2.31-2.46-3.68-4.93-4-4.19-.54-7.22-2.77-9.1-6.48-1.91-3.78-1.61-7.51.59-11.11,1.56-2.55,1.8-5.07.22-7.76-1.37-2.35-1.48-4.94-.57-7.48,1.22-3.4,4.01-5.16,7.22-6.24,4.94-1.66,9.9-1.83,14.9.05,5.48,2.06,11.21-2,10.98-7.85-.27-6.92-3.25-12.57-8.67-16.93-.73-.59-1.31-.62-2.14-.23-8.28,3.82-15.39,9.17-21.24,16.15-8.54,10.2-14.19,25.05-14.33,38.36-.08,7.15-.8,2.97-2.43,3.41-1.04-.16-1.76-.62-1.76-3.25,0-1.69.27-7.25.38-7.92.56-3.7,1.45-7.32,2.42-10.93.08-.04.09-.09.05-.16.55-1.48,1.11-2.97,1.66-4.45.27-.66.54-1.33.8-1.99.48-1,.96-2,1.44-3,1.7-3.22,3.63-6.3,5.68-9.3,1.05-1.32,2.09-2.63,3.14-3.95,2.27-2.44,4.64-4.8,7.08-7.08,1.21-.95,2.43-1.91,3.64-2.86l.65-.5c1.35-.91,2.69-1.81,4.04-2.72h.03c1.39-.79,2.79-1.57,4.18-2.35.11,0,.15-.06.14-.17.35-.12.72-.2,1.05-.36,6.02-2.94,12.42-4.49,18.97-5.91,4.71-1.03,5.36-.83,15.33-.44ZM201.61,129.53c-.18-.86-.26-1.75-.64-2.57,0-.3.01-.61-.23-.84-.28-1.54-.76-3.02-1.37-4.46.03-.3-.12-.52-.31-.72l.04-.04c-.09-.37-.16-.74-.44-1.03,0-.29-.07-.55-.27-.76.02-.21,0-.4-.2-.52-.96-2.52-2.11-4.93-3.59-7.19-.17-.16-.34-.32-.5-.47-.59-1.4-1.23-2.77-2.29-3.9-.09-.13-.18-.27-.27-.4-.88-1.38-1.87-2.68-3.02-3.85l.02.02c-.98-1.35-2.13-2.54-3.34-3.67-.1-.1-.2-.2-.3-.3-1.07-1.16-2.2-2.25-3.47-3.19v.02c-1.18-1.15-2.46-2.18-3.86-3.05-.03-.19-.18-.22-.34-.25-1.17-.94-2.41-1.78-3.75-2.47-.13-.21-.34-.29-.57-.32-2.38-1.57-4.94-2.8-7.59-3.83-.29-.22-.62-.37-.99-.39-.34-.13-.67-.26-1.01-.39h0c-2.71-1.13-5.51-1.96-8.41-2.46-.3-.25-.65-.25-1.01-.21-.57-.22-1.16-.36-1.78-.3-1.83-.5-3.71-.66-5.59-.72-.33-.01-.67-.02-1-.04-.61.04-1.72-.85-1.49.79,0,.34.01.68.02,1.02,0,1.18,0,2.37,0,3.55-.12.41,0,.6.44.48.76.05,1.51.1,2.27.16.26.03.52.06.78.1l4.57.6c.22.21.49.2.77.18l.46.09c2.75.73,5.5,1.48,8.18,2.45.29.22.61.33.97.36.44.2.87.39,1.31.59.1.03.19.05.29.08,1.4.7,2.8,1.4,4.21,2.1.08.2.24.24.43.22,2.93,1.82,5.78,3.76,8.5,5.9l-.02-.02c1.2,1.11,2.41,2.21,3.61,3.32.07.07.13.13.2.2,1.1,1.21,2.19,2.42,3.29,3.64h-.02c.96,1.26,1.93,2.54,2.89,3.81-.01.07.02.11.09.13.9,1.45,1.81,2.9,2.71,4.35.05.09.1.18.15.28.8,1.6,1.6,3.2,2.4,4.8,0,0,0,.08,0,.08.03.1.07.2.1.31-.01.07.01.1.08.11.07.18.14.37.22.55.12.33.25.65.37.98.31.86.62,1.72.93,2.58.04.16.09.32.13.48.46,1.71.91,3.42,1.37,5.13.06.42,0,.86.27,1.24.29,2.54.58,5.07.87,7.61,0,.34,0,.68,0,1.02,0,1.19,0,2.37,0,3.56,0,.25,0,.51,0,.76-.05.67-.11,1.34-.16,2.01-.03.18-.05.36-.08.53-.2,1.53-.39,3.06-.59,4.58-.31.45-.24.97-.3,1.47-.46,1.7-.92,3.4-1.38,5.1v.07s.07.02.07.02c-.6,1.01-.86,2.16-1.24,3.26-.27.37-.44.78-.47,1.24-.08.18-.15.35-.23.53-.23.16-.28.41-.31.67-.73,1.46-1.46,2.91-2.19,4.37-.09.15-.18.31-.27.46-.79,1.27-1.57,2.54-2.36,3.8-.07.1-.14.19-.21.29-.92,1.22-1.85,2.43-2.77,3.65-.18.21-.36.43-.53.64-1.03,1.12-2.06,2.24-3.09,3.37l.02-.02c-1.12,1.03-2.25,2.06-3.37,3.09-.08,0-.12.03-.12.11-1.48,1.13-2.96,2.26-4.44,3.39v-.02c-1.4.88-2.82,1.76-4.24,2.64-.09.05-.19.1-.28.15-1.36.68-2.73,1.35-4.09,2.03-.26.06-.54.09-.71.35-.18.08-.35.15-.53.23-.46.03-.87.2-1.23.48-2.77.99-5.6,1.8-8.45,2.54-.5.06-1.02,0-1.47.3-1.79.26-3.57.51-5.36.77-.59.02-1.18.04-1.77.06-.67-.18-.86.11-.69.73-.11,1.27-.1,2.54,0,3.81q-.12,1.51,1.35,1.36c.21-.02.41-.06.61-.09.25,0,.5-.01.76-.02,1.46-.03,2.9-.21,4.32-.5.28.05.55.05.79-.13.84-.15,1.68-.3,2.51-.46.87-.14,1.75-.26,2.57-.62.24-.05.47-.11.71-.16,1.96-.48,3.9-.99,5.72-1.89.55,0,.98-.3,1.42-.58.5.04.89-.19,1.27-.47,3.78-1.5,7.27-3.55,10.61-5.86.16-.11.24-.32.36-.49.21,0,.45.07.55-.22,1.29-.82,2.5-1.74,3.58-2.81.06-.05.12-.09.18-.14,1.25-.94,2.38-2.01,3.44-3.16l.1-.02.02-.1c1.24-1.14,2.4-2.35,3.42-3.69.05-.06.09-.12.14-.18,1.08-1.09,2-2.3,2.81-3.59.2-.05.25-.2.27-.38,1.08-1.33,2.02-2.74,2.77-4.27v-.04c1.13-1.56,1.96-3.26,2.71-5.02.07-.04.09-.1.06-.17.37-.49.59-1.04.75-1.62.28-.38.5-.78.48-1.27-.02-.56.7-.83.57-1.43.89-1.8,1.4-3.72,1.87-5.66.03-.09.06-.19.09-.28l.71-3.05c.24-.82.41-1.66.45-2.52.19-.24.19-.51.14-.78.29-1.43.48-2.87.5-4.32,0-.25.01-.5.02-.76,0-.17.02-.35.02-.52l.04-.46c.29-2.3.24-4.61-.05-6.91,0-.25-.02-.5-.02-.75,0-1.46-.17-2.9-.49-4.33-.03-.26-.06-.52-.08-.78-.15-.76-.3-1.51-.44-2.27-.02-.17-.04-.34-.06-.51ZM172.02,147.33c-.03.25-.05.5-.08.76-.15.58-.3,1.17-.45,1.75v.09s.1.02.1.02c-1.19,3.13-2.4,6.25-4.26,9.07-2.33,3.24-5.11,6.03-8.36,8.36-1.18.69-2.37,1.38-3.55,2.07-.09.04-.18.08-.28.12-1.67.64-3.34,1.29-5.01,1.93-.1.02-.21.03-.31.05-.59.15-1.18.3-1.77.45-.25.03-.5.05-.75.08-1.02.15-2.04.3-3.05.44-.5.24-.17.66-.21,1,0,.59,0,1.18,0,1.77,0,.26.01.51.02.77,0,1.35,0,2.71,0,4.06-.04.16-.06.32.18.31.95,0,1.91.07,2.83-.27.33-.03.66-.05,1-.08.69-.11,1.4-.13,2.05-.44.26-.05.52-.1.78-.15,1.78-.37,3.53-.86,5.17-1.66.08-.02.16-.04.24-.06.14-.07.27-.13.41-.2.74-.17,1.42-.49,2.06-.9,2.27-1.05,4.41-2.32,6.34-3.91.09-.07.17-.14.26-.21,1.32-.87,2.5-1.9,3.56-3.08.17-.17.35-.35.52-.52,1.17-1.06,2.21-2.24,3.08-3.56.07-.09.14-.17.21-.26,1.59-1.94,2.86-4.07,3.91-6.34.41-.64.72-1.32.9-2.06.91-1.85,1.51-3.8,1.92-5.82.17-.24.18-.5.15-.78.31-.65.33-1.36.44-2.05.03-.33.05-.66.08-1,.39-.93.27-1.92.34-2.88.26-3.56.01-7.09-.92-10.55.01-.04.05-.08.04-.11-.01-.08-.04-.15-.07-.23-.38-1.92-.94-3.78-1.76-5.56-.19-.73-.46-1.43-.89-2.06-.32-.88-.72-1.71-1.29-2.46-.03-.24-.1-.45-.32-.58-.67-1.35-1.51-2.59-2.48-3.74-.03-.16-.07-.31-.26-.33-.79-1.23-1.76-2.31-2.82-3.31-.19-.33-.44-.59-.77-.78-.98-1.09-2.09-2.05-3.3-2.88l-.53-.41c-1.07-.9-2.21-1.71-3.48-2.33-.07-.2-.24-.24-.42-.24-.9-.68-1.91-1.17-2.95-1.58-.58-.36-1.16-.69-1.86-.74-1.74-.95-3.65-1.42-5.56-1.86l-.05.05c-2.08-.74-4.26-.83-6.42-1.04-.29-.03-.36.13-.32.38,0,.17.01.34.02.52,0,1.27,0,2.54,0,3.8,0,.26-.01.51-.02.77,0,.59,0,1.18,0,1.77.02.26-.25.61.21.75,2.53.36,5.05.76,7.49,1.58,1.38.46,2.63,1.25,4.07,1.55l-.05.11s.1.07.1.07c.79.45,1.58.89,2.36,1.34.41.27.82.55,1.23.82.1.06.2.13.3.19.1.23.3.33.53.4.03.08.09.11.18.09,1.07.97,2.14,1.93,3.22,2.9l.03.03c.93,1.07,1.85,2.14,2.78,3.21.15.35.34.67.66.9.16.24.32.48.48.72-.01.17.02.32.22.36.52.93,1.05,1.86,1.57,2.79,0,.2-.06.42.2.52.59,1.53,1.18,3.06,1.77,4.59.01.3,0,.6.24.83.14.73.29,1.46.43,2.18l.41,3.06c.01.25.03.51.04.76,0,1.09,0,2.18,0,3.26-.01.27-.03.53-.04.8-.14.93-.28,1.87-.42,2.8ZM144.03,99.03c-.04.18.01.26.2.23,1.44.16,2.88.31,4.32.47.59.1,1.19.2,1.78.3,3.04.7,6,1.67,8.9,2.83.46.34.97.57,1.52.72,1.27.7,2.53,1.4,3.8,2.1,1.34.95,2.67,1.9,4.01,2.85v-.02c1.1,1,2.22,2,3.33,3,.26.26.52.52.78.78.95,1.08,1.9,2.17,2.85,3.25.08.24.2.46.45.57.84,1.23,1.69,2.45,2.53,3.68,0,.16.02.31.2.36.56,1.03,1.11,2.06,1.67,3.09.17.52.34,1.03.71,1.46.59,1.56,1.17,3.11,1.76,4.67.03.13.06.26.09.39.32,1.28.65,2.56.97,3.84.11.69.23,1.37.34,2.06.15,2.02.31,4.05.46,6.07,0,.34,0,.68,0,1.02-.15,1.85-.3,3.7-.45,5.56-.17.77-.41,1.52-.38,2.32-.31,1.18-.63,2.36-.94,3.54v.07s.08.02.08.02c-.69,1.75-1.38,3.5-2.06,5.24-.28.6-.56,1.19-.84,1.79l-1.36,2.48c-.28.2-.41.5-.5.81-.83,1.19-1.67,2.38-2.5,3.57-.09.12-.18.24-.27.37-1.02,1.14-2.03,2.28-3.05,3.42-.17.17-.35.35-.52.52-1.14,1.01-2.28,2.03-3.42,3.04-.12.09-.25.18-.37.27-1.32.93-2.65,1.85-3.97,2.78-.19-.01-.34.03-.41.23-.84.46-1.69.92-2.53,1.37-.58.28-1.16.55-1.74.83l-5.01,1.93c-.1.02-.21.04-.31.05-1.19.31-2.37.62-3.56.94-.8-.04-1.55.21-2.31.38-1.35.14-2.69.28-4.04.42-.19-.03-.25.05-.2.23,0,.68.01,1.36.02,2.03-.1,1.1-.12,2.21,0,3.31-.02.54,0,1.09-.06,1.63-.07.65.12.92.83.79,1.15-.2,2.35-.04,3.49-.39.25-.02.49-.05.74-.07.18-.04.36-.08.54-.13.25-.03.5-.05.75-.08,1.56-.2,3.09-.49,4.58-1.01.29.03.57,0,.79-.22,1.14-.19,2.22-.58,3.28-1.05.56-.05,1.05-.28,1.53-.55,1.53-.52,3-1.19,4.41-1.99.17-.09.33-.18.5-.27,1.5-.69,2.92-1.52,4.25-2.5.14,0,.24-.03.27-.19,1.49-.86,2.87-1.88,4.12-3.06l-.02.02c1.3-.9,2.43-1.99,3.5-3.14.24-.09.41-.26.5-.5,1.15-1.07,2.24-2.2,3.14-3.5l-.02.02c1.18-1.25,2.2-2.63,3.06-4.12l.19-.27c1.99-2.84,3.56-5.9,4.77-9.15.28-.48.5-.97.55-1.53.58-1.31,1.02-2.66,1.26-4.07.55-1.48.82-3.02,1.03-4.58.03-.25.05-.5.08-.75.04-.18.08-.36.13-.54l-.02-.07h-.07c.57-2.05.56-4.16.59-6.26,0-.42,0-.84,0-1.25.04-1.89-.05-3.76-.41-5.62.05-.44.03-.87-.14-1.29-.43-3.23-1.14-6.38-2.37-9.4-.04-.55-.21-1.05-.55-1.49-.53-1.73-1.28-3.37-2.22-4.92h.02c-.69-1.56-1.55-3.04-2.59-4.41,0-.18-.06-.33-.26-.39-.7-1.28-1.58-2.43-2.55-3.52-.14-.17-.28-.34-.42-.52-.87-1.18-1.84-2.28-2.93-3.27-.01-.19-.13-.27-.3-.31-1.07-1.2-2.24-2.28-3.53-3.25-.05-.18-.17-.28-.35-.29-1.12-1.07-2.36-1.97-3.68-2.78-.25-.17-.51-.34-.76-.51-1.27-.94-2.62-1.74-4.05-2.4-.09-.05-.18-.09-.28-.14-1.77-1.06-3.65-1.86-5.6-2.52-.27-.19-.55-.34-.9-.28h0c-.15-.22-.37-.26-.62-.23-.87-.45-1.81-.71-2.77-.88-.22-.2-.49-.21-.77-.2-1.67-.56-3.38-.92-5.14-1.05-.21-.2-.47-.19-.73-.14-.79-.1-1.57-.25-2.37-.3-2.58-.16-2.58-.14-2.4,2.55,0,.26-.01.51-.02.77,0,.59,0,1.18,0,1.78l.02.77c0,.59-.01,1.18-.02,1.78ZM144.75,168.16c.52.03,1.04.09,1.51-.22,3.55-.42,6.76-1.75,9.73-3.69,3.42-2.05,6.16-4.79,8.22-8.22,1.9-2.9,3.18-6.03,3.66-9.47.26-.57.32-1.16.25-1.77.32-1.78.37-3.56.02-5.35-.01-.25-.02-.5-.04-.76-.26-2.18-.69-4.31-1.66-6.3v-.04c-.38-1.31-1.01-2.5-1.77-3.63-.3-.75-.75-1.41-1.29-2.01-.73-1.14-1.56-2.21-2.61-3.09-.07-.07-.14-.14-.21-.21-.96-1.14-2.1-2.06-3.35-2.86-.59-.55-1.25-.99-2-1.29-.97-.67-2.02-1.19-3.13-1.59l-.04.02c-2.15-1.06-4.44-1.58-6.8-1.86-.34-.02-.67-.03-1.01-.05-.33.09-.35.24-.09.45h-.09s-.03.08-.03.08c0,.51,0,1.02,0,1.53,0,.26.01.51.02.77v4.06c-.39,1.69.92,1.14,1.7,1.3l.35.12-.02-.05c1.72.58,3.42,1.19,5.04,2.02h.03c1.33.91,2.59,1.9,3.8,2.96.16.17.32.34.48.5,2.23,2.52,3.68,5.44,4.54,8.68.04.34.09.68.13,1.02.22,1.8.19,3.6.04,5.4-.08.46-.16.93-.24,1.39l-1.72,4.87c-.27.07-.44.22-.46.52-.85,1.11-1.7,2.22-2.55,3.33-.16.16-.33.33-.49.49l-3.34,2.55c-.43.06-.57.45-.81.72-1.67.28-3.16,1.13-4.79,1.53q-1.84.07-1.7,1.81c0,1.27,0,2.54,0,3.8,0,.26-.01.51-.02.77-.01.46-.02.91-.04,1.37-.03.66.4.46.75.4ZM122.19,84.26c5.25,4.66,8.24,10.35,9.24,17.07.59,3.98-.08,7.69-2.89,10.77-3.43,3.77-8.77,5.07-13.57,3.33-5.22-1.89-10.25-1.44-14.94,1.5-2.27,1.43-2.8,4.2-1.46,6.49,2.28,3.92,2.11,7.83-.27,11.51-3.37,5.19.53,11.11,5.4,11.63,4.4.47,7.16,3.11,8.54,7.27.58,1.73.84,3.53,1.24,5.3.28,1.25.87,2.11,2.07,2.79,4.38,2.49,6.77,6.24,6.7,11.4-.01,1.1.1,2.2.39,3.27.2.71.56,1.05,1.35.98,1.5-.12,2.97.07,4.32.78,3.63,1.92,5.5,5.02,5.4,9.05-.1,4.02-2.36,6.78-6.04,8.31-2.17.9-4.09,2.14-5.87,3.84.48.16.82.28,1.17.4,5.05,1.67,10.24,2.56,15.53,2.95,1.2.09,1.44-.21,1.44-1.37-.03-39.14-.02-78.28-.03-117.41,0-1,.44-2.3-.2-2.93-.59-.59-1.85-.03-2.8.04-4.95.34-9.77,1.38-14.71,3.02ZM144,142c0,4.32.02,8.63-.02,12.95,0,.93.19,1.13,1.12.91,6.41-1.52,11.02-7.21,11.06-13.75.05-6.62-4.5-12.35-10.96-13.96-1.13-.28-1.24.05-1.23,1.03.04,4.27.02,8.55.02,12.82Z"/><path class="cls-3" d="M122.19,84.26c4.94-1.64,9.75-2.68,14.71-3.02.96-.07,2.21-.63,2.8-.04.64.64.2,1.93.2,2.93.01,39.14,0,78.28.03,117.41,0,1.16-.24,1.46-1.44,1.37-5.3-.39-10.48-1.28-15.53-2.95-.35-.11-.69-.24-1.17-.4,1.78-1.71,3.7-2.94,5.87-3.84,3.68-1.53,5.94-4.29,6.04-8.31.1-4.03-1.77-7.14-5.4-9.05-1.34-.71-2.82-.91-4.32-.78-.79.07-1.16-.27-1.35-.98-.3-1.07-.41-2.17-.39-3.27.07-5.16-2.32-8.91-6.7-11.4-1.2-.68-1.79-1.54-2.07-2.79-.4-1.77-.66-3.57-1.24-5.3-1.38-4.16-4.13-6.8-8.54-7.27-4.87-.52-8.77-6.44-5.4-11.63,2.39-3.68,2.55-7.59.27-11.51-1.34-2.3-.81-5.07,1.46-6.49,4.69-2.94,9.72-3.39,14.94-1.5,4.8,1.74,10.14.44,13.57-3.33,2.81-3.09,3.48-6.79,2.89-10.77-.99-6.72-3.99-12.41-9.24-17.07Z"/><path class="cls-2" d="M81.01,137.94c.32-13.31,5.85-25.01,14.39-35.21,5.85-6.99,12.96-12.34,21.24-16.15.83-.38,1.41-.36,2.14.23,5.42,4.36,8.4,10.01,8.67,16.93.23,5.85-5.5,9.91-10.98,7.85-5-1.88-9.95-1.71-14.9-.05-3.21,1.08-6.01,2.84-7.22,6.24-.91,2.54-.8,5.13.57,7.48,1.58,2.69,1.34,5.21-.22,7.76-2.2,3.59-2.5,7.33-.59,11.11,1.88,3.72,4.92,5.94,9.1,6.48,2.47.32,4.06,1.69,4.93,4,.63,1.67.84,3.44,1.25,5.16.6,2.5,1.62,4.54,4.18,5.79,3.02,1.47,4.62,4.1,4.54,7.61-.04,1.7.11,3.4.74,4.99.82,2.1,1.9,3.83,5.31,3.46,3.21-.34,6.08,3.12,5.33,6.57-.37,1.72-1.46,2.98-3.09,3.61-3.14,1.22-5.82,3.08-8.14,5.47-.51.52-.87.56-1.5.25-18.54-9-30.13-23.51-34.56-43.67-.55-2.52-.99-4.65-1.15-7.23-.09-1.39-.27.26-.06-8.7Z"/><path class="cls-3" d="M143.99,142c0-4.27.02-8.55-.02-12.82,0-.98.1-1.31,1.23-1.03,6.46,1.61,11,7.35,10.96,13.96-.05,6.54-4.66,12.23-11.06,13.75-.94.22-1.13.02-1.12-.91.04-4.32.02-8.63.02-12.95Z"/></g></svg>