<?xml version="1.0" encoding="UTF-8"?><svg id="Layer_2" xmlns="http://www.w3.org/2000/svg" viewBox="0 0 283.9 283.9"><defs><style>.cls-1{fill:none;}.cls-2,.cls-3,.cls-4,.cls-5{fill:#1f3966;}.cls-6{fill:#162d54;}.cls-6,.cls-4{opacity:.4;}.cls-7{fill:#fff;}.cls-3{opacity:.2;}.cls-5{opacity:.65;}</style></defs><g id="Layer_1-2"><path class="cls-2" d="M55.22,188.93c-2.79-1.57-6.05-2.4-9.43-2.4-1.63,0-3.26.2-4.83.58l-.31.08.13.29c.63,1.39,1.23,2.66,1.84,3.88l.09.19.2-.05c.72-.17,1.37-.25,2-.25,1.83,0,5.75.69,7.01,2.07l.09.1c.39.48.51.98.63,1.46.24.95.5,1.66,1.77,2.01.3.08.6.13.89.13.76,0,1.51-.28,2.15-.81.8-.66,1.16-1.51,1.06-2.55-.16-1.86-1.85-3.9-3.31-4.72Z"/><path class="cls-1" d="M211.91,92.61c.44,2.67-1.29,5.05-2.81,7.15-.15.21-.32.45-.5.7,2.19-1.67,3.95-4.21,4.88-7.23.65-2.11.83-3.82.52-5.09-.08-.35-.27-.78-.49-1.25-.57.71-1.56,1.36-3.26,1.6.79.88,1.36,2.27,1.67,4.11Z"/><path class="cls-1" d="M211.91,92.61c.44,2.67-1.29,5.05-2.81,7.15-.15.21-.32.45-.5.7,2.19-1.67,3.95-4.21,4.88-7.23.65-2.11.83-3.82.52-5.09-.08-.35-.27-.78-.49-1.25-.57.71-1.56,1.36-3.26,1.6.79.88,1.36,2.27,1.67,4.11Z"/><path class="cls-1" d="M210.88,59.35c.22.12.42.27.64.4-.07-.1-.12-.2-.21-.29-.14-.06-.3-.1-.45-.13,0,0,.02.01.03.02Z"/><path class="cls-1" d="M210.88,59.35c.22.12.42.27.64.4-.07-.1-.12-.2-.21-.29-.14-.06-.3-.1-.45-.13,0,0,.02.01.03.02Z"/><path class="cls-1" d="M174.22,137.41c-.79-.51-1.62-1.03-2.19-1.15.05.78.43,2.15.98,3.15.46.83.92,1.46,1.33,1.91-.47-.96-.85-2.2-.29-3.54.05-.13.11-.25.18-.37Z"/><path class="cls-1" d="M197.66,96.25c.11.65.49,1.42.97,2.21.72-2.55,2.94-3.28,4.19-3.69,1.11-.36,1.55-.55,1.83-1.07.03-.12-.03-.69-.06-1.06-.03-.35-.06-.69-.07-1.03-.17-.76-.2-1.44-.1-2.12.11-.82.42-1.41.82-1.83-.05-.02-.09-.04-.14-.05-.7-.27-1.36-.53-1.82-.53-.17,0-.38.03-.71.25-2.78,1.81-5.44,5.72-4.89,8.91Z"/><path class="cls-2" d="M200.15,93.53c.43-1.08,1.18-2.18,2.04-3.08.01.47.07.95.17,1.45.01.24.03.49.05.74-.11.04-.21.07-.27.09-.49.16-1.22.4-1.99.8Z"/><path class="cls-1" d="M117.58,138.35c.16-.56.4-1.02.68-1.41-1.79-.71-3.86-1.47-6-1.8-.62-.1-1.4-.21-2.27-.29,1.86,1.74,2.98,4.26,3.84,6.19l.14.32c.66,1.48,1.13,2.98,1.58,4.43.48,1.53.93,2.98,1.58,4.33.12.24.23.48.35.72-.47-1.34-.81-2.65-1.01-3.85-.51-3.12.17-5.47.9-7.95l.2-.69Z"/><path class="cls-1" d="M81.7,201.72c-.46.93-1.15,1.86-2.01,2.74,1.62-.72,3.08-1.64,4.38-2.76-.13-.1-.25-.21-.37-.33-.48-.5-.83-1.17-1.1-1.88-.25.76-.54,1.51-.9,2.23Z"/><path class="cls-1" d="M81.7,201.72c-.46.93-1.15,1.86-2.01,2.74,1.62-.72,3.08-1.64,4.38-2.76-.13-.1-.25-.21-.37-.33-.48-.5-.83-1.17-1.1-1.88-.25.76-.54,1.51-.9,2.23Z"/><path class="cls-6" d="M60.69,193.46c-.24-2.69-2.45-5.32-4.41-6.42-4.67-2.62-10.44-3.36-15.83-2.03l-2.83.7,1.2,2.66c.6,1.33,1.23,2.65,1.88,3.96l.85,1.71,1.86-.43c.56-.13,1.06-.19,1.52-.19,2.01,0,4.9.81,5.42,1.37.07.09.12.26.21.63.23.93.71,2.85,3.28,3.56.49.14.99.21,1.48.21,1.27,0,2.49-.45,3.52-1.31,1.34-1.1,2-2.67,1.84-4.41ZM57.47,196.2c-.65.53-1.39.81-2.15.81-.3,0-.6-.04-.89-.13-1.27-.35-1.53-1.05-1.77-2.01-.12-.48-.25-.99-.63-1.46l-.09-.1c-1.26-1.38-5.17-2.07-7.01-2.07-.63,0-1.28.08-2,.25l-.2.05-.09-.19c-.61-1.22-1.21-2.49-1.84-3.88l-.13-.29.31-.08c1.57-.39,3.2-.58,4.83-.58,3.37,0,6.63.83,9.43,2.4,1.47.82,3.15,2.87,3.31,4.72.09,1.04-.27,1.89-1.06,2.55Z"/><path class="cls-2" d="M141.95,283.9C63.68,283.9,0,220.22,0,141.95h31.18c0,61.08,49.69,110.77,110.76,110.77v31.18Z"/><path class="cls-2" d="M283.9,141.95h-31.18c0-61.08-49.69-110.77-110.76-110.77V0c78.27,0,141.95,63.68,141.95,141.95Z"/><path class="cls-7" d="M174.22,137.41c-.79-.51-1.62-1.03-2.19-1.15.05.78.43,2.15.98,3.15.46.83.92,1.46,1.33,1.91-.47-.96-.85-2.2-.29-3.54.05-.13.11-.25.18-.37Z"/><path class="cls-2" d="M115.2,138.81c-.13-.27-.26-.55-.4-.84.2.06.39.13.59.2,0,0-.15.51-.19.64Z"/><path class="cls-1" d="M201.44,88.07c.21-.14.98-.64,1.11-.72h0c-.68.44-1,.65-1.11.72Z"/><path class="cls-1" d="M113.83,141.04c1.45,3.19,2.1,6.66,3.66,9.81-.47-1.34-.81-2.65-1.01-3.85.08.47.01.09-.06-.36-.01-.07-.02-.14-.03-.2-.02-.12-.04-.23-.05-.31-.01-.07-.02-.13-.03-.17-.03-.16-.02-.13,0,0,0,.05.02.11.03.17.01.08.03.19.05.31.01.07.02.13.03.2.02.11.04.22.06.36-.51-3.12.17-5.47.9-7.95l.2-.69c.16-.56.4-1.02.68-1.41-2.69-1.07-5.38-1.82-8.26-2.09,1.86,1.74,2.98,4.26,3.84,6.19Z"/><path class="cls-1" d="M208.6,100.46c3.33-2.53,6.43-7.99,5.33-12.36l-1.68-.21c-.52.27-1.18.48-2,.6,3.55,3.95.84,8.45-1.65,11.96Z"/><path class="cls-1" d="M201.74,95.17c.91-.38,2.39-.5,2.91-1.46.43-2.02-1.14-4.24.58-6.03-.83-.32-1.83-.89-2.68-.34,0,0,0,0,0,0-3.61,2.35-6.32,7.08-3.92,11.12.45-1.58,1.62-2.68,3.11-3.3Z"/><path class="cls-1" d="M202.55,87.34s0,0,0,0c.02-.02.03-.02,0,0Z"/><path class="cls-1" d="M83.69,201.37c-.39-.41-.07-.08,0,0-.48-.5-.83-1.17-1.09-1.88-.61,1.89-1.51,3.55-2.91,4.97,1.62-.72,3.08-1.64,4.38-2.76-.13-.1-.25-.21-.37-.33.01.01.02.02,0,0Z"/><path class="cls-1" d="M210.85,59.34c.12.07.23.15.35.22l.09-.09c-.14-.06-.29-.1-.44-.13Z"/><path class="cls-3" d="M125,155.68c1.42,1.73,4.04,3.57,6.13,3.57.66,0,1.15-.19,1.63-.63,1.8-1.64.11-6.92-.8-9.75l-.23-.73c-1.63-5.14-5.34-9.55-10.19-12.36l.54,1.85-.35,1.94-.2.69c-.66,2.26-1.14,3.89-.78,6.04.16.96.44,2.04.82,3.12l-1.2,2.71-3.97,1.68-.81-.3c.09.17.18.35.27.51.83,1.54,1.68,3.02,2.54,4.44l.16-.71,3.54-2.46,2.91.41Z"/><path class="cls-3" d="M171.77,130.83l-.59-.28c-1.42-.67-3.36-1.6-4.5-1.6-.06,0-.13,0-.17.01-.16.03-.74.43-1.36,1.87-2.11,4.89.2,9.77,1.76,12.24,2.31,3.65,5.65,6.54,9.41,8.16,1.22.52,2.81.84,4.26.84,2.57,0,4.01-.78,4.27-2.32l1.7-1.75,3.94-.81,1.09.46c-4.17-6.76-11.17-12.74-19.82-16.81ZM172.02,136.26c.57.12,1.41.64,2.19,1.15-.69,1.26-.49,2.66.12,3.91-1.22-1.34-2.2-3.22-2.31-5.06Z"/><path class="cls-3" d="M80.88,180.58c.18,3.43.29,6.73.36,9.38v.19c-.05,1.69-.13,4.2-1.06,6.76l.32-.24,4.08-.08,2.07,1.41.13.35s.09.19.06.16l.7,1.4.05,1.69v.15s.01.23.01.23l.04,1.19c1.36-1.21,2.58-2.6,3.62-4.15,3.72-5.52,4.97-12.15,3.36-17.73-.62-2.16-2.11-4.65-3.91-5.02-.14-.03-.28-.05-.42-.05-1.19,0-2.31,1.67-2.7,3.29l-2.33,1.64-4.26-.45-.13-.14Z"/><path class="cls-2" d="M211.52,59.75c-.07-.1-.12-.2-.21-.29,0,0,0,0-.01,0l-.09.09c.1.07.21.13.32.2-.21-.14-.07-.1,0,0Z"/><path class="cls-3" d="M188.54,171.69c.37,1.97-.2,3.95-1.71,5.9-2.09,2.71-4.86,4.58-6.76,5.75-1.98,1.22-4.04,2.22-6.18,3.01,7.95-1.89,14.62-6.11,18.39-11.78,1.68-2.52,2.77-5.43,3.27-8.51l-2.4,1.21-2-.03c-1.31-.7-3.06-1.01-4.91-1.33-1.17-.21-2.39-.42-3.61-.74,0,0-.89-.23-1.18-.3.99.53,1.99,1.08,3,1.68.87.52,3.5,2.1,4.07,5.14Z"/><path class="cls-3" d="M76.36,204.18l.16-1.93c-.18.15-.36.31-.55.45-3.41,2.67-7.92,4.27-12.09,4.27,0,0-.31,0-.31,0-3.18-.08-6.28-.46-9.51-.98.16.22.32.44.49.66,5.47,1.12,11.1,2.23,16.51,2.23,1.21,0,2.4-.06,3.52-.17,1.63-.16,3.2-.47,4.69-.92l-.49-.14-2.42-3.49Z"/><path class="cls-3" d="M106.55,135.54l1.35-2.98c-5.79.37-11.48,2.77-15.83,6.72-2.84,2.59-5.43,5.97-7.4,9.64,1.19-2,2.62-3.92,4.34-5.73,2.3-2.43,6.94-6.5,12.1-6.5,2.31,0,4.44.83,6.17,2.39.64.58,1.21,1.19,1.74,1.83-.55-1.11-1.2-2.18-1.97-2.91l-.49-2.47Z"/><path class="cls-3" d="M211.79,62.28v-.27s-.29.3-.29.3l-3.56-2.26.05-.14c-3.43-1.68-7.55-2.56-12.04-2.56-4.15,0-8.53.74-12.65,2.14-4.46,1.52-8.31,3.82-12.29,7.42,2.17-1.59,4.6-3.14,7.36-4.7,5.19-2.94,10.05-4.37,14.84-4.37,1.74,0,3.47.2,5.15.58l1.59,1.52,1.02,3.65-.57,2.13c-.84.82-1.71,1.56-2.59,2.27.66-.31,1.34-.62,2.05-.92,2.18-.93,4.42-1.57,7.05-2.03.4-.07.82-.13,1.26-.19.68-.09,1.81-.25,2.12-.44,0,0-.05.03-.11.1l1.68-.72,1.77.05c-.52-.48-1.07-.95-1.63-1.39l-.2-.17Z"/><path class="cls-4" d="M206.51,83.54l.31.13,1.29,1.53.05.22,1.48-1.2c.39-.05.6-.14.64-.17,0,0-.06.04-.14.13l1.94-.79.31.04.69,2.39.82.1.78-2.22h.11c-.15-.25-.3-.49-.45-.71l-.13-.21-.12-.22-3.16,1.24-2.13-.32c-1.41-1.12-2.97-1.6-3.4-1.61h-.17c-1.68.09-3.16.68-4.41,1.48.78-.38,1.62-.57,2.52-.57,1.37,0,2.5.47,3.17.75Z"/><path class="cls-3" d="M211.21,103.9l-2.81-.17-3.07-2.97-.2-2.17c-.5.2-.97.34-1.33.44l-.1.03c-.1.03-.2.05-.29.09-.25.1-.56.27-.62.48l-1.8,1.56-3.94.52-2.14-1.04c-1.48-2.49-1.79-5.09-1.33-7.53-.81,2.21-1.13,4.34-.87,6.13.86,6.07,6.57,11.01,12.72,11.01,1.43,0,2.82-.27,4.13-.81,7.91-3.26,12.25-13.27,13.05-21.75.06-.69.1-1.37.12-2.06l-.4.51-4.18.85h-.02c1.71,6.6-2.85,13.77-6.92,16.86Z"/><polygon class="cls-6" points="202.55 87.34 202.55 87.34 202.55 87.34 202.55 87.34"/><path class="cls-6" d="M85.42,201.67l-.05-1.69s-.09-.07-.13-.12h-.01c-.15-.17-.38-.5-.61-1.12l-4.08.08c-.56,1.71-1.32,3.03-2.4,4.12l2.42,3.49c1.81-.8,3.47-1.85,4.91-3.11l-.04-1.28v-.38ZM79.68,204.46c1.4-1.42,2.3-3.08,2.91-4.97.26.71.62,1.38,1.09,1.88,0,0,0,0,0,0,.12.12.24.23.37.33-1.29,1.12-2.76,2.04-4.38,2.76Z"/><path class="cls-6" d="M83.69,201.37s0,0,0,0c-.07-.07-.39-.4,0,0Z"/><path class="cls-6" d="M200.71,99.05c.23-.83.86-1.47,1.86-1.89.19-.08.4-.14.63-.2,1.01-.29,2.55-.74,3.35-2.22l.21-.58c.25-1.16.07-2.25-.06-3.14-.2-1.27-.19-1.57.09-1.85l-.78-3.51-.31-.13c-.6-.25-1.41-.59-2.35-.59-.7,0-1.35.19-1.94.55h0s-.03.02-.03.02h0c-.74.49-1.37.89-1.75,1.36-3.5,3.18-5.5,8.22-2.85,12.69l3.94-.52ZM202.55,87.34c-.13.09-.9.58-1.11.72-.07.05-.06.04,0,0,.11-.07.43-.28,1.11-.72.03-.02.03-.02,0,0,.84-.55,1.85.02,2.68.34-1.72,1.79-.15,4.01-.58,6.03-.52.95-1.99,1.07-2.91,1.46-1.48.62-2.66,1.71-3.11,3.3-2.4-4.04.3-8.77,3.92-11.12Z"/><path class="cls-6" d="M201.44,88.07c-.06.04-.07.05,0,0h0Z"/><path class="cls-6" d="M83.69,201.37s0,0,0,0c0,0,0,0,0,0,.02.02.01.02,0,0Z"/><path class="cls-6" d="M116.48,146.99c-.02-.14-.04-.26-.06-.36.07.45.14.84.06.36Z"/><path class="cls-6" d="M116.42,146.63c-.01-.07-.02-.13-.03-.2.01.06.02.13.03.2Z"/><path class="cls-6" d="M118.61,146.64c-.43-2.63.16-4.65.84-6.99l.2-.69c.08-.29.2-.53.35-.74l-.95-3.28c-3.14-1.25-5.95-1.96-8.85-2.24l-1.68,3.73c1.54,1.44,2.54,3.68,3.34,5.49.63,1.39,1.1,2.84,1.6,4.37.59,1.82,1.2,3.7,2.1,5.52l3.97-1.68c-.42-1.2-.74-2.4-.92-3.49ZM117.58,138.35l-.2.69c-.73,2.49-1.41,4.83-.9,7.95.2,1.2.54,2.51,1.01,3.85-1.56-3.14-2.21-6.62-3.66-9.81-.85-1.92-1.98-4.45-3.84-6.19,2.89.28,5.57,1.03,8.26,2.09-.28.39-.52.85-.68,1.41Z"/><path class="cls-5" d="M141.95,61.07v-31.18c-61.79,0-112.07,50.27-112.07,112.06h31.18c0-44.6,36.28-80.88,80.88-80.88Z"/><path class="cls-6" d="M215.24,86.35c.42.84.14,1.64-.05,1.9l-1.26-.15c1.1,4.37-2,9.83-5.33,12.36,2.49-3.51,5.2-8.01,1.65-11.96.82-.12,1.48-.33,2-.6l-.69-.08c-.26-.55-.21-1.21.12-1.74.12-.2.28-.36.46-.5l-.31-.04c-.42.51-1.25.73-1.88.82l-1.31,3.58c1.96,2.19,1.49,4.61-1.81,9.27l3.07,2.97c4.07-3.09,8.27-10.44,5.56-16.2l-1.04-.12.81.5Z"/><path class="cls-6" d="M116.31,145.95c-.02-.13-.03-.16,0,0h0Z"/><path class="cls-2" d="M211.52,59.75c-.07-.1-.21-.14,0,0h0Z"/><path class="cls-6" d="M211.52,59.75c-.07-.1-.21-.14,0,0h0Z"/><path class="cls-1" d="M76.36,204.18l.16-1.93c-.18.15-.36.31-.55.45-3.41,2.67-7.92,4.27-12.09,4.27,0,0-.31,0-.31,0-3.18-.08-6.28-.46-9.51-.98.16.22.32.44.49.66,5.47,1.12,11.1,2.23,16.51,2.23,1.21,0,2.4-.06,3.52-.17,1.63-.16,3.2-.47,4.69-.92l-.49-.14-2.42-3.49Z"/><path class="cls-1" d="M106.55,135.54l1.35-2.98c-5.79.37-11.48,2.77-15.83,6.72-2.84,2.59-5.43,5.97-7.4,9.64,1.19-2,2.62-3.92,4.34-5.73,2.3-2.43,6.94-6.5,12.1-6.5,2.31,0,4.44.83,6.17,2.39.64.58,1.21,1.19,1.74,1.83-.55-1.11-1.2-2.18-1.97-2.91l-.49-2.47Z"/><path class="cls-1" d="M85.42,201.67l-.05-1.69s-.09-.07-.13-.12h-.01c-.15-.17-.38-.5-.61-1.12l-4.08.08c-.56,1.71-1.32,3.03-2.4,4.12l2.42,3.49c1.81-.8,3.47-1.85,4.91-3.11l-.04-1.28v-.38Z"/><path class="cls-1" d="M200.71,99.05c.23-.83.86-1.47,1.86-1.89.19-.08.4-.14.63-.2,1.01-.29,2.55-.74,3.35-2.22l.21-.58c.25-1.16.07-2.25-.06-3.14-.2-1.27-.19-1.57.09-1.85l-.78-3.51-.31-.13c-.6-.25-1.41-.59-2.35-.59-.7,0-1.35.19-1.94.55h0s-.03.02-.03.02h0c-.74.49-1.37.89-1.75,1.36-3.5,3.18-5.5,8.22-2.85,12.69l3.94-.52Z"/><path class="cls-1" d="M80.88,180.58c.18,3.43.29,6.73.36,9.38v.19c-.05,1.69-.13,4.2-1.06,6.76l.32-.24,4.08-.08,2.07,1.41.13.35s.09.19.06.16l.7,1.4.05,1.69v.15s.01.23.01.23l.04,1.19c1.36-1.21,2.58-2.6,3.62-4.15,3.72-5.52,4.97-12.15,3.36-17.73-.62-2.16-2.11-4.65-3.91-5.02-.14-.03-.28-.05-.42-.05-1.19,0-2.31,1.67-2.7,3.29l-2.33,1.64-4.26-.45-.13-.14Z"/><path class="cls-1" d="M218.13,87.03c1.71,6.61-2.85,13.78-6.92,16.87l-2.81-.17-3.07-2.97-.2-2.17c-.5.2-.97.34-1.33.44l-.1.03c-.1.03-.2.05-.29.09-.25.1-.56.27-.62.48l-1.8,1.56-3.94.52-2.14-1.04c-1.48-2.49-1.79-5.09-1.33-7.53-.81,2.21-1.13,4.34-.87,6.13.86,6.07,6.57,11.01,12.72,11.01,1.43,0,2.82-.27,4.13-.81,7.91-3.26,12.25-13.27,13.05-21.75.06-.69.1-1.37.12-2.06l-.4.51-4.18.85h-.02Z"/><path class="cls-1" d="M206.51,83.54l.31.13,1.29,1.53.05.22,1.48-1.2c.39-.05.6-.14.64-.17,0,0-.06.04-.14.13l1.94-.79.31.04.69,2.39.82.1.78-2.22h.11c-.15-.25-.3-.49-.45-.71l-.13-.21-.12-.22-3.16,1.24-2.13-.32c-1.41-1.12-2.97-1.6-3.4-1.61h-.17c-1.68.09-3.16.68-4.41,1.48.78-.38,1.62-.57,2.52-.57,1.37,0,2.5.47,3.17.75Z"/><path class="cls-1" d="M219.01,144.73c.48.28.95.55,1.43.81-.47-.26-.94-.53-1.43-.81Z"/><path class="cls-1" d="M211.31,59.47s0,0-.01,0c-.14-.06-.29-.1-.44-.13.12.07.23.15.35.22.1.07.21.13.32.2-.07-.1-.12-.2-.21-.29Z"/><path class="cls-1" d="M215.24,86.35c.42.84.14,1.64-.05,1.9l-1.26-.15c-.1-.41-.23-.82-.41-1.21-.3.37-.71.72-1.26,1l-.69-.08c-.26-.55-.21-1.21.12-1.74.12-.2.28-.36.46-.5l-.31-.04c-.42.51-1.25.73-1.88.82l-1.31,3.58c1.96,2.19,1.49,4.61-1.81,9.27l3.07,2.97c4.07-3.09,8.27-10.44,5.56-16.2l-1.04-.12.81.5Z"/><polygon class="cls-1" points="222.36 149.52 222.46 149.58 222.46 149.58 222.36 149.52"/><path class="cls-1" d="M222.67,146.78c-.58-.31-1.17-.64-1.78-.97.61.34,1.2.66,1.78.97Z"/><path class="cls-1" d="M206.91,65.04c.4-.07.82-.13,1.26-.19.68-.09,1.81-.25,2.12-.44,0,0-.05.03-.11.1l1.68-.72,1.77.05c-.52-.48-1.07-.95-1.63-1.39l-.2-.17v-.27s-.29.3-.29.3l-3.56-2.26.05-.14c-3.43-1.68-7.55-2.56-12.04-2.56-4.15,0-8.53.74-12.65,2.14-4.46,1.52-8.31,3.82-12.29,7.42,2.17-1.59,4.6-3.14,7.36-4.7,5.19-2.94,10.05-4.37,14.84-4.37,1.74,0,3.47.2,5.15.58l1.59,1.52,1.02,3.65-.57,2.13c-.84.82-1.71,1.56-2.59,2.27.66-.31,1.34-.62,2.05-.92,2.18-.93,4.42-1.57,7.05-2.03Z"/><path class="cls-1" d="M188.54,171.69c.37,1.97-.2,3.95-1.71,5.9-2.09,2.71-4.86,4.58-6.76,5.75-1.98,1.22-4.04,2.22-6.18,3.01,7.95-1.89,14.62-6.11,18.39-11.78,1.68-2.52,2.77-5.43,3.27-8.51l-2.4,1.21-2-.03c-1.31-.7-3.06-1.01-4.91-1.33-1.17-.21-2.39-.42-3.61-.74,0,0-.89-.23-1.18-.3.99.53,1.99,1.08,3,1.68.87.52,3.5,2.1,4.07,5.14Z"/><path class="cls-1" d="M118.61,146.64c-.43-2.63.16-4.65.84-6.99l.2-.69c.08-.29.2-.53.35-.74l-.95-3.28c-3.14-1.25-5.95-1.96-8.85-2.24l-1.68,3.73c1.54,1.44,2.54,3.68,3.34,5.49.63,1.39,1.1,2.84,1.6,4.37.59,1.82,1.2,3.7,2.1,5.52l3.97-1.68c-.42-1.2-.74-2.4-.92-3.49Z"/><path class="cls-1" d="M217.06,143.57c.32.2.64.38.97.58-.32-.19-.64-.38-.97-.58Z"/><path class="cls-1" d="M125,155.68c1.42,1.73,4.04,3.57,6.13,3.57.66,0,1.15-.19,1.63-.63,1.8-1.64.11-6.92-.8-9.75l-.23-.73c-1.63-5.14-5.34-9.55-10.19-12.36l.54,1.85-.35,1.94-.2.69c-.66,2.26-1.14,3.89-.78,6.04.16.96.44,2.04.82,3.12l-1.2,2.71-3.97,1.68-.81-.3c.09.17.18.35.27.51.83,1.54,1.68,3.02,2.54,4.44l.16-.71,3.54-2.46,2.91.41Z"/><path class="cls-1" d="M171.77,130.83l-.59-.28c-1.42-.67-3.36-1.6-4.5-1.6-.06,0-.13,0-.17.01-.16.03-.74.43-1.36,1.87-2.11,4.89.2,9.77,1.76,12.24,2.31,3.65,5.65,6.54,9.41,8.16,1.22.52,2.81.84,4.26.84,2.57,0,4.01-.78,4.27-2.32l1.7-1.75,3.94-.81,1.09.46c-4.17-6.76-11.17-12.74-19.82-16.81Z"/><path class="cls-6" d="M217.88,80.53c.78,1.11,1.39,2.38,1.86,3.63-.26-6.25-2.46-11.88-6.34-16.77-1.37,1.54-3.85,1.58-5.74,1.91-2.12.37-4.12.91-6.11,1.75-3.75,1.6-7.39,3.59-10.3,6.49-6.2,6.19-9.14,16.13-8.16,24.73.94,8.22,5.91,14.89,11.45,20.74,6.2,6.54,13.45,12.04,20.95,17,.43.28.66.44.76.5l.22.14c2.05,1.33,4.16,2.55,6.29,3.72-.02.81-.04,1.61-.09,2.41-.58-.31-1.17-.64-1.78-.97-.15-.09-.3-.18-.46-.26-.47-.27-.94-.53-1.42-.81-.33-.19-.66-.39-.98-.59-.33-.19-.65-.38-.97-.58-.66-.4-1.33-.82-1.99-1.26-9.33-6.1-16.36-11.76-22.1-17.82-5.04-5.31-10.96-12.62-12.03-21.98-1.1-9.68,2.35-20.08,8.78-26.5,2.71-2.7,6.2-4.91,10.99-6.94,2.02-.86,4.11-1.47,6.58-1.9.37-.07.77-.12,1.18-.18,1.34-.18,2.73-.38,3.32-1.04l3.31.09c4.23,5.35,6.52,11.41,6.8,18.03l-4.18.86c-.46-1.23-1.01-2.3-1.61-3.17l-.23-.42c-.22-.55-.8-1.81-1.45-1.81-.35,0-.73.43-.8.91l-3.48,1.36c-1.72-1.36-3.74-2.07-4.8-2.07h-.23c-4.81.25-8.18,3.77-9.76,5.84-3.58,4.69-5.37,9.92-4.79,14.01,1.01,7.1,7.67,12.88,14.86,12.88,1.71,0,3.38-.33,4.95-.98,8.75-3.61,13.52-14.42,14.38-23.54.99-10.6-3.23-20.72-11.37-27.13-.08-.07-.15-.14-.23-.2l.27-.19-.41-1.62-.95.98c-.23-.16-.45-.3-.66-.43l-.11.12h0c-.14-.06-.29-.1-.44-.13.12.06.23.14.35.22l-1.23,1.22.67-1.88c-4.04-2.43-9.11-3.72-14.7-3.72-4.38,0-9,.78-13.34,2.26-6.24,2.12-11.34,5.67-17.05,11.86-4.67,5.07-7.71,9.34-9.83,13.84-2.38,5.03-4.05,10.68-4.98,16.79-1.59,10.54-.83,22.69,2.14,34.22,2.73,10.59,8.65,19.77,17.12,26.54,2.52,2.01,5.27,3.42,8.18,4.92,1.7.87,3.45,1.77,5.17,2.8,1.15.69,2.71,1.82,3.06,3.69.26,1.35-.17,2.72-1.29,4.17-1.87,2.43-4.43,4.15-6.19,5.24-5.16,3.18-10.92,4.79-17.12,4.79-15.48,0-32.38-10.37-41.09-25.21l-.93-1.58,3.54-2.46c1.72,2.1,4.89,4.36,7.8,4.36,1.2,0,2.21-.4,3.09-1.2,2.82-2.58,1.01-8.25-.19-12.01l-.23-.72c-2.46-7.74-9.16-13.95-17.5-16.22-2.21-.61-4.52-.91-6.85-.91-6.84,0-13.71,2.67-18.83,7.34-3.43,3.11-6.5,7.3-8.65,11.78-1.22,2.55-1.91,4.84-2.1,7.02-.14,1.62-.48,3.18-.8,4.68-.24,1.09-.47,2.13-.62,3.16-.56,3.92-.27,8.16.01,12.26.05.7.1,1.39.14,2.08.26,4.12.38,8.19.47,11.29v.12c-.12,3.7-.56,7.89-4.43,10.93-3.04,2.38-7.04,3.81-10.73,3.81h-.28c-4.86-.13-9.7-1-14.39-1.87,1.32,1.88,2.68,3.8,4.07,5.66l.08.02c5.81,1.19,11.81,2.42,17.67,2.42,1.28,0,2.54-.05,3.73-.17,7.65-.76,14.13-4.54,18.25-10.64,4.07-6.05,5.43-13.35,3.64-19.54-.76-2.65-2.67-5.94-5.54-6.54-.29-.06-.58-.09-.86-.09-2.48,0-4.22,2.57-4.79,4.95l-4.26-.45c-.32-12.15.6-24.67,9.34-33.89,1.67-1.75,6.02-5.83,10.53-5.83,1.77,0,3.4.63,4.72,1.83,2.92,2.64,4.56,6.42,6.14,10.08.67,1.54,1.31,3,2,4.28,6.03,11.13,12.84,19.31,20.8,25.01,8.63,6.17,19.08,9.57,29.42,9.57,1.59,0,3.18-.08,4.74-.24,10.83-1.12,20.24-6.21,25.16-13.61,4.59-6.9,5.22-16.42,1.64-24.83-3.79-8.91-12.18-16.95-23.03-22.06l-.58-.27c-1.7-.81-3.8-1.81-5.43-1.81-.2,0-.39.01-.56.05-1.44.26-2.4,1.84-2.96,3.13-2.5,5.81.13,11.42,1.92,14.25,2.54,4.01,6.23,7.2,10.39,8.99,1.5.64,3.36,1.01,5.11,1.01,2.13,0,5.79-.53,6.4-4.12l3.94-.81c3.53,5.46,5.01,10.33,4.42,14.46l-3.16,1.59c-1.61-.87-3.53-1.2-5.56-1.56-1.13-.2-2.3-.4-3.44-.7l-.33-.09c-2.44-.62-4.96-1.27-7.37-2.37-2.7-1.24-4.95-3.26-7.03-5.22-3.98-3.75-7.12-8.07-9.34-12.86-4.93-10.61-7.05-24.23-5.83-37.38.81-8.8,3.65-21.3,12.54-30.84,3.43-3.67,7.75-6.93,13.61-10.24,4.86-2.75,9.37-4.09,13.78-4.09,1.57,0,3.14.18,4.66.53l1.02,3.65c-1.66,1.62-3.51,2.99-5.3,4.31-1.76,1.3-3.42,2.53-4.9,3.97-3.54,3.44-6.4,7.77-8.27,12.51-3.24,8.18-2.98,17.83.71,26.5,3.56,8.37,10.19,14.94,14.86,19.15,8.62,7.77,17.49,14.13,26.37,18.9l.1.06c-.08.77-.17,1.54-.27,2.31l-.86-.46c-9.7-5.22-18.61-11.84-26.79-19.2-6.27-5.66-12.06-12.06-15.4-19.92-3.79-8.9-4.31-19.09-.73-28.14,1.96-4.94,4.96-9.55,8.77-13.26,3.16-3.07,7.08-5.23,10.21-8.28-5.97-1.37-11.7.4-16.9,3.34-4.73,2.68-9.36,5.84-13.09,9.83-7.42,7.96-10.99,18.9-11.97,29.57-1.11,11.93.56,25.34,5.64,36.27,2.13,4.6,5.17,8.72,8.86,12.2,1.93,1.82,4.02,3.71,6.45,4.82,2.34,1.07,4.86,1.7,7.33,2.33,3.15.84,6.58.89,9.49,2.46.6-4.14-1.38-8.78-4.09-12.97-1.13,6.65-9.6,6.82-14.49,4.72-4.65-1.99-8.66-5.55-11.36-9.81-3.1-4.89-4.44-10.79-2.08-16.27.86-1.99,2.28-3.99,4.55-4.4,2.56-.46,5.63,1.15,7.88,2.21,10,4.7,19.7,12.82,24.1,23.17,3.67,8.62,3.43,18.95-1.83,26.87-5.83,8.77-16.53,13.5-26.74,14.56-12.53,1.3-25.44-2.43-35.64-9.73-9.28-6.64-16.05-15.79-21.44-25.73-2.36-4.36-3.95-10.4-7.69-13.79-3.86-3.49-9.52,1.03-12.23,3.89-8.31,8.76-9.05,20.9-8.76,32.35.91-3.77,3.92-7.36,8.2-6.47,3.75.77,6.18,4.62,7.17,8.05,2.09,7.2.21,15.22-3.92,21.34-4.55,6.76-11.77,10.79-19.82,11.59-7.7.76-15.43-.93-22.93-2.47-2.25-2.96-4.36-6.03-6.52-9.05l.24.07-1.1-1.65c6.27,1.08,12.62,2.56,18.99,2.72h.25c3.29.01,6.8-1.32,9.37-3.34,3.04-2.39,3.48-5.62,3.6-9.3-.1-3.74-.23-7.47-.47-11.21-.3-4.85-.82-9.95-.13-14.77.37-2.59,1.19-5.12,1.41-7.73.24-2.71,1.13-5.33,2.31-7.77,2.2-4.58,5.37-9.01,9.13-12.44,7.42-6.74,17.99-9.56,27.71-6.92,8.72,2.38,16.22,8.95,18.99,17.65l.1.32c1.36,4.29,3.68,11.04-.28,14.66-4.41,4.03-10.92.41-14.02-3.38.31.52.62,1.05.93,1.58,10.41,17.75,35.81,31.62,55.21,19.67,2.07-1.27,4.12-2.78,5.61-4.71,1.63-2.13.97-3.41-1.17-4.7-4.56-2.73-9.36-4.51-13.58-7.88-8.93-7.13-15.03-16.66-17.87-27.69-2.88-11.16-3.91-23.67-2.18-35.08.9-5.99,2.56-11.91,5.16-17.4,2.55-5.4,6.17-10.01,10.2-14.38,5.17-5.6,10.58-9.93,17.93-12.43,9.53-3.24,21.44-3.67,30.27,1.9.78.42,1.7,1.07,2.63,1.87,8.79,6.92,13.14,17.93,12.11,28.97-.92,9.77-6.07,21.36-15.7,25.34-9.82,4.04-21.3-3.19-22.78-13.59-.76-5.43,1.98-11.4,5.21-15.63,2.75-3.6,6.73-6.44,11.37-6.68h.28c1.79-.01,4.29,1.01,6.2,2.53.22-1.44,1.42-2.74,2.94-2.74,1.81,0,2.84,1.66,3.45,3.16Z"/><path class="cls-5" d="M254.01,141.95c0,61.8-50.27,112.07-112.06,112.07v-31.19c41.23,0,75.33-31.02,80.24-70.94.1-.77.19-1.54.27-2.31.08-.93.15-1.86.21-2.8.05-.8.07-1.6.09-2.41.03-.8.07-1.61.07-2.42h31.18Z"/><path class="cls-6" d="M216.26,140.5c-13.86-9.06,2.34,1.53,0,0h0Z"/><path class="cls-2" d="M216.11,81.76l-.23-.42c-.22-.55-.8-1.81-1.45-1.81-.35,0-.73.43-.8.91l-3.48,1.36c-1.72-1.36-3.74-2.07-4.8-2.07h-.23c-4.81.25-8.18,3.77-9.76,5.84-3.58,4.69-5.37,9.92-4.79,14.01,1.01,7.1,7.67,12.88,14.86,12.88,1.71,0,3.38-.33,4.95-.98,8.75-3.61,13.52-14.42,14.38-23.54.99-10.6-3.23-20.72-11.37-27.13-.08-.07-.15-.14-.23-.2l.27-.19-.41-1.62-.95.98c-.23-.16-.45-.3-.66-.43l-.11.12c.1.09.15.19.22.29-.1-.08-.21-.14-.32-.2l-1.23,1.22.67-1.88c-4.04-2.43-9.11-3.72-14.7-3.72-4.38,0-9,.78-13.34,2.26-6.24,2.12-11.34,5.67-17.05,11.86-4.67,5.07-7.71,9.34-9.83,13.84-2.38,5.03-4.05,10.68-4.98,16.79-1.59,10.54-.83,22.69,2.14,34.22,2.73,10.59,8.65,19.77,17.12,26.54,2.52,2.01,5.27,3.42,8.18,4.92,1.7.87,3.45,1.77,5.17,2.8,1.15.69,2.71,1.82,3.06,3.69.26,1.35-.17,2.72-1.29,4.17-1.87,2.43-4.43,4.15-6.19,5.24-5.16,3.18-10.92,4.79-17.12,4.79-15.48,0-32.38-10.37-41.09-25.21l-.93-1.58,3.54-2.46c1.72,2.1,4.89,4.36,7.8,4.36,1.2,0,2.21-.4,3.09-1.2,2.82-2.58,1.01-8.25-.19-12.01l-.23-.72c-2.46-7.74-9.16-13.95-17.5-16.22-2.21-.61-4.52-.91-6.85-.91-6.84,0-13.71,2.67-18.83,7.34-3.43,3.11-6.5,7.3-8.65,11.78-1.22,2.55-1.91,4.84-2.1,7.02-.14,1.62-.48,3.18-.8,4.68-.24,1.09-.47,2.13-.62,3.16-.56,3.92-.27,8.16.01,12.26.05.7.1,1.39.14,2.08.26,4.12.38,8.19.47,11.29v.12c-.12,3.7-.56,7.89-4.43,10.93-3.04,2.38-7.04,3.81-10.73,3.81h-.28c-4.86-.13-9.7-1-14.39-1.87,1.32,1.88,2.68,3.8,4.07,5.66l.08.02c5.81,1.19,11.81,2.42,17.67,2.42,1.28,0,2.54-.05,3.73-.17,7.65-.76,14.13-4.54,18.25-10.64,4.07-6.05,5.43-13.35,3.64-19.54-.76-2.65-2.67-5.94-5.54-6.54-.29-.06-.58-.09-.86-.09-2.48,0-4.22,2.57-4.79,4.95l-4.26-.45c-.32-12.15.6-24.67,9.34-33.89,1.67-1.75,6.02-5.83,10.53-5.83,1.77,0,3.4.63,4.72,1.83,2.92,2.64,4.56,6.42,6.14,10.08.67,1.54,1.31,3,2,4.28,6.03,11.13,12.84,19.31,20.8,25.01,8.63,6.17,19.08,9.57,29.42,9.57,1.59,0,3.18-.08,4.74-.24,10.83-1.12,20.24-6.21,25.16-13.61,4.59-6.9,5.22-16.42,1.64-24.83-3.79-8.91-12.18-16.95-23.03-22.06l-.58-.27c-1.7-.81-3.8-1.81-5.43-1.81-.2,0-.39.01-.56.05-1.44.26-2.4,1.84-2.96,3.13-2.5,5.81.13,11.42,1.92,14.25,2.54,4.01,6.23,7.2,10.39,8.99,1.5.64,3.36,1.01,5.11,1.01,2.13,0,5.79-.53,6.4-4.12l3.94-.81c3.53,5.46,5.01,10.33,4.42,14.46l-3.16,1.59c-1.61-.87-3.53-1.2-5.56-1.56-1.13-.2-2.3-.4-3.44-.7l-.33-.09c-2.44-.62-4.96-1.27-7.37-2.37-2.7-1.24-4.95-3.26-7.03-5.22-3.98-3.75-7.12-8.07-9.34-12.86-4.93-10.61-7.05-24.23-5.83-37.38.81-8.8,3.65-21.3,12.54-30.84,3.43-3.67,7.75-6.93,13.61-10.24,4.86-2.75,9.37-4.09,13.78-4.09,1.57,0,3.14.18,4.66.53l1.02,3.65c-1.66,1.62-3.51,2.99-5.3,4.31-1.76,1.3-3.42,2.53-4.9,3.97-3.54,3.44-6.4,7.77-8.27,12.51-3.24,8.18-2.98,17.83.71,26.5,3.56,8.37,10.19,14.94,14.86,19.15,8.62,7.77,17.49,14.13,26.37,18.9l.1.06c.08-.93.15-1.86.21-2.8-.58-.31-1.17-.64-1.78-.97-.15-.09-.3-.18-.46-.26-.47-.27-.94-.53-1.42-.81-.33-.19-.66-.39-.98-.59-.33-.19-.65-.38-.97-.58-.66-.4-1.33-.82-1.99-1.26-9.33-6.1-16.36-11.76-22.1-17.82-5.04-5.31-10.96-12.62-12.03-21.98-1.1-9.68,2.35-20.08,8.78-26.5,2.71-2.7,6.2-4.91,10.99-6.94,2.02-.86,4.11-1.47,6.58-1.9.37-.07.77-.12,1.18-.18,1.34-.18,2.73-.38,3.32-1.04l3.31.09c4.23,5.35,6.52,11.41,6.8,18.03l-4.18.86c-.46-1.23-1.01-2.3-1.61-3.17ZM74.58,208.73c-1.12.11-2.3.16-3.52.16-5.4,0-11.03-1.11-16.51-2.23-.16-.22-.32-.44-.48-.66,3.22.52,6.33.89,9.51.97h.3c4.18.01,8.69-1.59,12.1-4.26.19-.15.37-.3.55-.46l-.17,1.93,2.42,3.49.49.14c-1.49.45-3.06.76-4.69.92ZM80.55,206.44l-2.41-3.49c1.08-1.1,1.84-2.41,2.39-4.12l4.08-.09c.24.63.46.95.62,1.12h.01s.08.09.13.12l.05,1.69v.39s.05,1.27.05,1.27c-1.45,1.26-3.1,2.3-4.92,3.11ZM85.26,181.17l2.33-1.65c.38-1.62,1.5-3.29,2.69-3.29.13,0,.27.01.42.04,1.79.38,3.28,2.87,3.9,5.03,1.62,5.58.36,12.21-3.35,17.73-1.05,1.55-2.26,2.94-3.62,4.15l-.04-1.19v-.23s-.01-.15-.01-.15l-.05-1.69-.7-1.41s-.06-.15-.06-.16l-.13-.35-2.07-1.41-4.08.08-.32.24c.93-2.57,1-5.07,1.06-6.76v-.19c-.07-2.65-.18-5.94-.36-9.38l.13.14,4.26.45ZM107.27,139.08c-1.73-1.56-3.86-2.39-6.17-2.39-5.15,0-9.79,4.07-12.09,6.5-1.72,1.81-3.15,3.73-4.34,5.73,1.97-3.67,4.56-7.05,7.4-9.64,4.34-3.95,10.04-6.35,15.83-6.72l-1.35,2.98.49,2.47c.78.72,1.42,1.8,1.97,2.9-.53-.64-1.1-1.26-1.74-1.83ZM113.45,146.28c-.49-1.53-.96-2.97-1.59-4.36-.8-1.81-1.8-4.05-3.34-5.49l1.68-3.73c2.9.28,5.72.99,8.86,2.24l.94,3.28c-.15.21-.26.45-.35.74l-.2.69c-.68,2.34-1.27,4.36-.84,6.99.18,1.09.5,2.29.92,3.49l-3.97,1.67c-.91-1.82-1.52-3.7-2.11-5.52ZM118.4,158.45c-.86-1.43-1.71-2.9-2.54-4.44-.09-.17-.18-.34-.27-.51l.81.3,3.97-1.68,1.19-2.71c-.38-1.08-.66-2.16-.82-3.12-.35-2.15.12-3.78.79-6.04l.2-.69.35-1.94-.54-1.85c4.86,2.81,8.57,7.22,10.2,12.36l.23.73c.91,2.84,2.59,8.11.8,9.75-.49.45-.98.64-1.64.64-2.08,0-4.71-1.84-6.13-3.57l-2.9-.41-3.54,2.46-.16.72ZM190.49,147.19l-3.94.81-1.7,1.75c-.26,1.54-1.7,2.32-4.27,2.32-1.44,0-3.04-.31-4.26-.84-3.76-1.61-7.1-4.51-9.41-8.15-1.57-2.47-3.88-7.35-1.77-12.24.62-1.44,1.21-1.84,1.36-1.87.05-.01.11-.01.18-.01,1.14,0,3.08.92,4.49,1.59l.59.29c8.66,4.06,15.66,10.05,19.83,16.81l-1.1-.46ZM182.64,165.18c1.22.32,2.43.53,3.61.74,1.85.32,3.6.63,4.91,1.33l1.99.03,2.4-1.21c-.5,3.08-1.6,5.98-3.27,8.51-3.77,5.67-10.44,9.88-18.39,11.77,2.14-.78,4.2-1.78,6.18-3,1.9-1.18,4.67-3.05,6.76-5.76,1.5-1.94,2.08-3.93,1.7-5.89-.57-3.04-3.2-4.62-4.07-5.14-1.01-.61-2.01-1.16-3-1.69.28.08,1.18.31,1.18.31ZM211.85,63.79l-1.67.72s.06-.06.08-.08c-.35.18-1.43.33-2.09.42-.44.06-.86.12-1.26.19-2.62.46-4.87,1.11-7.05,2.04-.71.3-1.39.61-2.05.92.88-.71,1.75-1.45,2.59-2.27l.57-2.13-1.02-3.65-1.59-1.53c-1.68-.38-3.42-.58-5.15-.58-4.8,0-9.65,1.43-14.84,4.37-2.76,1.56-5.19,3.11-7.36,4.7,3.97-3.6,7.83-5.91,12.28-7.42,4.13-1.41,8.5-2.15,12.65-2.15,4.5,0,8.62.89,12.05,2.57l-.05.14,3.55,2.26.31-.3v.27s.19.17.19.17c.56.44,1.11.91,1.63,1.39l-1.77-.05ZM215.46,85.98c2.71,5.76-1.49,13.11-5.56,16.2l-3.07-2.97c3.3-4.66,3.77-7.09,1.81-9.27l1.3-3.58c.63-.09,1.47-.31,1.89-.82l.31.04c-.18.13-.34.3-.47.49-.33.53-.38,1.19-.12,1.74l.69.09c.56-.29.97-.64,1.27-1.01.18.39.31.8.41,1.21l1.26.16c.2-.26.47-1.07.06-1.91l-.81-.5,1.03.13ZM205.23,81.89h.17c.43,0,1.99.49,3.4,1.6l2.14.32,3.15-1.23.12.21.12.21c.16.22.31.46.46.72h-.11s-.77,2.2-.77,2.2l-.82-.1-.69-2.39-.31-.04-1.95.79c.06-.07.11-.11.13-.12-.05.03-.26.1-.63.16l-1.48,1.2-.05-.22-1.29-1.53-.31-.13c-.67-.28-1.8-.74-3.17-.74-.89,0-1.74.19-2.52.56,1.26-.79,2.74-1.38,4.41-1.47ZM199.61,86.89c.39-.47,1.01-.87,1.76-1.36h.04v-.02c.58-.37,1.23-.55,1.93-.55.94,0,1.76.34,2.35.58l.31.13.78,3.51c-.27.28-.29.58-.09,1.85.14.88.31,1.98.07,3.13l-.22.58c-.8,1.49-2.33,1.93-3.35,2.22-.22.07-.44.13-.62.2-1.01.42-1.63,1.06-1.87,1.89l-3.93.52c-2.66-4.46-.66-9.5,2.84-12.68ZM218.15,87.04l4.18-.85.4-.51c-.02.68-.06,1.37-.12,2.06-.8,8.47-5.14,18.48-13.05,21.74-1.31.54-2.7.82-4.13.82-6.15,0-11.86-4.95-12.72-11.02-.25-1.79.07-3.92.87-6.13-.46,2.44-.15,5.04,1.33,7.53l2.14,1.04,3.94-.52,1.79-1.56c.06-.21.37-.38.62-.48.09-.04.19-.06.29-.09l.1-.03c.37-.11.83-.24,1.34-.44l.2,2.16,3.07,2.97,2.81.17c4.06-3.09,8.62-10.26,6.92-16.87h.02Z"/><path class="cls-2" d="M215.07,142.31c.66.43,1.33.85,1.99,1.26-.66-.41-1.33-.82-1.99-1.26Z"/><path class="cls-6" d="M215.07,142.31c.66.43,1.33.85,1.99,1.26-.66-.41-1.33-.82-1.99-1.26Z"/><path class="cls-2" d="M220.44,145.55c.15.08.31.17.46.26-.15-.08-.3-.17-.46-.26Z"/><path class="cls-6" d="M220.44,145.55c.15.08.31.17.46.26-.15-.08-.3-.17-.46-.26Z"/><path class="cls-2" d="M218.03,144.15c.33.2.66.4.98.59-.32-.19-.66-.39-.98-.59Z"/><path class="cls-6" d="M218.03,144.15c.33.2.66.4.98.59-.32-.19-.66-.39-.98-.59Z"/><path class="cls-2" d="M213.51,86.89c-.57.71.22.47,0,0h0Z"/><path class="cls-1" d="M76.36,204.18l.17-1.93c-.18.16-.36.31-.55.46-3.41,2.67-7.92,4.27-12.1,4.27h-.3c-3.18-.09-6.29-.46-9.51-.98.16.22.32.44.48.66,5.48,1.12,11.11,2.23,16.51,2.23,1.22,0,2.4-.05,3.52-.16,1.63-.16,3.2-.47,4.69-.92l-.49-.14-2.42-3.49Z"/><path class="cls-1" d="M125,155.68c1.42,1.73,4.05,3.57,6.13,3.57.66,0,1.15-.19,1.64-.64,1.79-1.64.11-6.91-.8-9.75l-.23-.73c-1.63-5.14-5.34-9.55-10.2-12.36l.54,1.85-.35,1.94-.2.69c-.67,2.26-1.14,3.89-.79,6.04.16.96.44,2.04.82,3.12l-1.19,2.71-3.97,1.68-.81-.3c.09.17.18.34.27.51.83,1.54,1.68,3.01,2.54,4.44l.16-.72,3.54-2.46,2.9.41Z"/><path class="cls-1" d="M171.76,130.84l-.59-.29c-1.41-.67-3.35-1.59-4.49-1.59-.07,0-.13,0-.18.01-.15.03-.74.43-1.36,1.87-2.11,4.89.2,9.77,1.77,12.24,2.31,3.64,5.65,6.54,9.41,8.15,1.22.53,2.82.84,4.26.84,2.57,0,4.01-.78,4.27-2.32l1.7-1.75,3.94-.81,1.1.46c-4.17-6.76-11.17-12.75-19.83-16.81Z"/><path class="cls-1" d="M85.42,201.67l-.05-1.69s-.09-.07-.13-.11h-.01c-.16-.18-.38-.5-.62-1.13l-4.08.09c-.55,1.71-1.31,3.02-2.39,4.12l2.41,3.49c1.82-.81,3.47-1.85,4.92-3.11l-.04-1.27v-.39Z"/><path class="cls-1" d="M188.53,171.7c.38,1.96-.2,3.95-1.7,5.89-2.09,2.71-4.86,4.58-6.76,5.76-1.98,1.22-4.04,2.22-6.18,3,7.95-1.89,14.62-6.1,18.39-11.77,1.67-2.53,2.77-5.43,3.27-8.51l-2.4,1.21-1.99-.03c-1.31-.7-3.06-1.01-4.91-1.33-1.18-.21-2.39-.42-3.61-.74,0,0-.9-.23-1.18-.31.99.53,1.99,1.08,3,1.69.87.52,3.5,2.1,4.07,5.14Z"/><path class="cls-1" d="M80.87,180.58c.18,3.44.29,6.73.36,9.38v.19c-.06,1.69-.13,4.19-1.06,6.76l.32-.24,4.08-.08,2.07,1.41.13.35s.06.15.06.16l.7,1.41.05,1.69v.38s.05,1.19.05,1.19c1.36-1.21,2.57-2.6,3.62-4.15,3.71-5.52,4.97-12.15,3.35-17.73-.62-2.16-2.11-4.65-3.9-5.03-.15-.03-.29-.04-.42-.04-1.19,0-2.31,1.67-2.69,3.29l-2.33,1.65-4.26-.45-.13-.14Z"/><path class="cls-1" d="M106.55,135.54l1.35-2.98c-5.79.37-11.49,2.77-15.83,6.72-2.84,2.59-5.43,5.97-7.4,9.64,1.19-2,2.62-3.92,4.34-5.73,2.3-2.43,6.94-6.5,12.09-6.5,2.31,0,4.44.83,6.17,2.39.64.57,1.21,1.19,1.74,1.83-.55-1.1-1.19-2.18-1.97-2.9l-.49-2.47Z"/><path class="cls-1" d="M118.61,146.64c-.43-2.63.16-4.65.84-6.99l.2-.69c.09-.29.2-.53.35-.74l-.94-3.28c-3.14-1.25-5.96-1.96-8.86-2.24l-1.68,3.73c1.54,1.44,2.54,3.68,3.34,5.49.63,1.39,1.1,2.83,1.59,4.36.59,1.82,1.2,3.7,2.11,5.52l3.97-1.67c-.42-1.2-.74-2.4-.92-3.49Z"/><path class="cls-1" d="M211.21,103.9l-2.81-.17-3.07-2.97-.2-2.16c-.51.2-.97.33-1.34.44l-.1.03c-.1.03-.2.05-.29.09-.25.1-.56.27-.62.48l-1.79,1.56-3.94.52-2.14-1.04c-1.48-2.49-1.79-5.09-1.33-7.53-.8,2.21-1.12,4.34-.87,6.13.86,6.07,6.57,11.02,12.72,11.02,1.43,0,2.82-.28,4.13-.82,7.91-3.26,12.25-13.27,13.05-21.74.06-.69.1-1.38.12-2.06l-.4.51-4.18.85h-.02c1.7,6.6-2.86,13.77-6.92,16.86Z"/><path class="cls-1" d="M211.79,62.28v-.27s-.3.3-.3.3l-3.55-2.26.05-.14c-3.43-1.68-7.55-2.57-12.05-2.57-4.15,0-8.52.74-12.65,2.15-4.45,1.51-8.31,3.82-12.28,7.42,2.17-1.59,4.6-3.14,7.36-4.7,5.19-2.94,10.04-4.37,14.84-4.37,1.73,0,3.47.2,5.15.58l1.59,1.53,1.02,3.65-.57,2.13c-.84.82-1.71,1.56-2.59,2.27.66-.31,1.34-.62,2.05-.92,2.18-.93,4.43-1.58,7.05-2.04.4-.07.82-.13,1.26-.19.66-.09,1.74-.24,2.09-.42-.02.02-.05.04-.08.08l1.67-.72,1.77.05c-.52-.48-1.07-.95-1.63-1.39l-.2-.17Z"/><path class="cls-1" d="M200.7,99.05c.24-.83.86-1.47,1.87-1.89.18-.07.4-.13.62-.2,1.02-.29,2.55-.73,3.35-2.22l.22-.58c.24-1.15.07-2.25-.07-3.13-.2-1.27-.18-1.57.09-1.85l-.78-3.51-.31-.13c-.59-.24-1.41-.58-2.35-.58-.7,0-1.35.18-1.93.55h0s-.03.02-.03.02h-.01c-.75.49-1.37.89-1.76,1.36-3.5,3.18-5.5,8.22-2.84,12.68l3.93-.52Z"/><path class="cls-1" d="M206.51,83.54l.31.13,1.29,1.53.05.22,1.48-1.2c.37-.06.58-.13.63-.16-.02.01-.07.05-.13.12l1.95-.79.31.04.69,2.39.82.1.77-2.21h.11c-.15-.25-.3-.49-.46-.71l-.12-.21-.12-.21-3.15,1.23-2.14-.32c-1.41-1.11-2.97-1.6-3.4-1.6h-.17c-1.67.09-3.15.68-4.41,1.47.78-.37,1.63-.56,2.52-.56,1.37,0,2.5.46,3.17.74Z"/><path class="cls-1" d="M215.24,86.35c.41.84.14,1.65-.06,1.91l-1.26-.16c-.1-.41-.23-.82-.41-1.21-.3.37-.71.72-1.27,1.01l-.69-.09c-.26-.55-.21-1.21.12-1.74.13-.19.29-.36.47-.49l-.31-.04c-.42.51-1.26.73-1.89.82l-1.3,3.58c1.96,2.18,1.49,4.61-1.81,9.27l3.07,2.97c4.07-3.09,8.27-10.44,5.56-16.2l-1.03-.13.81.5ZM213.51,86.89c.22.47-.57.71,0,0h0Z"/><path class="cls-6" d="M216.11,81.76l-.23-.42c-.22-.55-.8-1.81-1.45-1.81-.35,0-.73.43-.8.91l-3.48,1.36c-1.72-1.36-3.74-2.07-4.8-2.07h-.23c-4.81.25-8.18,3.77-9.76,5.84-3.58,4.69-5.37,9.92-4.79,14.01,1.01,7.1,7.67,12.88,14.86,12.88,1.71,0,3.38-.33,4.95-.98,8.75-3.61,13.52-14.42,14.38-23.54.99-10.6-3.23-20.72-11.37-27.13-.08-.07-.15-.14-.23-.2l.27-.19-.41-1.62-.95.98c-.23-.16-.45-.3-.66-.43l-.11.12c.1.09.15.19.22.29-.1-.08-.21-.14-.32-.2l-1.23,1.22.67-1.88c-4.04-2.43-9.11-3.72-14.7-3.72-4.38,0-9,.78-13.34,2.26-6.24,2.12-11.34,5.67-17.05,11.86-4.67,5.07-7.71,9.34-9.83,13.84-2.38,5.03-4.05,10.68-4.98,16.79-1.59,10.54-.83,22.69,2.14,34.22,2.73,10.59,8.65,19.77,17.12,26.54,2.52,2.01,5.27,3.42,8.18,4.92,1.7.87,3.45,1.77,5.17,2.8,1.15.69,2.71,1.82,3.06,3.69.26,1.35-.17,2.72-1.29,4.17-1.87,2.43-4.43,4.15-6.19,5.24-5.16,3.18-10.92,4.79-17.12,4.79-15.48,0-32.38-10.37-41.09-25.21l-.93-1.58,3.54-2.46c1.72,2.1,4.89,4.36,7.8,4.36,1.2,0,2.21-.4,3.09-1.2,2.82-2.58,1.01-8.25-.19-12.01l-.23-.72c-2.46-7.74-9.16-13.95-17.5-16.22-2.21-.61-4.52-.91-6.85-.91-6.84,0-13.71,2.67-18.83,7.34-3.43,3.11-6.5,7.3-8.65,11.78-1.22,2.55-1.91,4.84-2.1,7.02-.14,1.62-.48,3.18-.8,4.68-.24,1.09-.47,2.13-.62,3.16-.56,3.92-.27,8.16.01,12.26.05.7.1,1.39.14,2.08.26,4.12.38,8.19.47,11.29v.12c-.12,3.7-.56,7.89-4.43,10.93-3.04,2.38-7.04,3.81-10.73,3.81h-.28c-4.86-.13-9.7-1-14.39-1.87,1.32,1.88,2.68,3.8,4.07,5.66l.08.02c5.81,1.19,11.81,2.42,17.67,2.42,1.28,0,2.54-.05,3.73-.17,7.65-.76,14.13-4.54,18.25-10.64,4.07-6.05,5.43-13.35,3.64-19.54-.76-2.65-2.67-5.94-5.54-6.54-.29-.06-.58-.09-.86-.09-2.48,0-4.22,2.57-4.79,4.95l-4.26-.45c-.32-12.15.6-24.67,9.34-33.89,1.67-1.75,6.02-5.83,10.53-5.83,1.77,0,3.4.63,4.72,1.83,2.92,2.64,4.56,6.42,6.14,10.08.67,1.54,1.31,3,2,4.28,6.03,11.13,12.84,19.31,20.8,25.01,8.63,6.17,19.08,9.57,29.42,9.57,1.59,0,3.18-.08,4.74-.24,10.83-1.12,20.24-6.21,25.16-13.61,4.59-6.9,5.22-16.42,1.64-24.83-3.79-8.91-12.18-16.95-23.03-22.06l-.58-.27c-1.7-.81-3.8-1.81-5.43-1.81-.2,0-.39.01-.56.05-1.44.26-2.4,1.84-2.96,3.13-2.5,5.81.13,11.42,1.92,14.25,2.54,4.01,6.23,7.2,10.39,8.99,1.5.64,3.36,1.01,5.11,1.01,2.13,0,5.79-.53,6.4-4.12l3.94-.81c3.53,5.46,5.01,10.33,4.42,14.46l-3.16,1.59c-1.61-.87-3.53-1.2-5.56-1.56-1.13-.2-2.3-.4-3.44-.7l-.33-.09c-2.44-.62-4.96-1.27-7.37-2.37-2.7-1.24-4.95-3.26-7.03-5.22-3.98-3.75-7.12-8.07-9.34-12.86-4.93-10.61-7.05-24.23-5.83-37.38.81-8.8,3.65-21.3,12.54-30.84,3.43-3.67,7.75-6.93,13.61-10.24,4.86-2.75,9.37-4.09,13.78-4.09,1.57,0,3.14.18,4.66.53l1.02,3.65c-1.66,1.62-3.51,2.99-5.3,4.31-1.76,1.3-3.42,2.53-4.9,3.97-3.54,3.44-6.4,7.77-8.27,12.51-3.24,8.18-2.98,17.83.71,26.5,3.56,8.37,10.19,14.94,14.86,19.15,8.62,7.77,17.49,14.13,26.37,18.9l.1.06c.08-.93.15-1.86.21-2.8-.58-.31-1.17-.64-1.78-.97-.15-.09-.3-.18-.46-.26-.47-.27-.94-.53-1.42-.81-.33-.19-.66-.39-.98-.59-.33-.19-.65-.38-.97-.58-.66-.4-1.33-.82-1.99-1.26-9.33-6.1-16.36-11.76-22.1-17.82-5.04-5.31-10.96-12.62-12.03-21.98-1.1-9.68,2.35-20.08,8.78-26.5,2.71-2.7,6.2-4.91,10.99-6.94,2.02-.86,4.11-1.47,6.58-1.9.37-.07.77-.12,1.18-.18,1.34-.18,2.73-.38,3.32-1.04l3.31.09c4.23,5.35,6.52,11.41,6.8,18.03l-4.18.86c-.46-1.23-1.01-2.3-1.61-3.17ZM74.58,208.73c-1.12.11-2.3.16-3.52.16-5.4,0-11.03-1.11-16.51-2.23-.16-.22-.32-.44-.48-.66,3.22.52,6.33.89,9.51.97h.3c4.18.01,8.69-1.59,12.1-4.26.19-.15.37-.3.55-.46l-.17,1.93,2.42,3.49.49.14c-1.49.45-3.06.76-4.69.92ZM80.55,206.44l-2.41-3.49c1.08-1.1,1.84-2.41,2.39-4.12l4.08-.09c.24.63.46.95.62,1.12h.01s.08.09.13.12l.05,1.69v.39s.05,1.27.05,1.27c-1.45,1.26-3.1,2.3-4.92,3.11ZM85.26,181.17l2.33-1.65c.38-1.62,1.5-3.29,2.69-3.29.13,0,.27.01.42.04,1.79.38,3.28,2.87,3.9,5.03,1.62,5.58.36,12.21-3.35,17.73-1.05,1.55-2.26,2.94-3.62,4.15l-.04-1.19v-.23s-.01-.15-.01-.15l-.05-1.69-.7-1.41s-.06-.15-.06-.16l-.13-.35-2.07-1.41-4.08.08-.32.24c.93-2.57,1-5.07,1.06-6.76v-.19c-.07-2.65-.18-5.94-.36-9.38l.13.14,4.26.45ZM107.27,139.08c-1.73-1.56-3.86-2.39-6.17-2.39-5.15,0-9.79,4.07-12.09,6.5-1.72,1.81-3.15,3.73-4.34,5.73,1.97-3.67,4.56-7.05,7.4-9.64,4.34-3.95,10.04-6.35,15.83-6.72l-1.35,2.98.49,2.47c.78.72,1.42,1.8,1.97,2.9-.53-.64-1.1-1.26-1.74-1.83ZM113.45,146.28c-.49-1.53-.96-2.97-1.59-4.36-.8-1.81-1.8-4.05-3.34-5.49l1.68-3.73c2.9.28,5.72.99,8.86,2.24l.94,3.28c-.15.21-.26.45-.35.74l-.2.69c-.68,2.34-1.27,4.36-.84,6.99.18,1.09.5,2.29.92,3.49l-3.97,1.67c-.91-1.82-1.52-3.7-2.11-5.52ZM118.4,158.45c-.86-1.43-1.71-2.9-2.54-4.44-.09-.17-.18-.34-.27-.51l.81.3,3.97-1.68,1.19-2.71c-.38-1.08-.66-2.16-.82-3.12-.35-2.15.12-3.78.79-6.04l.2-.69.35-1.94-.54-1.85c4.86,2.81,8.57,7.22,10.2,12.36l.23.73c.91,2.84,2.59,8.11.8,9.75-.49.45-.98.64-1.64.64-2.08,0-4.71-1.84-6.13-3.57l-2.9-.41-3.54,2.46-.16.72ZM190.49,147.19l-3.94.81-1.7,1.75c-.26,1.54-1.7,2.32-4.27,2.32-1.44,0-3.04-.31-4.26-.84-3.76-1.61-7.1-4.51-9.41-8.15-1.57-2.47-3.88-7.35-1.77-12.24.62-1.44,1.21-1.84,1.36-1.87.05-.01.11-.01.18-.01,1.14,0,3.08.92,4.49,1.59l.59.29c8.66,4.06,15.66,10.05,19.83,16.81l-1.1-.46ZM182.64,165.18c1.22.32,2.43.53,3.61.74,1.85.32,3.6.63,4.91,1.33l1.99.03,2.4-1.21c-.5,3.08-1.6,5.98-3.27,8.51-3.77,5.67-10.44,9.88-18.39,11.77,2.14-.78,4.2-1.78,6.18-3,1.9-1.18,4.67-3.05,6.76-5.76,1.5-1.94,2.08-3.93,1.7-5.89-.57-3.04-3.2-4.62-4.07-5.14-1.01-.61-2.01-1.16-3-1.69.28.08,1.18.31,1.18.31ZM211.85,63.79l-1.67.72s.06-.06.08-.08c-.35.18-1.43.33-2.09.42-.44.06-.86.12-1.26.19-2.62.46-4.87,1.11-7.05,2.04-.71.3-1.39.61-2.05.92.88-.71,1.75-1.45,2.59-2.27l.57-2.13-1.02-3.65-1.59-1.53c-1.68-.38-3.42-.58-5.15-.58-4.8,0-9.65,1.43-14.84,4.37-2.76,1.56-5.19,3.11-7.36,4.7,3.97-3.6,7.83-5.91,12.28-7.42,4.13-1.41,8.5-2.15,12.65-2.15,4.5,0,8.62.89,12.05,2.57l-.05.14,3.55,2.26.31-.3v.27s.19.17.19.17c.56.44,1.11.91,1.63,1.39l-1.77-.05ZM215.46,85.98c2.71,5.76-1.49,13.11-5.56,16.2l-3.07-2.97c3.3-4.66,3.77-7.09,1.81-9.27l1.3-3.58c.63-.09,1.47-.31,1.89-.82l.31.04c-.18.13-.34.3-.47.49-.33.53-.38,1.19-.12,1.74l.69.09c.56-.29.97-.64,1.27-1.01.18.39.31.8.41,1.21l1.26.16c.2-.26.47-1.07.06-1.91l-.81-.5,1.03.13ZM205.23,81.89h.17c.43,0,1.99.49,3.4,1.6l2.14.32,3.15-1.23.12.21.12.21c.16.22.31.46.46.72h-.11s-.77,2.2-.77,2.2l-.82-.1-.69-2.39-.31-.04-1.95.79c.06-.07.11-.11.13-.12-.05.03-.26.1-.63.16l-1.48,1.2-.05-.22-1.29-1.53-.31-.13c-.67-.28-1.8-.74-3.17-.74-.89,0-1.74.19-2.52.56,1.26-.79,2.74-1.38,4.41-1.47ZM199.61,86.89c.39-.47,1.01-.87,1.76-1.36h.04v-.02c.58-.37,1.23-.55,1.93-.55.94,0,1.76.34,2.35.58l.31.13.78,3.51c-.27.28-.29.58-.09,1.85.14.88.31,1.98.07,3.13l-.22.58c-.8,1.49-2.33,1.93-3.35,2.22-.22.07-.44.13-.62.2-1.01.42-1.63,1.06-1.87,1.89l-3.93.52c-2.66-4.46-.66-9.5,2.84-12.68ZM218.15,87.04l4.18-.85.4-.51c-.02.68-.06,1.37-.12,2.06-.8,8.47-5.14,18.48-13.05,21.74-1.31.54-2.7.82-4.13.82-6.15,0-11.86-4.95-12.72-11.02-.25-1.79.07-3.92.87-6.13-.46,2.44-.15,5.04,1.33,7.53l2.14,1.04,3.94-.52,1.79-1.56c.06-.21.37-.38.62-.48.09-.04.19-.06.29-.09l.1-.03c.37-.11.83-.24,1.34-.44l.2,2.16,3.07,2.97,2.81.17c4.06-3.09,8.62-10.26,6.92-16.87h.02Z"/><path class="cls-2" d="M174.33,141.31c-.47-.96-.41-.45,0,0h0Z"/><path class="cls-6" d="M174.33,141.31c-.47-.96-.41-.45,0,0h0Z"/><path class="cls-2" d="M174.22,137.41c-.79-.51-1.62-1.03-2.19-1.15.12,1.83,1.09,3.72,2.31,5.06-.41-.45-.47-.96,0,0-.61-1.24-.81-2.64-.12-3.91Z"/><path class="cls-6" d="M174.22,137.41c-.79-.51-1.62-1.03-2.19-1.15.12,1.83,1.09,3.72,2.31,5.06-.41-.45-.47-.96,0,0-.61-1.24-.81-2.64-.12-3.91Z"/></g></svg>