<?xml version="1.0" encoding="UTF-8"?><svg id="Layer_2" xmlns="http://www.w3.org/2000/svg" viewBox="0 0 283.89 283.9"><defs><style>.cls-1,.cls-2{fill:#fff;}.cls-1,.cls-3{opacity:.65;}</style></defs><g id="Layer_1-2"><g class="cls-3"><path class="cls-2" d="M60.83,142.11c0-.05,0-.11,0-.16,0-49.02,31.67-80.84,80.62-81.11v-30.07c-61.18.27-110.7,49.94-110.7,111.18,0,.05,0,.11,0,.16h30.07Z"/><path class="cls-2" d="M253.13,141.63h-30.07c0,.11,0,.21,0,.32,0,49.18-31.93,81.12-81.12,81.12-.16,0-.33,0-.49,0v30.07c.16,0,.33,0,.49,0,61.41,0,111.19-49.78,111.19-111.19,0-.11,0-.21,0-.32Z"/></g><path class="cls-2" d="M142.15,255.64c-.07,0-.14,0-.2,0-62.58,0-113.34-50.56-113.68-113.06H0c.34,78.11,63.76,141.32,141.94,141.32.07,0,.14,0,.2,0v-28.26Z"/><path class="cls-2" d="M141.54,0v28.26c.13,0,.27,0,.4,0,62.79,0,113.69,50.9,113.69,113.69,0,.21,0,.42,0,.63h28.26c0-.21,0-.42,0-.63C283.89,63.55,220.34,0,141.94,0c-.13,0-.27,0-.4,0Z"/><path class="cls-1" d="M175.9,183.61c-1.66,0-4.55-.03-6.08-.27-3.95-.64-4.86.87-6.1,3.74-2.23,5.17-5.2,9.92-9.4,13.8-7.54,6.98-17.04,7.01-24.59.07-4.76-4.38-7.95-9.81-10.31-15.75-.72-1.81-1.45-2.31-3.62-2.06-5.87.68-11.8.95-17.61-.77-11.8-3.49-16.52-12.34-12.76-24.05,1.7-5.3,4.46-10.04,7.89-14.37,1.21-1.52,1.18-2.42,0-3.92-3.41-4.33-6.16-9.06-7.87-14.35-3.98-12.36,2.26-22.61,15.1-24.71,4.95-.81,9.92-1.06,14.89-.11,2.14.41,3.27-.22,4.12-2.41,2.08-5.34,5-10.26,9.06-14.38,8.2-8.33,18.35-8.37,26.61-.1,4.09,4.1,7.11,8.99,9.08,14.35,1,2.72,2.41,2.81,4.62,2.47,5.5-.84,10.96-.72,16.37.71,12,3.19,16.94,12.19,13.23,24.03-1.7,5.42-4.51,10.23-8,14.64-1.15,1.45-1.06,2.27.01,3.68,3.78,4.97,7.03,10.25,8.43,16.46,2.63,11.65-3.09,20.28-14.89,22.57-3.09.6-5.07.87-8.19.76ZM167.14,141.95c0-3.74-.2-7.35-.26-11.1-.03-1.8-.51-3.29-2.23-4.46-6.7-4.55-13.67-8.59-20.99-12.05-1.25-.59-2.21-.49-3.45.08-7.36,3.39-14.32,7.45-20.98,12.06-1.45,1-2.03,2.13-2.15,3.83-.55,7.8-.53,15.59,0,23.39.11,1.54.59,2.67,1.95,3.62,6.73,4.7,13.84,8.74,21.23,12.28,1.25.6,2.26.55,3.48-.04,5.15-2.46,10.02-5.43,15.05-8.09,5.84-3.08,8.41-3.88,8.35-14.12-.01-2.12-.02-4.44,0-5.43ZM108.49,105.35c-3.07-.14-6.46.32-9.75,1.3-6.97,2.08-9.95,6.49-9.2,13.74.63,6.07,3.89,11,7.23,15.89,1.02,1.5,1.59,1.72,2.91.28,3.51-3.83,7.39-7.3,11.56-10.4,1.03-.77,1.4-1.64,1.6-2.8.63-3.56,1.2-7.14,2.05-10.65,1.78-7.34,1.85-7.32-6.4-7.36ZM167.37,106.16c1.71,5.85,2.9,11.71,3.82,17.62.15.99.59,1.67,1.39,2.27,4.31,3.26,8.31,6.88,12,10.83.76.82,1.26,1.19,2.12.01,3.44-4.71,6.45-9.65,7.65-15.42,1.45-6.99-1.56-12.21-8.44-14.53-6.01-2.03-12.18-2.08-18.54-.77ZM142.28,201.01c2.39.13,4.63-.84,6.69-2.35,5.31-3.88,8.23-9.47,10.89-15.25.63-1.38.11-1.65-1.21-1.96-5.22-1.26-10.33-2.95-15.29-5.01-1.09-.45-1.88-.36-2.91.06-4.87,2-9.86,3.7-14.99,4.9-1.76.41-1.86.94-1.19,2.45,1.91,4.29,4.15,8.37,7.33,11.83,2.79,3.04,5.98,5.49,10.67,5.33ZM98.19,146.08c-4.28,5.18-6.93,10.07-8.3,15.24-2.06,7.79,1.1,13.45,8.81,15.94,5.29,1.71,10.68,1.22,16.07,1.02,1.56-.06,1.84-.83,1.37-2.29-1.54-4.85-2.44-9.84-3.25-14.85-.15-.95.02-2.04-1.01-2.81-4.92-3.67-9.39-7.86-13.69-12.24ZM123.54,102.02c6.03,1.57,11.85,3.31,17.47,5.66.6.25,1.5.19,2.11-.06,5.16-2.16,10.46-3.85,15.88-5.18,1.32-.32,1.3-.86.82-1.94-2.37-5.34-5.17-10.39-9.67-14.28-5.15-4.46-10.77-4.56-16.03-.24-5.13,4.21-8.11,9.85-10.59,16.04ZM174.83,178.56c2.18-.11,4.39-.04,6.53-.37,1.92-.3,3.84-.87,5.65-1.6,5.33-2.16,7.78-5.91,7.51-11.62-.33-7.07-4.07-12.68-8.07-18.15-.91-1.25-1.38-.16-1.88.36-2.94,3.09-5.98,6.13-9.42,8.63-2.78,2.02-4.43,4.27-4.55,7.85-.09,2.55-.96,5.07-1.57,7.59q-1.73,7.16,5.8,7.31ZM171.92,151.74c3.9-2.79,6.69-5.83,9.57-8.76.53-.53,1.05-1.02.31-1.77-3-3.05-5.92-6.19-9.86-8.89.48,6.59.49,12.69-.02,19.42ZM118.4,163.13c.82,4.53,1.53,8.46,2.88,12.25.24.67-.04,1.85,1.38,1.48,4.15-1.09,8.35-2.03,12.72-4.03-6.07-2.86-11.31-6.08-16.98-9.69ZM135.28,111.09c-4.07-1.87-8.08-2.77-12.03-3.86-1.35-.37-1.71.3-2.07,1.49-1.16,3.84-2.05,7.73-2.73,12.13,5.53-3.67,10.96-6.76,16.83-9.76ZM165.38,163.22c-5.51,3.61-10.91,6.69-16.9,9.74,4.39,1.58,8.25,2.84,12.24,3.72,1.19.26,1.63.13,1.95-1.08,1.07-3.95,2.25-7.88,2.7-12.39ZM165.43,120.82c-.59-4.7-1.68-8.56-2.75-12.42-.28-1-.67-1.44-1.71-1.19-4.08.98-8.13,2.03-12.32,3.88,5.79,2.97,11.13,5.98,16.77,9.73ZM112.1,132.11c-3.99,2.99-6.93,6-9.84,9.04-.3.31-.91.59-.34,1.21,3,3.3,6.19,6.4,10.29,9.72-.92-7.03-.83-13.12-.1-19.97Z"/><path class="cls-2" d="M141.25,163.16c-5.55-3.43-10.7-6.68-15.93-9.8-1.19-.71-1.06-1.65-1.06-2.67-.01-5.81,0-11.62,0-17.95,5.53,3.41,10.78,6.67,16.06,9.87.87.53.94,1.23.94,2.05,0,6.01,0,12.02,0,18.5Z"/><path class="cls-2" d="M143.28,163.18c0-6.51.03-12.53-.03-18.54-.01-1.28.67-1.83,1.6-2.4,5.01-3.06,10-6.15,15.45-9.51,0,6.49,0,12.57,0,18.66,0,.88-.28,1.46-1.1,1.96-5.2,3.16-10.37,6.38-15.94,9.83Z"/><path class="cls-2" d="M158.64,131.14c-5.32,3.28-10.26,6.25-15.11,9.36-1.34.86-2.16.16-3.12-.43-4.65-2.85-9.28-5.73-14.45-8.92,5.42-3.37,10.56-6.57,15.71-9.76.59-.37,1.09-.09,1.6.23,5,3.11,10.01,6.2,15.37,9.52Z"/></g></svg>