<?xml version="1.0" encoding="UTF-8"?><svg id="Layer_2" xmlns="http://www.w3.org/2000/svg" viewBox="0 0 283.9 283.89"><defs><style>.cls-1{fill:none;}.cls-2{opacity:.4;}.cls-2,.cls-3,.cls-4{fill:#1b3764;}.cls-3{opacity:.65;}</style></defs><g id="Layer_1-2"><path class="cls-4" d="M283.9,142.76h-29.44c0-62.49-50.84-113.33-113.33-113.33V0c78.72,0,142.77,64.04,142.77,142.76Z"/><path class="cls-4" d="M142.76,283.89C64.04,283.89,0,219.85,0,141.13h29.44c0,62.49,50.84,113.32,113.33,113.32v29.44Z"/><path class="cls-3" d="M58.28,141.25h-29.44c0-62.89,51.16-114.05,114.05-114.05v29.44c-46.65,0-84.61,37.96-84.61,84.61Z"/><path class="cls-3" d="M141.2,254.17v-29.44c46.15,0,83.7-37.55,83.7-83.7h29.44c0,62.38-50.75,113.14-113.14,113.14Z"/><path class="cls-1" d="M128.15,152.9c.26.31.52.61.8.9v-.9h-.8Z"/><path class="cls-1" d="M128.94,127.13c-.27.28-.53.57-.78.87h.78v-.87Z"/><path class="cls-1" d="M157.13,153.82c.28-.3.56-.61.82-.92h-.82v.92Z"/><path class="cls-1" d="M157.93,128c-.26-.31-.52-.61-.8-.9v.9h.8Z"/><path class="cls-4" d="M199.7,156.18l-10.5-9.56c.27-2.01.41-4.08.41-6.16s-.15-4.15-.41-6.16l10.5-9.56c1.67-1.5,2.33-3.86,1.55-5.97l.02-.02c-1.07-2.89-2.35-5.65-3.83-8.32l-1.14-1.97c-1.6-2.67-3.4-5.19-5.36-7.57-1.43-1.72-3.81-2.33-5.94-1.65l-13.51,4.29c-3.25-2.5-6.84-4.59-10.67-6.16l-3.03-13.85c-.49-2.21-2.18-3.95-4.42-4.32-3.35-.56-6.79-.85-10.31-.85s-6.96.29-10.31.87c-2.23.36-3.93,2.11-4.42,4.32l-3.03,13.85c-3.83,1.58-7.42,3.66-10.67,6.16l-13.51-4.29c-2.13-.68-4.51-.1-5.94,1.65-1.97,2.38-3.76,4.9-5.36,7.57l-1.14,1.97c-1.48,2.67-2.77,5.43-3.83,8.32-.78,2.11-.12,4.46,1.55,5.97l10.5,9.56c-.27,2.01-.41,4.08-.41,6.16s.15,4.15.41,6.19l-10.5,9.56c-1.67,1.5-2.33,3.86-1.55,5.97,1.07,2.89,2.35,5.65,3.83,8.32l1.14,1.97c1.6,2.67,3.4,5.19,5.36,7.57,1.43,1.72,3.81,2.33,5.94,1.65l13.49-4.32c3.25,2.5,6.84,4.59,10.67,6.16l3.03,13.85c.49,2.21,2.18,3.95,4.42,4.32,3.35.56,6.79.85,10.31.85s6.96-.29,10.31-.85c2.23-.36,3.93-2.11,4.42-4.32l3.03-13.85c3.83-1.58,7.42-3.66,10.67-6.16l13.51,4.29c2.13.68,4.51.1,5.94-1.65,1.97-2.38,3.76-4.9,5.36-7.57l1.14-1.97c1.48-2.67,2.77-5.43,3.83-8.32.78-2.11.12-4.46-1.55-5.97ZM181.32,152.9h-23.37c-.26.32-.54.62-.82.92v25.85h-28.19v-25.88c-.27-.29-.54-.59-.8-.9h-23.4v-24.9h23.42c.25-.3.51-.59.78-.87v-25.9h28.19v25.88c.28.29.54.59.8.9h23.39v24.9Z"/><path class="cls-2" d="M143.05,159.87c-5.56,0-10.57-2.33-14.11-6.07v25.88h28.19v-25.85c-3.54,3.73-8.54,6.05-14.08,6.05Z"/><path class="cls-2" d="M143.05,121.05c5.55,0,10.55,2.32,14.08,6.05v-25.88h-28.19v25.9c3.54-3.74,8.55-6.07,14.11-6.07Z"/><path class="cls-2" d="M162.46,140.46c0,4.73-1.69,9.07-4.51,12.44h23.37v-24.9h-23.39c2.83,3.37,4.53,7.72,4.53,12.46Z"/><path class="cls-2" d="M128.17,128h-23.42v24.9h23.4c-2.81-3.37-4.51-7.7-4.51-12.44s1.7-9.09,4.53-12.46Z"/></g></svg>