<?xml version="1.0" encoding="utf-8"?>
<!-- Generator: Adobe Illustrator 16.0.4, SVG Export Plug-In . SVG Version: 6.00 Build 0)  -->
<!DOCTYPE svg PUBLIC "-//W3C//DTD SVG 1.1//EN" "http://www.w3.org/Graphics/SVG/1.1/DTD/svg11.dtd">
<svg version="1.1"
	 id="svg6118" xmlns:dc="http://purl.org/dc/elements/1.1/" xmlns:cc="http://creativecommons.org/ns#" xmlns:rdf="http://www.w3.org/1999/02/22-rdf-syntax-ns#" xmlns:svg="http://www.w3.org/2000/svg" xmlns:sodipodi="http://sodipodi.sourceforge.net/DTD/sodipodi-0.dtd" xmlns:inkscape="http://www.inkscape.org/namespaces/inkscape" sodipodi:docname="New document 10" inkscape:version="0.48.4 r9939"
	 xmlns="http://www.w3.org/2000/svg" xmlns:xlink="http://www.w3.org/1999/xlink" x="0px" y="0px" width="744.094px"
	 height="1052.363px" viewBox="0 0 744.094 1052.363" enable-background="new 0 0 744.094 1052.363" xml:space="preserve">
<sodipodi:namedview  showgrid="false" inkscape:cy="561.73251" inkscape:cx="335.33165" inkscape:zoom="1.979899" borderopacity="1.0" bordercolor="#666666" pagecolor="#ffffff" id="base" inkscape:window-maximized="0" inkscape:window-y="225" inkscape:current-layer="layer1" inkscape:document-units="px" inkscape:pageopacity="0.0" inkscape:window-x="225" inkscape:window-height="1182" inkscape:window-width="1281" inkscape:pageshadow="2">
	</sodipodi:namedview>
<g id="layer1" inkscape:label="Layer 1" inkscape:groupmode="layer">
	
		<path id="path6155" sodipodi:type="star" sodipodi:sides="4" sodipodi:cx="209.60664" sodipodi:cy="389.19705" sodipodi:r1="16.940773" sodipodi:r2="8.4703875" sodipodi:arg1="1.3909428" sodipodi:arg2="2.176341" inkscape:flatsided="false" inkscape:rounded="0" inkscape:randomized="0" fill="#959595" d="
		M254.402,429.256l-6.72-8.218l-10.138-3.332l8.304-6.65l3.367-10.033l6.72,8.219l10.138,3.331l-8.305,6.65L254.402,429.256z"/>
	
		<path id="path6153" sodipodi:type="star" sodipodi:sides="4" sodipodi:cx="209.60664" sodipodi:cy="389.19705" sodipodi:r1="16.940773" sodipodi:r2="8.4703875" sodipodi:arg1="1.3909428" sodipodi:arg2="2.176341" inkscape:flatsided="false" inkscape:rounded="0" inkscape:randomized="0" fill="#959595" d="
		M224.024,460.005l-5.71-6.763l-8.615-2.742l7.057-5.473l2.861-8.256l5.71,6.763l8.615,2.742l-7.057,5.472L224.024,460.005z"/>
	<path id="path3131" inkscape:connector-curvature="0" fill="#213462" d="M225.186,339.963c10.096,0.001,19.664,2.04,28.384,5.728
		c13.075,5.527,24.23,14.788,32.095,26.433c7.865,11.65,12.446,25.63,12.45,40.766h18.945c0.001-12.659-2.571-24.766-7.225-35.763
		c-6.981-16.5-18.618-30.507-33.275-40.412c-14.652-9.905-32.379-15.7-51.374-15.696V339.963"/>
	<path id="path3133" inkscape:connector-curvature="0" fill="#213462" d="M226.239,484.762c-10.095-0.001-19.664-2.041-28.384-5.727
		c-13.075-5.528-24.229-14.788-32.094-26.432c-7.864-11.65-12.445-25.63-12.449-40.768h-18.944
		c-0.001,12.659,2.57,24.768,7.223,35.764c6.981,16.499,18.617,30.508,33.275,40.411c14.651,9.904,32.378,15.699,51.373,15.695
		V484.762"/>
	<path id="path3135" inkscape:connector-curvature="0" fill="#959595" d="M171.875,411.917c0.001-7.544,1.523-14.681,4.275-21.191
		c4.125-9.759,11.042-18.091,19.737-23.964c8.701-5.871,19.126-9.289,30.435-9.292v-18.945c-10.107-0.001-19.784,2.054-28.57,5.773
		c-13.183,5.577-24.37,14.871-32.281,26.579c-7.912,11.703-12.543,25.874-12.54,41.041H171.875"/>
	<path id="path3137" inkscape:connector-curvature="0" fill="#959595" d="M279.094,411.776c-0.001,7.462-1.506,14.522-4.229,20.961
		c-4.081,9.653-10.922,17.896-19.524,23.706c-8.608,5.808-18.92,9.188-30.107,9.192v18.944c10.026,0.001,19.626-2.038,28.341-5.726
		c13.078-5.533,24.175-14.752,32.024-26.366c7.849-11.608,12.444-25.667,12.44-40.712H279.094"/>
	
		<path id="path6143" sodipodi:type="star" sodipodi:sides="4" sodipodi:cx="209.60664" sodipodi:cy="389.19705" sodipodi:r1="16.940773" sodipodi:r2="8.4703875" sodipodi:arg1="1.3909428" sodipodi:arg2="2.176341" inkscape:flatsided="false" inkscape:rounded="0" inkscape:randomized="0" fill="#213462" d="
		M221.22,418.605l-10.696-14.979l-15.974-5.92l12.915-12.406l5.104-18.527l10.696,14.979l15.974,5.919l-12.915,12.406
		L221.22,418.605z"/>
	
		<path id="path6145" sodipodi:type="star" sodipodi:sides="4" sodipodi:cx="209.60664" sodipodi:cy="389.19705" sodipodi:r1="16.940773" sodipodi:r2="8.4703875" sodipodi:arg1="1.3909428" sodipodi:arg2="2.176341" inkscape:flatsided="false" inkscape:rounded="0" inkscape:randomized="0" fill="#213462" d="
		M220.31,453.934l-5.71-6.763l-8.615-2.742l7.057-5.473l2.861-8.256l5.71,6.763l8.615,2.741l-7.057,5.473L220.31,453.934z"/>
	
		<path id="path6147" sodipodi:type="star" sodipodi:sides="4" sodipodi:cx="209.60664" sodipodi:cy="389.19705" sodipodi:r1="16.940773" sodipodi:r2="8.4703875" sodipodi:arg1="1.3909428" sodipodi:arg2="2.176341" inkscape:flatsided="false" inkscape:rounded="0" inkscape:randomized="0" fill="#213462" d="
		M249.402,434.185l-6.72-8.218l-10.138-3.332l8.304-6.65l3.367-10.033l6.72,8.219l10.138,3.331l-8.305,6.65L249.402,434.185z"/>
</g>
</svg>
