<?xml version="1.0" encoding="utf-8"?>
<!-- Generator: Adobe Illustrator 16.0.4, SVG Export Plug-In . SVG Version: 6.00 Build 0)  -->
<!DOCTYPE svg PUBLIC "-//W3C//DTD SVG 1.1//EN" "http://www.w3.org/Graphics/SVG/1.1/DTD/svg11.dtd">
<svg version="1.1" id="Layer_1" xmlns="http://www.w3.org/2000/svg" xmlns:xlink="http://www.w3.org/1999/xlink" x="0px" y="0px"
	 width="1224px" height="792px" viewBox="0 0 1224 792" enable-background="new 0 0 1224 792" xml:space="preserve">
<rect x="99.002" y="31" fill="none" width="42.089" height="53.454"/>
<text transform="matrix(1 0 0 1 99.002 76.4399)" font-family="'MyriadPro-Regular'" font-size="64">1</text>
<g id="SkyQuery">
	<g id="Border_for_SkyQuery">
		<path fill-rule="evenodd" clip-rule="evenodd" fill="none" stroke="#1C3664" stroke-width="15.1554" stroke-miterlimit="10" d="
			M112.587,98.492c36.406,0,65.921,29.514,65.921,65.919"/>
		<path fill-rule="evenodd" clip-rule="evenodd" fill="none" stroke="#1C3664" stroke-width="15.1554" stroke-miterlimit="10" d="
			M113.43,229.486c-36.406,0-65.919-29.512-65.919-65.918"/>
		<path fill-rule="evenodd" clip-rule="evenodd" fill="none" stroke="#999999" stroke-width="15.1554" stroke-miterlimit="10" d="
			M62.36,163.633c0-28.241,22.894-51.136,51.135-51.136"/>
		<path fill-rule="evenodd" clip-rule="evenodd" fill="none" stroke="#999999" stroke-width="15.1554" stroke-miterlimit="10" d="
			M163.291,163.52c0,27.982-22.685,50.666-50.666,50.666"/>
	</g>
	<rect x="88.728" y="134" fill="none" width="93.272" height="60"/>
	<text transform="matrix(1 0 0 1 88.7275 179.4395)" fill="#1C3664" font-family="'MyriadPro-Bold'" font-size="64">Q</text>
</g>
<rect x="194.908" y="121.727" fill="none" width="26.092" height="35.273"/>
<text id="SkyQuery_small" transform="matrix(1 0 0 1 194.9087 144.4463)" font-family="'MyriadPro-Regular'" font-size="32">Q</text>
<g id="Border_for_SkyQuery_2_">
	<path fill-rule="evenodd" clip-rule="evenodd" fill="none" stroke="#1C3664" stroke-width="15.1554" stroke-miterlimit="10" d="
		M302.587,98.492c36.406,0,65.921,29.514,65.921,65.919"/>
	<path fill-rule="evenodd" clip-rule="evenodd" fill="none" stroke="#1C3664" stroke-width="15.1554" stroke-miterlimit="10" d="
		M303.43,229.486c-36.406,0-65.919-29.512-65.919-65.918"/>
	<path fill-rule="evenodd" clip-rule="evenodd" fill="none" stroke="#999999" stroke-width="15.1554" stroke-miterlimit="10" d="
		M252.36,163.633c0-28.241,22.894-51.136,51.135-51.136"/>
	<path fill-rule="evenodd" clip-rule="evenodd" fill="none" stroke="#999999" stroke-width="15.1554" stroke-miterlimit="10" d="
		M353.291,163.52c0,27.982-22.685,50.666-50.666,50.666"/>
</g>
<rect x="278.728" y="139" fill="none" width="96.062" height="79.158"/>
<text transform="matrix(1 0 0 1 278.7275 190.0479)" fill="#1C3664" font-family="'Wingdings3'" font-size="72"></text>
<rect x="397.908" y="124.727" fill="none" width="43.46" height="37.8"/>
<text id="SkyQuery_small_2_" transform="matrix(1 0 0 1 397.9082 147.4141)" font-family="'Wingdings3'" font-size="32"></text>
<g id="Border_for_SkyQuery_3_">
	<path fill-rule="evenodd" clip-rule="evenodd" fill="none" stroke="#1C3664" stroke-width="15.1554" stroke-miterlimit="10" d="
		M532.587,98.492c36.406,0,65.921,29.514,65.921,65.919"/>
	<path fill-rule="evenodd" clip-rule="evenodd" fill="none" stroke="#1C3664" stroke-width="15.1554" stroke-miterlimit="10" d="
		M533.43,229.486c-36.406,0-65.919-29.512-65.919-65.918"/>
	<path fill-rule="evenodd" clip-rule="evenodd" fill="none" stroke="#999999" stroke-width="15.1554" stroke-miterlimit="10" d="
		M482.36,163.633c0-28.241,22.894-51.136,51.135-51.136"/>
	<path fill-rule="evenodd" clip-rule="evenodd" fill="none" stroke="#999999" stroke-width="15.1554" stroke-miterlimit="10" d="
		M583.291,163.52c0,27.982-22.685,50.666-50.666,50.666"/>
</g>
<line fill="#1C3664" stroke="#1C3664" stroke-width="11.4108" stroke-miterlimit="10" x1="530.526" y1="163.526" x2="591" y2="224"/>
<g id="Border_for_SkyQuery_4_">
	<path fill-rule="evenodd" clip-rule="evenodd" fill="none" stroke="#000000" stroke-width="3.5643" stroke-miterlimit="10" d="
		M642.815,118.492c8.562,0,15.504,6.941,15.504,15.503"/>
	<path fill-rule="evenodd" clip-rule="evenodd" fill="none" stroke="#000000" stroke-width="3.5643" stroke-miterlimit="10" d="
		M643.014,149.3c-8.562,0-15.503-6.941-15.503-15.503"/>
	<path fill-rule="evenodd" clip-rule="evenodd" fill="none" stroke="#000000" stroke-width="3.5643" stroke-miterlimit="10" d="
		M631.004,133.812c0-6.641,5.384-12.026,12.025-12.026"/>
	<path fill-rule="evenodd" clip-rule="evenodd" fill="none" stroke="#000000" stroke-width="3.5643" stroke-miterlimit="10" d="
		M654.741,133.786c0,6.581-5.336,11.916-11.917,11.916"/>
</g>
<line stroke="#000000" stroke-width="2.6837" stroke-miterlimit="10" x1="643.331" y1="134.788" x2="657.554" y2="149.01"/>
<rect x="292.002" y="31" fill="none" width="42.089" height="53.454"/>
<text transform="matrix(1 0 0 1 292.002 76.4399)" font-family="'MyriadPro-Regular'" font-size="64">3</text>
<rect x="518.002" y="31" fill="none" width="42.089" height="53.454"/>
<text transform="matrix(1 0 0 1 518.002 76.4399)" font-family="'MyriadPro-Regular'" font-size="64">4</text>
<g id="Border_for_SkyQuery_1_">
	<path fill-rule="evenodd" clip-rule="evenodd" fill="none" stroke="#1C3664" stroke-width="15.1554" stroke-miterlimit="10" d="
		M771.587,99.492c36.406,0,65.921,29.514,65.921,65.919"/>
	<path fill-rule="evenodd" clip-rule="evenodd" fill="none" stroke="#1C3664" stroke-width="15.1554" stroke-miterlimit="10" d="
		M772.43,230.486c-36.406,0-65.919-29.512-65.919-65.918"/>
	<path fill-rule="evenodd" clip-rule="evenodd" fill="none" stroke="#999999" stroke-width="15.1554" stroke-miterlimit="10" d="
		M721.36,164.633c0-28.241,22.894-51.136,51.135-51.136"/>
	<path fill-rule="evenodd" clip-rule="evenodd" fill="none" stroke="#999999" stroke-width="15.1554" stroke-miterlimit="10" d="
		M822.291,164.52c0,27.982-22.685,50.666-50.666,50.666"/>
</g>
<rect x="737.053" y="142.368" fill="none" width="23.684" height="30.79"/>
<text transform="matrix(1 0 0 1 737.0527 155.0879)" fill="#1C3664" font-family="'Wingdings2'" font-size="24"></text>
<rect x="730.053" y="188.368" fill="none" width="23.684" height="30.79"/>
<text transform="matrix(1 0 0 1 730.0527 201.0879)" fill="#1C3664" font-family="'Wingdings2'" font-size="24"></text>
<rect x="759.053" y="167.368" fill="none" width="23.684" height="30.79"/>
<text transform="matrix(1 0 0 1 759.0527 180.0879)" fill="#1C3664" font-family="'Wingdings2'" font-size="24"></text>
<rect x="776.053" y="144.368" fill="none" width="22.121" height="16.187"/>
<text transform="matrix(1 0 0 1 776.0527 157.0879)" fill="#1C3664" font-family="'Wingdings2'" font-size="24"></text>
<rect x="780.053" y="118.368" fill="none" width="23.174" height="20.6"/>
<text transform="matrix(1 0 0 1 780.0527 131.0879)" fill="#1C3664" font-family="'Wingdings2'" font-size="24"></text>
<rect x="790.053" y="173.368" fill="none" width="23.684" height="30.79"/>
<text transform="matrix(1 0 0 1 790.0527 186.0879)" fill="#1C3664" font-family="'Wingdings2'" font-size="24"></text>
<rect x="736.002" y="33" fill="none" width="72.998" height="48"/>
<text transform="matrix(1 0 0 1 736.002 78.4395)" font-family="'MyriadPro-Regular'" font-size="64">6d</text>
<g id="Border_for_SkyQuery_13_">
	<path fill-rule="evenodd" clip-rule="evenodd" fill="none" stroke="#000000" stroke-width="3.2814" stroke-miterlimit="10" d="
		M862.761,114.65c7.883,0,14.272,6.39,14.272,14.273"/>
	<path fill-rule="evenodd" clip-rule="evenodd" fill="none" stroke="#000000" stroke-width="3.2814" stroke-miterlimit="10" d="
		M862.943,143.013c-7.883,0-14.273-6.39-14.273-14.272"/>
	<path fill-rule="evenodd" clip-rule="evenodd" fill="none" stroke="#000000" stroke-width="3.2814" stroke-miterlimit="10" d="
		M851.886,128.754c0-6.114,4.956-11.072,11.071-11.072"/>
	<path fill-rule="evenodd" clip-rule="evenodd" fill="none" stroke="#000000" stroke-width="3.2814" stroke-miterlimit="10" d="
		M873.739,128.729c0,6.06-4.911,10.97-10.97,10.97"/>
</g>
<rect x="853.053" y="131.368" fill="none" width="7.891" height="4.583"/>
<text transform="matrix(1 0 0 1 853.0527 134.5479)" font-family="'Wingdings2'" font-size="6"></text>
<rect x="863.053" y="121.368" fill="none" width="7.891" height="4.583"/>
<text transform="matrix(1 0 0 1 863.0527 124.5479)" font-family="'Wingdings2'" font-size="6"></text>
<rect x="863.053" y="130.368" fill="none" width="7.891" height="4.583"/>
<text transform="matrix(1 0 0 1 863.0527 133.5479)" font-family="'Wingdings2'" font-size="6"></text>
<g id="Border_for_SkyQuery_5_">
	<path fill-rule="evenodd" clip-rule="evenodd" fill="none" stroke="#1C3664" stroke-width="15.1554" stroke-miterlimit="10" d="
		M112.587,327.492c36.406,0,65.921,29.514,65.921,65.919"/>
	<path fill-rule="evenodd" clip-rule="evenodd" fill="none" stroke="#1C3664" stroke-width="15.1554" stroke-miterlimit="10" d="
		M113.43,458.486c-36.406,0-65.919-29.512-65.919-65.918"/>
	<path fill-rule="evenodd" clip-rule="evenodd" fill="none" stroke="#999999" stroke-width="15.1554" stroke-miterlimit="10" d="
		M62.36,392.633c0-28.241,22.894-51.136,51.135-51.136"/>
	<path fill-rule="evenodd" clip-rule="evenodd" fill="none" stroke="#999999" stroke-width="15.1554" stroke-miterlimit="10" d="
		M163.291,392.52c0,27.982-22.685,50.666-50.666,50.666"/>
</g>
<line fill="#1C3664" stroke="#1C3664" stroke-width="11" stroke-miterlimit="10" x1="109.526" y1="392.526" x2="152.036" y2="435.035"/>
<path fill-rule="evenodd" clip-rule="evenodd" fill="none" stroke="#1C3664" stroke-width="15.1554" stroke-miterlimit="10" d="
	M302.587,327.492c36.406,0,65.921,29.514,65.921,65.919"/>
<path fill-rule="evenodd" clip-rule="evenodd" fill="none" stroke="#1C3664" stroke-width="15.1554" stroke-miterlimit="10" d="
	M303.43,458.486c-36.406,0-65.919-29.512-65.919-65.918"/>
<path fill-rule="evenodd" clip-rule="evenodd" fill="none" stroke="#999999" stroke-width="15.1554" stroke-miterlimit="10" d="
	M252.36,392.633c0-28.241,22.894-51.136,51.135-51.136"/>
<path fill-rule="evenodd" clip-rule="evenodd" fill="none" stroke="#999999" stroke-width="15.1554" stroke-miterlimit="10" d="
	M353.291,392.52c0,27.982-22.685,50.666-50.666,50.666"/>
<line fill="#1C3664" stroke="#1C3664" stroke-width="5.9876" stroke-miterlimit="10" x1="318.098" y1="410.63" x2="340.036" y2="435.035"/>
<circle fill-rule="evenodd" clip-rule="evenodd" fill="none" stroke="#999999" stroke-width="5" stroke-miterlimit="10" cx="304.598" cy="395.018" r="21.396"/>
<g id="Border_for_SkyQuery_6_">
	<path fill-rule="evenodd" clip-rule="evenodd" fill="none" stroke="#1C3664" stroke-width="15.1554" stroke-miterlimit="10" d="
		M495.587,329.492c36.406,0,65.921,29.514,65.921,65.919"/>
	<path fill-rule="evenodd" clip-rule="evenodd" fill="none" stroke="#1C3664" stroke-width="15.1554" stroke-miterlimit="10" d="
		M496.43,460.486c-36.406,0-65.919-29.512-65.919-65.918"/>
	<path fill-rule="evenodd" clip-rule="evenodd" fill="none" stroke="#999999" stroke-width="15.1554" stroke-miterlimit="10" d="
		M445.36,394.633c0-28.241,22.894-51.136,51.135-51.136"/>
	<path fill-rule="evenodd" clip-rule="evenodd" fill="none" stroke="#999999" stroke-width="15.1554" stroke-miterlimit="10" d="
		M546.291,394.52c0,27.982-22.685,50.666-50.666,50.666"/>
</g>
<rect x="461.053" y="372.368" fill="none" width="23.01" height="18.217"/>
<text transform="matrix(1 0 0 1 461.0527 385.0879)" fill="#1C3664" font-family="'Wingdings2'" font-size="24"></text>
<rect x="454.053" y="418.368" fill="none" width="22.803" height="17.263"/>
<text transform="matrix(1 0 0 1 454.0527 431.0879)" fill="#1C3664" font-family="'Wingdings2'" font-size="24"></text>
<rect x="495.053" y="364.368" fill="none" width="22.121" height="16.187"/>
<text transform="matrix(1 0 0 1 495.0527 377.0879)" fill="#1C3664" font-family="'Wingdings2'" font-size="24"></text>
<rect x="514.053" y="403.368" fill="none" width="23.684" height="30.79"/>
<text transform="matrix(1 0 0 1 514.0527 416.0879)" fill="#1C3664" font-family="'Wingdings2'" font-size="24"></text>
<rect x="466.053" y="380.368" fill="none" width="23.01" height="18.218"/>
<text transform="matrix(1 0 0 1 466.0527 393.0879)" fill="#989898" font-family="'Wingdings2'" font-size="24"></text>
<rect x="461.053" y="414.368" fill="none" width="23.01" height="18.218"/>
<text transform="matrix(1 0 0 1 461.0527 427.0879)" fill="#989898" font-family="'Wingdings2'" font-size="24"></text>
<rect x="512.053" y="406.368" fill="none" width="23.01" height="18.218"/>
<text transform="matrix(1 0 0 1 512.0527 419.0879)" fill="#989898" font-family="'Wingdings2'" font-size="24"></text>
<rect x="505.053" y="371.368" fill="none" width="23.01" height="18.218"/>
<text transform="matrix(1 0 0 1 505.0527 384.0879)" fill="#989898" font-family="'Wingdings2'" font-size="24"></text>
<path fill-rule="evenodd" clip-rule="evenodd" fill="none" stroke="#1C3664" stroke-width="15.1554" stroke-miterlimit="10" d="
	M682.587,327.492c36.406,0,65.921,29.514,65.921,65.919"/>
<path fill-rule="evenodd" clip-rule="evenodd" fill="none" stroke="#1C3664" stroke-width="15.1554" stroke-miterlimit="10" d="
	M683.43,458.486c-36.406,0-65.919-29.512-65.919-65.918"/>
<path fill-rule="evenodd" clip-rule="evenodd" fill="none" stroke="#999999" stroke-width="15.1554" stroke-miterlimit="10" d="
	M632.36,392.633c0-28.241,22.894-51.136,51.135-51.136"/>
<path fill-rule="evenodd" clip-rule="evenodd" fill="none" stroke="#999999" stroke-width="15.1554" stroke-miterlimit="10" d="
	M733.291,392.52c0,27.982-22.685,50.666-50.666,50.666"/>
<line fill="#1C3664" stroke="#1C3664" stroke-width="5.9876" stroke-miterlimit="10" x1="698.098" y1="410.63" x2="720.035" y2="435.035"/>
<circle fill-rule="evenodd" clip-rule="evenodd" fill="none" stroke="#999999" stroke-width="5" stroke-miterlimit="10" cx="684.598" cy="395.018" r="21.396"/>
<rect x="629.053" y="408.368" fill="none" width="22.803" height="17.263"/>
<text transform="matrix(1 0 0 1 629.0527 421.0879)" fill="#1C3664" font-family="'Wingdings2'" font-size="24"></text>
<rect x="636.053" y="404.368" fill="none" width="23.01" height="18.218"/>
<text transform="matrix(1 0 0 1 636.0527 417.0879)" fill="#989898" font-family="'Wingdings2'" font-size="24"></text>
<rect x="675.053" y="386.368" fill="none" width="35.587" height="21.785"/>
<text transform="matrix(1 0 0 1 675.0527 404.3877)" fill="#1C3664" font-family="'Wingdings2'" font-size="34"></text>
<rect x="667.053" y="395.368" fill="none" width="30.975" height="21.344"/>
<text transform="matrix(1 0 0 1 667.0527 413.3877)" fill="#989898" font-family="'Wingdings2'" font-size="34"></text>
<rect x="688.053" y="348.368" fill="none" width="22.803" height="17.263"/>
<text transform="matrix(1 0 0 1 688.0527 361.0879)" fill="#1C3664" font-family="'Wingdings2'" font-size="24"></text>
<rect x="695.053" y="344.368" fill="none" width="23.01" height="18.218"/>
<text transform="matrix(1 0 0 1 695.0527 357.0879)" fill="#989898" font-family="'Wingdings2'" font-size="24"></text>
<path fill-rule="evenodd" clip-rule="evenodd" fill="none" stroke="#1C3664" stroke-width="15.1554" stroke-miterlimit="10" d="
	M863.587,327.492c36.406,0,65.921,29.514,65.921,65.919"/>
<path fill-rule="evenodd" clip-rule="evenodd" fill="none" stroke="#1C3664" stroke-width="15.1554" stroke-miterlimit="10" d="
	M864.43,458.486c-36.406,0-65.919-29.512-65.919-65.918"/>
<path fill-rule="evenodd" clip-rule="evenodd" fill="none" stroke="#999999" stroke-width="15.1554" stroke-miterlimit="10" d="
	M813.36,392.633c0-28.241,22.894-51.136,51.135-51.136"/>
<path fill-rule="evenodd" clip-rule="evenodd" fill="none" stroke="#999999" stroke-width="15.1554" stroke-miterlimit="10" d="
	M914.291,392.52c0,27.982-22.685,50.666-50.666,50.666"/>
<line fill="#1C3664" stroke="#1C3664" stroke-width="5.9876" stroke-miterlimit="10" x1="879.098" y1="410.63" x2="901.035" y2="435.035"/>
<circle fill-rule="evenodd" clip-rule="evenodd" fill="none" stroke="#999999" stroke-width="5" stroke-miterlimit="10" cx="865.598" cy="395.018" r="21.396"/>
<rect x="846.053" y="387.021" fill="none" width="39.266" height="26.479"/>
<text transform="matrix(1 0 0 1 846.0527 410.3418)" fill="#1C3664" font-family="'Wingdings2'" font-size="44"></text>
<rect x="101.002" y="261" fill="none" width="42.089" height="53.455"/>
<text transform="matrix(1 0 0 1 101.002 306.4399)" font-family="'MyriadPro-Regular'" font-size="64">7</text>
<rect x="292.002" y="262" fill="none" width="42.089" height="53.455"/>
<text transform="matrix(1 0 0 1 292.002 307.4399)" font-family="'MyriadPro-Regular'" font-size="64">8</text>
<rect x="479.002" y="265" fill="none" width="42.089" height="53.455"/>
<text transform="matrix(1 0 0 1 479.002 310.4399)" font-family="'MyriadPro-Regular'" font-size="64">9</text>
<rect x="652.002" y="263" fill="none" width="88.043" height="55.636"/>
<text transform="matrix(1 0 0 1 652.002 308.4399)" font-family="'MyriadPro-Regular'" font-size="64">10</text>
<rect x="835.002" y="267" fill="none" width="71.135" height="57.045"/>
<text transform="matrix(1 0 0 1 835.002 312.4399)" font-family="'MyriadPro-Regular'" font-size="64">11</text>
<g id="Border_for_SkyQuery_7_">
	<path fill-rule="evenodd" clip-rule="evenodd" fill="none" stroke="#1C3664" stroke-width="15.1554" stroke-miterlimit="10" d="
		M1055.587,329.492c36.406,0,65.921,29.514,65.921,65.919"/>
	<path fill-rule="evenodd" clip-rule="evenodd" fill="none" stroke="#1C3664" stroke-width="15.1554" stroke-miterlimit="10" d="
		M1056.43,460.486c-36.406,0-65.919-29.512-65.919-65.918"/>
	<path fill-rule="evenodd" clip-rule="evenodd" fill="none" stroke="#999999" stroke-width="15.1554" stroke-miterlimit="10" d="
		M1005.36,394.633c0-28.241,22.894-51.136,51.135-51.136"/>
	<path fill-rule="evenodd" clip-rule="evenodd" fill="none" stroke="#999999" stroke-width="15.1554" stroke-miterlimit="10" d="
		M1106.291,394.52c0,27.982-22.685,50.666-50.666,50.666"/>
</g>
<rect x="1016.053" y="370.368" fill="none" width="69.546" height="53.432"/>
<text transform="matrix(1 0 0 1 1016.0527 400.0479)" fill="#1C3664" font-family="'Wingdings2'" font-size="56"></text>
<rect x="1047.053" y="398.368" fill="none" width="54.147" height="35.032"/>
<text transform="matrix(1 0 0 1 1047.0527 428.0479)" fill="#989898" font-family="'Wingdings2'" font-size="56"></text>
<rect x="1028.002" y="269" fill="none" width="71.135" height="57.044"/>
<text transform="matrix(1 0 0 1 1028.002 314.4399)" font-family="'MyriadPro-Regular'" font-size="64">12</text>
</svg>
