<?xml version="1.0" encoding="utf-8"?>
<!-- Generator: Adobe Illustrator 16.0.0, SVG Export Plug-In . SVG Version: 6.00 Build 0)  -->
<!DOCTYPE svg PUBLIC "-//W3C//DTD SVG 1.1//EN" "http://www.w3.org/Graphics/SVG/1.1/DTD/svg11.dtd">
<svg version="1.1" id="Layer_1" xmlns="http://www.w3.org/2000/svg" xmlns:xlink="http://www.w3.org/1999/xlink" x="0px" y="0px"
	 width="252px" height="144px" viewBox="0 0 252 144" enable-background="new 0 0 252 144" xml:space="preserve">
<rect fill="#072241" width="252" height="144"/>
<rect x="2.25" y="2.25" fill="#FFFFFF" width="247.5" height="139.5"/>
<g>
	<defs>
		<rect id="SVGID_1_" x="9" y="9" width="75.577" height="90"/>
	</defs>
	<clipPath id="SVGID_2_">
		<use xlink:href="#SVGID_1_"  overflow="visible"/>
	</clipPath>
	<path clip-path="url(#SVGID_2_)" fill="#1C3664" d="M19.651,95.443c0,1.218-0.435,2.116-1.302,2.691
		C17.48,98.712,16.386,99,15.065,99c-1.646,0-3.233-0.383-4.762-1.146l0.311-2.002c1.542,0.868,3.038,1.302,4.489,1.302
		c0.765,0,1.389-0.142,1.875-0.427c0.487-0.285,0.73-0.732,0.73-1.341c0-0.429-0.175-0.817-0.526-1.166
		c-0.35-0.351-0.786-0.639-1.311-0.865c-0.525-0.228-1.095-0.495-1.71-0.807c-0.615-0.311-1.186-0.628-1.71-0.951
		c-0.525-0.325-0.962-0.769-1.312-1.331c-0.35-0.564-0.525-1.209-0.525-1.936c0-1.127,0.437-1.975,1.312-2.545
		s1.965-0.855,3.274-0.855c1.387,0,2.741,0.247,4.062,0.738l-0.35,1.848c-1.153-0.493-2.384-0.739-3.692-0.739
		c-1.775,0-2.662,0.531-2.662,1.594c0,0.375,0.129,0.719,0.388,1.029s0.6,0.583,1.02,0.816c0.422,0.233,0.881,0.461,1.38,0.681
		s1.002,0.465,1.507,0.738c0.505,0.271,0.967,0.569,1.389,0.894c0.421,0.324,0.761,0.736,1.02,1.235
		C19.521,94.262,19.651,94.821,19.651,95.443"/>
	<path clip-path="url(#SVGID_2_)" fill="#1C3664" d="M27.638,96.337l0.233,1.904C27.016,98.746,26.07,99,25.034,99
		c-1.309,0-2.359-0.373-3.148-1.118c-0.791-0.743-1.186-1.777-1.186-3.1v-1.379c0-1.361,0.399-2.432,1.195-3.216
		c0.797-0.784,1.915-1.177,3.353-1.177c0.764,0,1.574,0.169,2.428,0.506l-0.213,1.788c-0.713-0.299-1.412-0.447-2.099-0.447
		c-0.803,0-1.457,0.213-1.962,0.64c-0.506,0.428-0.759,1.07-0.759,1.924v1.226c0,0.816,0.227,1.438,0.681,1.865
		c0.453,0.429,1.023,0.642,1.71,0.642C25.979,97.153,26.848,96.881,27.638,96.337"/>
	<path clip-path="url(#SVGID_2_)" fill="#1C3664" d="M31.582,98.864h-1.943v-7.58c0-0.193-0.097-0.291-0.292-0.291h-0.621v-1.847
		h1.03c0.673,0,1.147,0.14,1.418,0.418c0.273,0.278,0.408,0.736,0.408,1.37V98.864z M29.309,87.359
		c-0.272-0.272-0.409-0.597-0.409-0.972c0-0.376,0.137-0.7,0.409-0.972c0.272-0.272,0.596-0.408,0.972-0.408
		c0.375,0,0.699,0.136,0.971,0.408c0.272,0.271,0.408,0.596,0.408,0.972c0,0.375-0.136,0.699-0.408,0.972
		c-0.272,0.271-0.596,0.407-0.971,0.407C29.905,87.767,29.581,87.631,29.309,87.359"/>
	<path clip-path="url(#SVGID_2_)" fill="#4D4D4E" d="M42.406,95.443c0,1.218-0.434,2.116-1.302,2.691
		C40.236,98.712,39.141,99,37.821,99c-1.646,0-3.233-0.383-4.763-1.146l0.312-2.002c1.541,0.868,3.038,1.302,4.489,1.302
		c0.764,0,1.389-0.142,1.875-0.427c0.487-0.285,0.729-0.732,0.729-1.341c0-0.429-0.174-0.817-0.525-1.166
		c-0.35-0.351-0.786-0.639-1.312-0.865c-0.524-0.228-1.094-0.495-1.709-0.807c-0.616-0.311-1.186-0.628-1.71-0.951
		c-0.526-0.325-0.963-0.769-1.313-1.331c-0.349-0.564-0.524-1.209-0.524-1.936c0-1.127,0.437-1.975,1.311-2.545
		c0.875-0.57,1.966-0.855,3.275-0.855c1.387,0,2.74,0.247,4.062,0.738l-0.35,1.848c-1.153-0.493-2.384-0.739-3.692-0.739
		c-1.775,0-2.663,0.531-2.663,1.594c0,0.375,0.129,0.719,0.389,1.029c0.259,0.311,0.599,0.583,1.02,0.816
		c0.42,0.233,0.881,0.461,1.38,0.681c0.498,0.22,1,0.465,1.506,0.738c0.505,0.271,0.968,0.569,1.389,0.894s0.761,0.736,1.021,1.235
		C42.277,94.262,42.406,94.821,42.406,95.443"/>
	<path clip-path="url(#SVGID_2_)" fill="#4D4D4E" d="M50.82,96.22l0.254,1.848C50.036,98.689,49.007,99,47.983,99
		c-1.399,0-2.487-0.438-3.264-1.312c-0.778-0.874-1.167-2.058-1.167-3.548c0-1.657,0.392-2.928,1.176-3.809
		c0.784-0.88,1.759-1.321,2.925-1.321c1.075,0,2.001,0.383,2.779,1.147c0.777,0.764,1.166,1.82,1.166,3.167
		c0,0.544-0.084,1.107-0.253,1.69h-5.791c0.129,0.727,0.418,1.263,0.864,1.612c0.448,0.352,0.989,0.525,1.624,0.525
		C48.974,97.153,49.9,96.843,50.82,96.22 M47.653,90.857c-0.57,0-1.03,0.217-1.38,0.65c-0.35,0.435-0.583,0.988-0.7,1.662h4.081
		c0-0.74-0.181-1.308-0.544-1.71C48.748,91.058,48.262,90.857,47.653,90.857"/>
	<path clip-path="url(#SVGID_2_)" fill="#4D4D4E" d="M58.225,89.244l-0.078,1.826c-0.323-0.143-0.628-0.213-0.913-0.213
		c-0.895,0-1.645,0.498-2.254,1.495v6.512h-1.944v-9.717h1.808l0.136,1.049c0.622-0.79,1.321-1.186,2.098-1.186
		C57.467,89.011,57.85,89.089,58.225,89.244"/>
	<polygon clip-path="url(#SVGID_2_)" fill="#4D4D4E" points="64.579,98.864 62.402,98.864 58.574,89.146 60.712,89.146 
		63.491,96.609 66.27,89.146 68.408,89.146 	"/>
	<path clip-path="url(#SVGID_2_)" fill="#4D4D4E" d="M75.869,96.22l0.253,1.848C75.086,98.689,74.056,99,73.032,99
		c-1.398,0-2.486-0.438-3.263-1.312c-0.778-0.874-1.167-2.058-1.167-3.548c0-1.657,0.392-2.928,1.176-3.809
		c0.783-0.88,1.758-1.321,2.925-1.321c1.074,0,2.001,0.383,2.778,1.147c0.777,0.764,1.166,1.82,1.166,3.167
		c0,0.544-0.084,1.107-0.253,1.69h-5.79c0.129,0.727,0.418,1.263,0.864,1.612c0.447,0.352,0.988,0.525,1.623,0.525
		C74.024,97.153,74.949,96.843,75.869,96.22 M72.703,90.857c-0.571,0-1.031,0.217-1.379,0.65c-0.35,0.435-0.585,0.988-0.7,1.662
		h4.08c0-0.74-0.182-1.308-0.545-1.71C73.798,91.058,73.312,90.857,72.703,90.857"/>
	<path clip-path="url(#SVGID_2_)" fill="#4D4D4E" d="M83.273,89.244l-0.078,1.826c-0.324-0.143-0.628-0.213-0.913-0.213
		c-0.895,0-1.646,0.498-2.254,1.495v6.512h-1.944v-9.717h1.808l0.136,1.049c0.621-0.79,1.321-1.186,2.098-1.186
		C82.516,89.011,82.897,89.089,83.273,89.244"/>
	<path clip-path="url(#SVGID_2_)" fill="none" stroke="#1C3664" stroke-width="7.818" stroke-miterlimit="10" d="M46.579,14.212
		c18.107,0,32.786,14.679,32.786,32.785"/>
	<path clip-path="url(#SVGID_2_)" fill="none" stroke="#1C3664" stroke-width="7.818" stroke-miterlimit="10" d="M46.998,79.363
		c-18.107,0-32.786-14.678-32.786-32.785"/>
	<path clip-path="url(#SVGID_2_)" fill-rule="evenodd" clip-rule="evenodd" fill="#4D4D4E" d="M46.712,30.531
		c8.855,0,15.846,6.99,15.846,15.848c0,8.854-6.991,15.846-15.846,15.846c-8.854,0-15.847-6.992-15.847-15.846
		C30.865,37.521,37.858,30.531,46.712,30.531 M37.996,45.679c0.093-2.006,0.652-4.521,1.584-7.039
		c-1.398-0.606-2.658-1.258-3.637-1.958c-2.141,2.377-3.447,5.501-3.588,8.997H37.996z M32.354,47.077
		c0.141,3.495,1.447,6.618,3.588,8.996c0.979-0.699,2.239-1.351,3.637-1.958c-0.978-2.517-1.539-5.08-1.584-7.038H32.354z
		 M42.704,32.535c-2.191,0.559-4.151,1.678-5.782,3.17c0.84,0.605,1.913,1.211,3.124,1.724
		C40.744,35.658,41.677,33.933,42.704,32.535 M36.922,57.052c1.631,1.491,3.591,2.609,5.782,3.123
		c-1.073-1.446-1.96-3.123-2.611-4.895C38.882,55.793,37.809,56.4,36.922,57.052 M46.012,40.412
		c-1.586-0.095-3.402-0.56-5.174-1.304c-0.838,2.189-1.351,4.38-1.445,6.571h6.619V40.412z M39.393,47.077
		c0.094,2.097,0.607,4.335,1.445,6.571c1.772-0.746,3.588-1.212,5.174-1.304v-5.267H39.393z M46.012,31.976
		c-0.467,0-0.933,0.046-1.446,0.139c-1.258,1.724-2.424,3.683-3.309,5.827c1.538,0.559,3.216,0.932,4.755,1.025V31.976z
		 M46.012,53.788c-1.492,0.094-3.121,0.419-4.709,0.98c0.839,2.097,1.96,4.147,3.263,5.873c0.513,0.092,0.979,0.138,1.446,0.138
		V53.788z M47.411,38.967c1.538-0.093,3.214-0.466,4.752-1.025c-0.886-2.144-2.049-4.103-3.308-5.827
		c-0.512-0.093-0.978-0.139-1.444-0.139V38.967z M47.411,45.679h6.616c-0.091-2.191-0.604-4.382-1.444-6.571
		c-1.77,0.744-3.589,1.209-5.172,1.304V45.679z M47.411,47.077v5.267c1.583,0.092,3.402,0.558,5.172,1.304
		c0.84-2.236,1.353-4.474,1.444-6.571H47.411z M47.411,60.779c0.466,0,0.932-0.046,1.444-0.138c1.305-1.726,2.422-3.776,3.262-5.873
		c-1.583-0.561-3.217-0.886-4.706-0.98V60.779z M56.5,35.705c-1.634-1.492-3.59-2.611-5.781-3.17
		c1.026,1.398,1.959,3.123,2.656,4.894C54.588,36.917,55.659,36.311,56.5,35.705 M50.719,60.175
		c2.191-0.514,4.147-1.632,5.781-3.123c-0.888-0.652-1.959-1.259-3.169-1.772C52.678,57.052,51.791,58.729,50.719,60.175
		 M61.068,45.679c-0.14-3.496-1.448-6.62-3.59-8.997c-0.978,0.7-2.238,1.352-3.637,1.958c0.934,2.518,1.493,5.033,1.587,7.039
		H61.068z M55.428,47.077c-0.048,1.958-0.608,4.521-1.587,7.038c1.399,0.607,2.659,1.259,3.637,1.958
		c2.142-2.378,3.45-5.501,3.59-8.996H55.428z"/>
	<path clip-path="url(#SVGID_2_)" fill="none" stroke="#4D4D4E" stroke-width="7.818" stroke-miterlimit="10" d="M21.598,46.61
		c0-14.046,11.386-25.433,25.432-25.433"/>
	<path clip-path="url(#SVGID_2_)" fill="none" stroke="#4D4D4E" stroke-width="7.818" stroke-miterlimit="10" d="M71.797,46.554
		c0,13.917-11.283,25.199-25.2,25.199"/>
</g>
<g>
	<defs>
		<rect id="SVGID_3_" x="124.56" y="95.366" width="127.44" height="48.634"/>
	</defs>
	<clipPath id="SVGID_4_">
		<use xlink:href="#SVGID_3_"  overflow="visible"/>
	</clipPath>
	<path clip-path="url(#SVGID_4_)" fill="#002D73" d="M187.781,131.91c0-0.283-0.009-0.812-0.087-0.949
		c-0.032-0.056-0.115-0.087-0.229-0.098l-0.114-0.008c-0.027-0.033-0.02-0.092,0.008-0.111c0.176,0.01,0.345,0.015,0.524,0.015
		c0.192,0,0.315-0.005,0.481-0.015c0.037,0.023,0.032,0.082,0.01,0.111l-0.11,0.008c-0.114,0.011-0.202,0.052-0.229,0.111
		c-0.063,0.151-0.063,0.678-0.063,0.936v0.52c0,0.398-0.065,0.821-0.322,1.096c-0.198,0.217-0.538,0.336-0.877,0.336
		c-0.317,0-0.633-0.061-0.858-0.253c-0.241-0.201-0.356-0.536-0.356-1.082v-1.084c0-0.477-0.01-0.555-0.276-0.579l-0.114-0.008
		c-0.027-0.019-0.019-0.097,0.009-0.111c0.229,0.01,0.386,0.015,0.568,0.015c0.188,0,0.34-0.005,0.564-0.015
		c0.028,0.015,0.037,0.093,0.01,0.111l-0.11,0.008c-0.266,0.024-0.275,0.103-0.275,0.579v0.992c0,0.738,0.229,1.224,0.932,1.224
		c0.665,0,0.918-0.521,0.918-1.22V131.91z"/>
	<path clip-path="url(#SVGID_4_)" fill="#002D73" d="M193.778,133.008c0,0.137,0,0.685,0.015,0.803
		c-0.009,0.027-0.037,0.052-0.087,0.052c-0.056-0.079-0.188-0.239-0.587-0.693l-1.065-1.212c-0.125-0.143-0.436-0.52-0.533-0.62
		h-0.009c-0.018,0.055-0.022,0.161-0.022,0.298v1.001c0,0.216,0.005,0.813,0.083,0.95c0.026,0.051,0.118,0.078,0.234,0.087
		l0.142,0.014c0.027,0.036,0.022,0.092-0.011,0.115c-0.205-0.009-0.365-0.015-0.536-0.015c-0.192,0-0.316,0.006-0.477,0.015
		c-0.033-0.023-0.037-0.087-0.01-0.115l0.124-0.014c0.105-0.014,0.179-0.041,0.202-0.092c0.063-0.164,0.06-0.726,0.06-0.945v-1.326
		c0-0.129-0.004-0.225-0.101-0.331c-0.064-0.063-0.176-0.096-0.285-0.109l-0.077-0.009c-0.028-0.028-0.028-0.097,0.009-0.115
		c0.192,0.013,0.436,0.013,0.519,0.013c0.073,0,0.151-0.004,0.211-0.013c0.092,0.233,0.634,0.84,0.784,1.009l0.445,0.501
		c0.317,0.353,0.542,0.611,0.758,0.831h0.01c0.019-0.023,0.019-0.097,0.019-0.193v-0.981c0-0.216-0.006-0.813-0.092-0.95
		c-0.028-0.042-0.102-0.069-0.285-0.092l-0.078-0.009c-0.032-0.028-0.028-0.103,0.009-0.115c0.211,0.009,0.367,0.013,0.542,0.013
		c0.197,0,0.317-0.004,0.473-0.013c0.037,0.022,0.037,0.087,0.01,0.115l-0.065,0.009c-0.146,0.022-0.238,0.059-0.257,0.096
		c-0.078,0.166-0.069,0.734-0.069,0.946V133.008z"/>
	<path clip-path="url(#SVGID_4_)" fill="#002D73" d="M197.197,131.456c0-0.486-0.009-0.564-0.28-0.587l-0.115-0.01
		c-0.027-0.02-0.018-0.102,0.01-0.115c0.229,0.01,0.386,0.014,0.579,0.014c0.183,0,0.339-0.004,0.568-0.014
		c0.027,0.014,0.036,0.096,0.009,0.115l-0.113,0.01c-0.271,0.022-0.281,0.101-0.281,0.587v1.634c0,0.486,0.01,0.551,0.281,0.582
		l0.113,0.016c0.027,0.018,0.019,0.1-0.009,0.114c-0.229-0.01-0.386-0.015-0.568-0.015c-0.193,0-0.35,0.005-0.579,0.015
		c-0.027-0.015-0.037-0.088-0.01-0.114l0.115-0.016c0.271-0.031,0.28-0.096,0.28-0.582V131.456z"/>
	<path clip-path="url(#SVGID_4_)" fill="#002D73" d="M200.914,131.245c-0.105-0.257-0.174-0.354-0.372-0.376l-0.083-0.01
		c-0.031-0.027-0.026-0.091,0.01-0.115c0.134,0.01,0.279,0.014,0.478,0.014c0.202,0,0.362-0.004,0.555-0.014
		c0.032,0.019,0.042,0.088,0.011,0.115l-0.07,0.01c-0.174,0.021-0.21,0.05-0.215,0.087c0.009,0.046,0.087,0.294,0.229,0.643
		c0.212,0.532,0.423,1.06,0.653,1.583c0.141-0.303,0.334-0.774,0.44-1.019c0.133-0.312,0.349-0.83,0.427-1.028
		c0.037-0.096,0.041-0.146,0.041-0.179s-0.046-0.069-0.207-0.087l-0.082-0.01c-0.033-0.027-0.023-0.097,0.009-0.115
		c0.128,0.01,0.303,0.014,0.478,0.014c0.151,0,0.294-0.004,0.444-0.014c0.032,0.019,0.032,0.092,0.01,0.115l-0.137,0.01
		c-0.111,0.009-0.18,0.063-0.24,0.16c-0.128,0.216-0.307,0.588-0.513,1.056l-0.249,0.564c-0.183,0.423-0.398,0.955-0.477,1.198
		c-0.015,0.009-0.032,0.014-0.051,0.014c-0.022,0-0.046-0.005-0.069-0.014c-0.05-0.193-0.132-0.418-0.211-0.61L200.914,131.245z"/>
	<path clip-path="url(#SVGID_4_)" fill="#002D73" d="M206.439,131.447c0-0.478-0.009-0.547-0.28-0.579l-0.074-0.009
		c-0.026-0.019-0.018-0.101,0.011-0.115c0.197,0.01,0.354,0.015,0.541,0.015h0.863c0.293,0,0.564,0,0.619-0.015
		c0.027,0.078,0.055,0.409,0.074,0.611c-0.02,0.028-0.092,0.036-0.116,0.009c-0.067-0.216-0.109-0.376-0.348-0.436
		c-0.097-0.023-0.243-0.028-0.446-0.028h-0.33c-0.137,0-0.137,0.01-0.137,0.185v0.918c0,0.129,0.014,0.129,0.149,0.129h0.269
		c0.192,0,0.334-0.01,0.389-0.028c0.057-0.019,0.088-0.047,0.111-0.161l0.037-0.188c0.021-0.028,0.099-0.028,0.118,0.004
		c0,0.11-0.02,0.29-0.02,0.464c0,0.165,0.02,0.34,0.02,0.44c-0.02,0.032-0.097,0.032-0.118,0.005l-0.042-0.179
		c-0.019-0.083-0.05-0.151-0.143-0.175c-0.063-0.018-0.175-0.022-0.353-0.022h-0.269c-0.136,0-0.149,0.005-0.149,0.125v0.646
		c0,0.243,0.014,0.399,0.086,0.478c0.056,0.055,0.152,0.105,0.556,0.105c0.354,0,0.486-0.019,0.588-0.069
		c0.083-0.046,0.206-0.206,0.325-0.444c0.033-0.023,0.099-0.01,0.115,0.032c-0.032,0.16-0.147,0.514-0.207,0.637
		c-0.412-0.008-0.821-0.013-1.229-0.013h-0.414c-0.197,0-0.354,0.005-0.624,0.013c-0.028-0.013-0.037-0.086-0.01-0.114l0.151-0.014
		c0.262-0.022,0.285-0.092,0.285-0.573V131.447z"/>
	<path clip-path="url(#SVGID_4_)" fill="#002D73" d="M211.413,131.452c0-0.437-0.014-0.514-0.202-0.537l-0.146-0.019
		c-0.032-0.023-0.032-0.098,0.004-0.115c0.257-0.023,0.574-0.036,1.022-0.036c0.285,0,0.557,0.022,0.768,0.138
		c0.219,0.114,0.381,0.321,0.381,0.644c0,0.435-0.344,0.674-0.573,0.766c-0.023,0.027,0,0.074,0.022,0.11
		c0.366,0.592,0.61,0.96,0.923,1.221c0.078,0.068,0.192,0.119,0.316,0.128c0.023,0.009,0.026,0.046,0.004,0.064
		c-0.04,0.014-0.114,0.022-0.201,0.022c-0.392,0-0.625-0.115-0.95-0.578c-0.12-0.17-0.309-0.486-0.45-0.692
		c-0.069-0.102-0.142-0.147-0.325-0.147c-0.207,0-0.216,0.004-0.216,0.103v0.577c0,0.481,0.009,0.536,0.276,0.573l0.095,0.014
		c0.028,0.023,0.019,0.102-0.009,0.114c-0.206-0.008-0.362-0.013-0.546-0.013c-0.193,0-0.359,0.005-0.573,0.013
		c-0.028-0.013-0.038-0.082-0.01-0.114l0.113-0.014c0.268-0.032,0.276-0.092,0.276-0.573V131.452z M211.79,132.108
		c0,0.082,0,0.133,0.014,0.151c0.014,0.015,0.082,0.022,0.316,0.022c0.165,0,0.34-0.019,0.473-0.119
		c0.123-0.096,0.229-0.257,0.229-0.569c0-0.362-0.225-0.707-0.735-0.707c-0.283,0-0.297,0.019-0.297,0.147V132.108z"/>
	<path clip-path="url(#SVGID_4_)" fill="#002D73" d="M216.96,133.861c-0.385,0-0.629-0.119-0.716-0.17
		c-0.056-0.101-0.115-0.427-0.124-0.642c0.022-0.033,0.092-0.042,0.11-0.015c0.068,0.234,0.257,0.685,0.789,0.685
		c0.387,0,0.574-0.252,0.574-0.528c0-0.202-0.042-0.427-0.377-0.642l-0.435-0.285c-0.23-0.152-0.496-0.413-0.496-0.789
		c0-0.437,0.34-0.79,0.936-0.79c0.143,0,0.308,0.026,0.427,0.059c0.06,0.02,0.123,0.028,0.16,0.028
		c0.041,0.11,0.082,0.367,0.082,0.56c-0.018,0.028-0.091,0.041-0.113,0.015c-0.06-0.222-0.184-0.52-0.624-0.52
		c-0.449,0-0.547,0.298-0.547,0.51c0,0.267,0.221,0.458,0.391,0.564l0.367,0.23c0.29,0.178,0.573,0.444,0.573,0.881
		C217.938,133.518,217.557,133.861,216.96,133.861"/>
	<path clip-path="url(#SVGID_4_)" fill="#002D73" d="M221.058,131.456c0-0.486-0.009-0.564-0.28-0.587l-0.115-0.01
		c-0.027-0.02-0.018-0.102,0.01-0.115c0.229,0.01,0.386,0.014,0.578,0.014c0.185,0,0.34-0.004,0.57-0.014
		c0.027,0.014,0.036,0.096,0.008,0.115l-0.114,0.01c-0.271,0.022-0.279,0.101-0.279,0.587v1.634c0,0.486,0.009,0.551,0.279,0.582
		l0.114,0.016c0.028,0.018,0.02,0.1-0.008,0.114c-0.23-0.01-0.386-0.015-0.57-0.015c-0.192,0-0.349,0.005-0.578,0.015
		c-0.027-0.015-0.037-0.088-0.01-0.114l0.115-0.016c0.271-0.031,0.28-0.096,0.28-0.582V131.456z"/>
	<path clip-path="url(#SVGID_4_)" fill="#002D73" d="M226.153,133.1c0,0.481,0.009,0.55,0.274,0.573l0.146,0.014
		c0.028,0.019,0.019,0.102-0.009,0.115c-0.262-0.009-0.417-0.014-0.601-0.014c-0.185,0-0.345,0.005-0.64,0.014
		c-0.026-0.014-0.036-0.092,0-0.115l0.166-0.014c0.263-0.023,0.285-0.092,0.285-0.573v-2.052c0-0.143,0-0.147-0.138-0.147h-0.253
		c-0.197,0-0.449,0.01-0.564,0.115c-0.109,0.102-0.156,0.202-0.207,0.317c-0.036,0.026-0.101,0.004-0.119-0.032
		c0.074-0.207,0.144-0.501,0.175-0.684c0.015-0.01,0.073-0.015,0.087,0c0.027,0.146,0.18,0.142,0.392,0.142h1.858
		c0.248,0,0.289-0.009,0.357-0.128c0.023-0.009,0.073-0.005,0.082,0.013c-0.051,0.188-0.082,0.561-0.068,0.698
		c-0.018,0.036-0.097,0.036-0.119,0.009c-0.015-0.114-0.046-0.284-0.114-0.335c-0.106-0.078-0.28-0.115-0.533-0.115h-0.326
		c-0.137,0-0.132,0.005-0.132,0.156V133.1z"/>
	<path clip-path="url(#SVGID_4_)" fill="#002D73" d="M231.384,133.091c0,0.489,0.027,0.563,0.276,0.582l0.175,0.015
		c0.026,0.027,0.017,0.1-0.01,0.114c-0.285-0.01-0.441-0.015-0.625-0.015c-0.193,0-0.357,0.005-0.602,0.015
		c-0.027-0.015-0.037-0.087-0.009-0.114l0.144-0.015c0.265-0.027,0.273-0.093,0.273-0.582v-0.234c0-0.253-0.014-0.312-0.146-0.569
		l-0.542-1.056c-0.156-0.303-0.226-0.326-0.362-0.349l-0.129-0.023c-0.028-0.032-0.022-0.096,0.009-0.115
		c0.147,0.011,0.312,0.015,0.533,0.015c0.211,0,0.376-0.004,0.491-0.015c0.041,0.015,0.041,0.088,0.014,0.115l-0.059,0.01
		c-0.161,0.022-0.194,0.045-0.194,0.082c0,0.046,0.119,0.309,0.143,0.354c0.169,0.339,0.339,0.701,0.52,1.019
		c0.141-0.244,0.293-0.51,0.43-0.775c0.129-0.239,0.298-0.552,0.298-0.606c0-0.028-0.082-0.06-0.191-0.073l-0.082-0.01
		c-0.032-0.032-0.028-0.096,0.009-0.115c0.164,0.011,0.298,0.015,0.439,0.015c0.144,0,0.271-0.004,0.428-0.015
		c0.037,0.024,0.041,0.088,0.01,0.115l-0.129,0.023c-0.239,0.042-0.377,0.331-0.606,0.726l-0.289,0.5
		c-0.201,0.349-0.216,0.39-0.216,0.743V133.091z"/>
	<path clip-path="url(#SVGID_4_)" fill="#002D73" d="M165.938,134.999c0.393-0.217,0.867-0.516,1.38-0.902v-4.642l-1.38-0.918
		V134.999z"/>
	<path clip-path="url(#SVGID_4_)" fill="#002D73" d="M165.938,125.323l1.38,0.919v-2.346c-0.46-0.021-0.92-0.034-1.38-0.037V125.323
		z"/>
	<path clip-path="url(#SVGID_4_)" fill="#002D73" d="M170.077,124.141c-0.459-0.06-0.918-0.107-1.38-0.147v3.167l1.38,0.919V124.141
		z"/>
	<path clip-path="url(#SVGID_4_)" fill="#002D73" d="M168.697,130.373v2.524c0.464-0.461,0.931-0.995,1.38-1.602v-0.005
		L168.697,130.373z"/>
	<polygon clip-path="url(#SVGID_4_)" fill="#002D73" points="170.077,131.296 170.079,131.292 170.077,131.292 	"/>
	<path clip-path="url(#SVGID_4_)" fill="#002D73" d="M171.455,124.349v4.648l0.005,0.002c0.602-1.247,1.087-2.7,1.36-4.393
		l-0.047-0.009C172.337,124.506,171.896,124.424,171.455,124.349"/>
	<polygon clip-path="url(#SVGID_4_)" fill="#002D73" points="167.317,126.243 167.317,129.456 168.696,130.373 168.696,127.161 	"/>
	<path clip-path="url(#SVGID_4_)" fill="#002D73" d="M170.077,128.079v3.212l0.002,0.001c0.493-0.667,0.962-1.427,1.376-2.286
		v-0.009L170.077,128.079z"/>
	<polygon clip-path="url(#SVGID_4_)" fill="#002D73" points="171.455,129.006 171.46,128.999 171.455,128.997 	"/>
	<path clip-path="url(#SVGID_4_)" fill="#002D73" d="M162.91,129.665c0.407-0.113,0.765-0.341,1.04-0.647
		c-0.151-0.054-0.326-0.108-0.529-0.153C163.271,129.197,163.082,129.465,162.91,129.665"/>
	<path clip-path="url(#SVGID_4_)" fill="#002D73" d="M160.721,129.019c0.274,0.307,0.633,0.535,1.041,0.647
		c-0.172-0.201-0.36-0.469-0.511-0.803C161.047,128.909,160.872,128.964,160.721,129.019"/>
	<path clip-path="url(#SVGID_4_)" fill="#002D73" d="M162.136,125.672c-0.15,0.165-0.325,0.397-0.473,0.69
		c0.148,0.02,0.306,0.034,0.473,0.039V125.672z"/>
	<path clip-path="url(#SVGID_4_)" fill="#002D73" d="M163.56,128.488c0.249,0.06,0.462,0.128,0.635,0.197
		c0.162-0.272,0.268-0.578,0.299-0.909h-0.806C163.672,128.034,163.626,128.272,163.56,128.488"/>
	<path clip-path="url(#SVGID_4_)" fill="#002D73" d="M161.762,125.49c-0.408,0.112-0.767,0.34-1.041,0.647
		c0.151,0.054,0.326,0.108,0.53,0.153C161.4,125.957,161.59,125.691,161.762,125.49"/>
	<path clip-path="url(#SVGID_4_)" fill="#002D73" d="M163.949,126.137c-0.273-0.306-0.632-0.533-1.039-0.646
		c0.171,0.201,0.361,0.467,0.512,0.8C163.623,126.246,163.8,126.191,163.949,126.137"/>
	<path clip-path="url(#SVGID_4_)" fill="#002D73" d="M163.688,127.379h0.806c-0.03-0.33-0.137-0.638-0.3-0.908
		c-0.173,0.068-0.384,0.137-0.634,0.196C163.626,126.884,163.672,127.121,163.688,127.379"/>
	<path clip-path="url(#SVGID_4_)" fill="#002D73" d="M162.533,129.485c0.15-0.165,0.328-0.397,0.476-0.692
		c-0.149-0.02-0.308-0.034-0.476-0.04V129.485z"/>
	<path clip-path="url(#SVGID_4_)" fill="#002D73" d="M162.136,127.776h-0.753c0.018,0.231,0.062,0.443,0.126,0.637
		c0.192-0.029,0.401-0.05,0.627-0.058V127.776z"/>
	<path clip-path="url(#SVGID_4_)" fill="#002D73" d="M162.533,128.355c0.227,0.008,0.438,0.027,0.631,0.057
		c0.062-0.192,0.108-0.405,0.126-0.635h-0.757V128.355z"/>
	<path clip-path="url(#SVGID_4_)" fill="#002D73" d="M163.01,126.362c-0.146-0.297-0.325-0.529-0.476-0.693v0.732
		C162.702,126.396,162.862,126.383,163.01,126.362"/>
	<path clip-path="url(#SVGID_4_)" fill="#002D73" d="M163.289,127.379c-0.017-0.231-0.062-0.443-0.125-0.636
		c-0.193,0.028-0.404,0.05-0.631,0.058v0.578H163.289z"/>
	<path clip-path="url(#SVGID_4_)" fill="#002D73" d="M161.663,128.793c0.147,0.292,0.322,0.524,0.473,0.69v-0.729
		C161.969,128.76,161.812,128.773,161.663,128.793"/>
	<path clip-path="url(#SVGID_4_)" fill="#002D73" d="M161.111,126.667c-0.25-0.059-0.462-0.128-0.636-0.196
		c-0.161,0.27-0.268,0.578-0.298,0.908h0.806C161,127.121,161.046,126.884,161.111,126.667"/>
	<path clip-path="url(#SVGID_4_)" fill="#002D73" d="M162.136,126.801c-0.226-0.009-0.435-0.028-0.627-0.059
		c-0.063,0.193-0.108,0.405-0.126,0.636h0.753V126.801z"/>
	<path clip-path="url(#SVGID_4_)" fill="#002D73" d="M160.983,127.776h-0.806c0.031,0.331,0.136,0.639,0.298,0.909
		c0.174-0.068,0.386-0.139,0.636-0.198C161.046,128.272,161,128.035,160.983,127.776"/>
</g>
<g>
	<defs>
		<rect id="SVGID_5_" x="158.159" y="119.068" width="14.907" height="16.061"/>
	</defs>
	<clipPath id="SVGID_6_">
		<use xlink:href="#SVGID_5_"  overflow="visible"/>
	</clipPath>
	<path clip-path="url(#SVGID_6_)" fill="#002D73" d="M158.404,124.608c1.013,6.26,4.932,9.315,6.884,10.391v-11.14
		c-2.308,0.021-4.605,0.269-6.836,0.739L158.404,124.608z M162.335,125.013c1.415,0,2.565,1.15,2.565,2.564s-1.15,2.566-2.565,2.566
		c-1.414,0-2.565-1.152-2.565-2.566S160.921,125.013,162.335,125.013"/>
	<path clip-path="url(#SVGID_6_)" fill="#002D73" d="M172.769,119.823l-0.005-0.002c-2.307-0.493-4.699-0.754-7.152-0.754
		c-2.456,0-4.85,0.262-7.158,0.756l-0.011,0.003c-0.163,0.04-0.284,0.187-0.284,0.363l0.002,1.294c0,0.85,0.051,1.651,0.144,2.413
		c2.398-0.508,4.857-0.762,7.315-0.762c2.454,0,4.91,0.254,7.303,0.76c0.091-0.76,0.143-1.562,0.143-2.411l0.001-1.294
		C173.065,120.009,172.938,119.858,172.769,119.823 M171.156,123.026c-1.794-0.341-3.855-0.445-5.544-0.445h-0.001
		c-1.688,0-3.75,0.104-5.544,0.445c-0.066,0.014-0.127-0.048-0.09-0.12l1.18-2.606c0.013-0.023,0.775-0.4,0.775-0.4
		c0.969-0.204,2.564-0.114,3.678,0.295h0.004c1.113-0.409,2.708-0.499,3.678-0.295c0,0,0.762,0.377,0.774,0.4l1.18,2.606
		C171.283,122.979,171.225,123.04,171.156,123.026"/>
</g>
<g>
	<defs>
		<rect id="SVGID_7_" x="124.56" y="95.366" width="127.44" height="48.634"/>
	</defs>
	<clipPath id="SVGID_8_">
		<use xlink:href="#SVGID_7_"  overflow="visible"/>
	</clipPath>
	<path clip-path="url(#SVGID_8_)" fill="#002D73" d="M168.985,120.346l0.495,1.329c-1.155-0.159-2.113-0.087-3.528,0.376v0.125
		c1.337-0.05,3.026-0.125,4.394,0.169l-0.745-1.713L168.985,120.346z"/>
	<path clip-path="url(#SVGID_8_)" fill="#002D73" d="M161.728,121.675l0.496-1.329l-0.616,0.286l-0.744,1.713
		c1.365-0.294,3.056-0.219,4.393-0.169v-0.124C163.842,121.588,162.884,121.516,161.728,121.675"/>
</g>
<g>
	<defs>
		<rect id="SVGID_9_" x="175.566" y="120.887" width="66.662" height="9.104"/>
	</defs>
	<clipPath id="SVGID_10_">
		<use xlink:href="#SVGID_9_"  overflow="visible"/>
	</clipPath>
	<path clip-path="url(#SVGID_10_)" fill="#002D73" d="M177.472,122.521c0-1.17-0.104-1.296-0.727-1.349l-0.263-0.021
		c-0.063-0.042-0.042-0.231,0.021-0.263c0.611,0.02,0.969,0.031,1.412,0.031c0.421,0,0.779-0.012,1.201-0.031
		c0.062,0.031,0.084,0.221,0.021,0.263l-0.158,0.021c-0.62,0.085-0.643,0.23-0.643,1.349v3.909c0,0.832-0.042,1.559-0.242,2.043
		c-0.348,0.844-1.096,1.518-2.076,1.518c-0.126,0-0.452-0.011-0.452-0.222c0-0.179,0.157-0.484,0.379-0.484
		c0.127,0,0.254,0.021,0.391,0.063c0.147,0.042,0.294,0.074,0.442,0.074c0.221,0,0.348-0.127,0.422-0.274
		c0.242-0.496,0.272-2.076,0.272-2.645V122.521z"/>
</g>
<g>
	<defs>
		<rect id="SVGID_11_" x="124.56" y="95.366" width="127.44" height="48.634"/>
	</defs>
	<clipPath id="SVGID_12_">
		<use xlink:href="#SVGID_11_"  overflow="visible"/>
	</clipPath>
	<path clip-path="url(#SVGID_12_)" fill="#002D73" d="M179.114,125.001c0-1.776,1.334-3.137,3.165-3.137
		c2.053,0,3.084,1.484,3.084,3.048c0,1.796-1.369,3.103-3.084,3.103C180.306,128.015,179.114,126.602,179.114,125.001
		 M184.475,125.188c0-1.466-0.649-3.049-2.347-3.049c-0.925,0-2.124,0.632-2.124,2.578c0,1.314,0.64,3.021,2.391,3.021
		C183.462,127.739,184.475,126.939,184.475,125.188"/>
	<path clip-path="url(#SVGID_12_)" fill="#002D73" d="M187.383,125.002c-0.427,0-0.444,0.018-0.444,0.285v1.253
		c0,0.933,0.044,1.058,0.541,1.11l0.259,0.027c0.053,0.035,0.035,0.195-0.018,0.222c-0.48-0.019-0.782-0.026-1.129-0.026
		c-0.382,0-0.686,0.018-1.032,0.026c-0.052-0.026-0.07-0.17-0.017-0.222l0.15-0.027c0.498-0.089,0.517-0.178,0.517-1.11v-3.2
		c0-0.933-0.063-1.084-0.525-1.12l-0.231-0.018c-0.053-0.035-0.034-0.195,0.019-0.223c0.435,0.01,0.738,0.027,1.12,0.027
		c0.347,0,0.648-0.009,1.03-0.027c0.054,0.027,0.071,0.188,0.018,0.223l-0.168,0.018c-0.516,0.053-0.533,0.188-0.533,1.12v1.021
		c0,0.276,0.018,0.285,0.444,0.285h2.542c0.427,0,0.443-0.009,0.443-0.285v-1.021c0-0.933-0.017-1.067-0.542-1.12l-0.169-0.018
		c-0.053-0.035-0.035-0.195,0.019-0.223c0.409,0.019,0.711,0.027,1.075,0.027c0.347,0,0.649-0.009,1.05-0.027
		c0.053,0.027,0.07,0.188,0.017,0.223l-0.186,0.018c-0.517,0.053-0.534,0.188-0.534,1.12v3.2c0,0.933,0.018,1.048,0.534,1.11
		l0.213,0.027c0.053,0.035,0.036,0.195-0.019,0.222c-0.426-0.019-0.729-0.026-1.075-0.026c-0.364,0-0.685,0.008-1.075,0.026
		c-0.054-0.026-0.071-0.17-0.019-0.222l0.169-0.027c0.542-0.089,0.542-0.178,0.542-1.11v-1.253c0-0.268-0.017-0.285-0.443-0.285
		H187.383z"/>
	<path clip-path="url(#SVGID_12_)" fill="#002D73" d="M197.916,126.361c0,0.268,0,1.324,0.025,1.556
		c-0.017,0.054-0.069,0.098-0.168,0.098c-0.106-0.15-0.365-0.461-1.138-1.342l-2.062-2.347c-0.239-0.275-0.844-1.005-1.03-1.199
		h-0.019c-0.035,0.106-0.044,0.311-0.044,0.576v1.939c0,0.417,0.009,1.573,0.16,1.839c0.054,0.099,0.231,0.151,0.453,0.169
		l0.275,0.027c0.054,0.071,0.045,0.178-0.018,0.222c-0.399-0.018-0.711-0.026-1.04-0.026c-0.373,0-0.613,0.009-0.925,0.026
		c-0.062-0.044-0.071-0.17-0.017-0.222l0.239-0.027c0.204-0.026,0.348-0.08,0.392-0.178c0.124-0.319,0.115-1.404,0.115-1.83v-2.569
		c0-0.249-0.009-0.437-0.195-0.64c-0.125-0.125-0.337-0.187-0.551-0.214l-0.151-0.018c-0.053-0.054-0.053-0.187,0.018-0.223
		c0.373,0.027,0.845,0.027,1.004,0.027c0.143,0,0.293-0.009,0.409-0.027c0.179,0.454,1.228,1.627,1.521,1.956l0.861,0.968
		c0.613,0.686,1.049,1.183,1.468,1.609h0.017c0.036-0.044,0.036-0.187,0.036-0.373v-1.902c0-0.418-0.009-1.572-0.178-1.84
		c-0.054-0.08-0.196-0.134-0.552-0.178l-0.15-0.018c-0.062-0.054-0.054-0.195,0.017-0.223c0.41,0.019,0.712,0.027,1.05,0.027
		c0.382,0,0.612-0.009,0.915-0.027c0.071,0.045,0.071,0.169,0.019,0.223l-0.125,0.018c-0.284,0.044-0.462,0.116-0.498,0.187
		c-0.15,0.32-0.133,1.422-0.133,1.831V126.361z"/>
	<path clip-path="url(#SVGID_12_)" fill="#002D73" d="M200.265,128.015c-0.747,0-1.217-0.231-1.387-0.329
		c-0.106-0.195-0.221-0.826-0.24-1.244c0.045-0.062,0.178-0.08,0.214-0.025c0.133,0.451,0.497,1.323,1.529,1.323
		c0.747,0,1.111-0.488,1.111-1.021c0-0.393-0.08-0.827-0.729-1.245l-0.845-0.551c-0.443-0.293-0.959-0.8-0.959-1.529
		c0-0.844,0.657-1.528,1.812-1.528c0.276,0,0.597,0.054,0.827,0.115c0.115,0.036,0.239,0.054,0.311,0.054
		c0.08,0.214,0.159,0.711,0.159,1.084c-0.034,0.054-0.177,0.08-0.222,0.027c-0.115-0.427-0.354-1.005-1.209-1.005
		c-0.87,0-1.057,0.578-1.057,0.987c0,0.515,0.427,0.888,0.755,1.093l0.712,0.444c0.56,0.347,1.111,0.862,1.111,1.706
		C202.159,127.348,201.421,128.015,200.265,128.015"/>
	<path clip-path="url(#SVGID_12_)" fill="#002D73" d="M207.434,124.47c-0.506,0-0.527,0.021-0.527,0.336v1.486
		c0,1.106,0.054,1.254,0.644,1.318l0.306,0.03c0.062,0.042,0.042,0.232-0.021,0.264c-0.569-0.021-0.928-0.031-1.337-0.031
		c-0.454,0-0.812,0.021-1.224,0.031c-0.062-0.031-0.084-0.2-0.021-0.264l0.179-0.03c0.589-0.106,0.611-0.212,0.611-1.318v-3.793
		c0-1.105-0.073-1.285-0.621-1.327l-0.274-0.021c-0.063-0.042-0.042-0.232,0.021-0.265c0.516,0.012,0.874,0.032,1.328,0.032
		c0.409,0,0.768-0.011,1.221-0.032c0.063,0.032,0.085,0.223,0.021,0.265l-0.199,0.021c-0.611,0.063-0.633,0.222-0.633,1.327v1.212
		c0,0.326,0.021,0.336,0.527,0.336h3.014c0.506,0,0.526-0.01,0.526-0.336v-1.212c0-1.105-0.021-1.264-0.643-1.327l-0.2-0.021
		c-0.063-0.042-0.042-0.232,0.021-0.265c0.484,0.021,0.844,0.032,1.275,0.032c0.411,0,0.769-0.011,1.243-0.032
		c0.062,0.032,0.085,0.223,0.021,0.265l-0.221,0.021c-0.611,0.063-0.632,0.222-0.632,1.327v3.793c0,1.106,0.021,1.243,0.632,1.318
		l0.253,0.03c0.063,0.042,0.042,0.232-0.021,0.264c-0.507-0.021-0.864-0.031-1.275-0.031c-0.432,0-0.812,0.01-1.275,0.031
		c-0.062-0.031-0.084-0.2-0.021-0.264l0.2-0.03c0.643-0.106,0.643-0.212,0.643-1.318v-1.486c0-0.315-0.021-0.336-0.526-0.336
		H207.434z"/>
	<path clip-path="url(#SVGID_12_)" fill="#002D73" d="M212.655,125.001c0-1.776,1.334-3.137,3.165-3.137
		c2.054,0,3.084,1.484,3.084,3.048c0,1.796-1.368,3.103-3.084,3.103C213.848,128.015,212.655,126.602,212.655,125.001
		 M218.016,125.188c0-1.466-0.647-3.049-2.347-3.049c-0.924,0-2.124,0.632-2.124,2.578c0,1.314,0.64,3.021,2.391,3.021
		C217.003,127.739,218.016,126.939,218.016,125.188"/>
	<path clip-path="url(#SVGID_12_)" fill="#002D73" d="M220.514,126.54c0,0.933,0.018,1.049,0.587,1.11l0.24,0.027
		c0.053,0.044,0.035,0.195-0.019,0.222c-0.506-0.018-0.8-0.026-1.155-0.026c-0.374,0-0.693,0.009-1.085,0.026
		c-0.053-0.026-0.07-0.169-0.017-0.222l0.186-0.027c0.517-0.07,0.533-0.178,0.533-1.11v-3.279c0-0.756-0.017-0.908-0.417-0.952
		l-0.32-0.036c-0.062-0.053-0.054-0.186,0.019-0.222c0.471-0.062,1.021-0.071,1.759-0.071c0.738,0,1.289,0.098,1.707,0.356
		c0.409,0.258,0.711,0.72,0.711,1.333c0,0.816-0.507,1.227-0.889,1.413c-0.392,0.187-0.862,0.267-1.228,0.267
		c-0.062-0.026-0.062-0.16-0.009-0.177c0.96-0.18,1.308-0.722,1.308-1.494c0-0.863-0.508-1.422-1.432-1.422
		c-0.471,0-0.479,0.035-0.479,0.319V126.54z"/>
	<path clip-path="url(#SVGID_12_)" fill="#002D73" d="M224.212,123.34c0-0.934-0.018-1.075-0.534-1.12l-0.222-0.018
		c-0.053-0.036-0.035-0.195,0.018-0.223c0.436,0.018,0.721,0.027,1.119,0.027c0.348,0,0.65-0.01,1.032-0.027
		c0.053,0.027,0.071,0.187,0.018,0.223l-0.169,0.018c-0.516,0.053-0.533,0.187-0.533,1.12v1.022c0,0.168,0.018,0.337,0.115,0.337
		c0.08,0,0.188-0.053,0.249-0.098c0.124-0.106,0.355-0.338,0.453-0.427l0.96-0.95c0.169-0.161,0.605-0.614,0.693-0.738
		c0.045-0.062,0.062-0.106,0.062-0.142c0-0.036-0.035-0.062-0.15-0.089l-0.24-0.054c-0.062-0.062-0.054-0.178,0.017-0.223
		c0.312,0.018,0.668,0.027,0.979,0.027s0.613-0.01,0.879-0.027c0.063,0.045,0.072,0.169,0.02,0.223
		c-0.231,0.018-0.578,0.106-0.827,0.249c-0.248,0.142-0.747,0.56-1.245,1.031l-0.799,0.755c-0.125,0.125-0.205,0.205-0.205,0.275
		c0,0.062,0.054,0.134,0.169,0.275c0.844,0.969,1.528,1.77,2.222,2.497c0.214,0.214,0.376,0.33,0.677,0.365l0.172,0.027
		c0.062,0.044,0.045,0.194-0.018,0.222c-0.231-0.018-0.475-0.027-0.893-0.027c-0.364,0-0.677,0.01-1.085,0.027
		c-0.062-0.018-0.089-0.169-0.035-0.222l0.205-0.036c0.124-0.019,0.213-0.045,0.213-0.088c0-0.055-0.062-0.125-0.125-0.205
		c-0.169-0.214-0.399-0.454-0.737-0.836l-0.711-0.8c-0.507-0.568-0.649-0.746-0.862-0.746c-0.134,0-0.151,0.115-0.151,0.427v1.146
		c0,0.934,0.018,1.058,0.516,1.111l0.24,0.027c0.053,0.036,0.036,0.194-0.019,0.222c-0.435-0.018-0.737-0.027-1.085-0.027
		c-0.363,0-0.666,0.01-1.029,0.027c-0.055-0.027-0.072-0.16-0.019-0.222l0.178-0.027c0.472-0.071,0.489-0.178,0.489-1.111V123.34z"
		/>
	<path clip-path="url(#SVGID_12_)" fill="#002D73" d="M230.312,123.357c0-0.941-0.018-1.094-0.543-1.138l-0.221-0.019
		c-0.055-0.034-0.036-0.194,0.017-0.222c0.445,0.019,0.747,0.027,1.12,0.027c0.355,0,0.658-0.009,1.102-0.027
		c0.055,0.027,0.072,0.188,0.019,0.222l-0.222,0.019c-0.524,0.044-0.543,0.196-0.543,1.138v3.164c0,0.943,0.019,1.067,0.543,1.129
		l0.222,0.027c0.054,0.035,0.036,0.195-0.019,0.222c-0.443-0.018-0.746-0.026-1.102-0.026c-0.373,0-0.641,0.009-1.086,0.026
		c-0.053-0.026-0.071-0.169-0.018-0.222l0.188-0.027c0.525-0.062,0.543-0.186,0.543-1.129V123.357z"/>
	<path clip-path="url(#SVGID_12_)" fill="#002D73" d="M238.001,126.361c0,0.268,0,1.324,0.027,1.556
		c-0.019,0.054-0.071,0.098-0.169,0.098c-0.107-0.15-0.364-0.461-1.139-1.342l-2.062-2.347c-0.24-0.275-0.844-1.005-1.031-1.199
		h-0.017c-0.036,0.106-0.045,0.311-0.045,0.576v1.939c0,0.417,0.009,1.573,0.159,1.839c0.055,0.099,0.231,0.151,0.453,0.169
		l0.276,0.027c0.053,0.071,0.044,0.178-0.019,0.222c-0.399-0.018-0.711-0.026-1.039-0.026c-0.373,0-0.613,0.009-0.925,0.026
		c-0.062-0.044-0.07-0.17-0.018-0.222l0.24-0.027c0.204-0.026,0.347-0.08,0.391-0.178c0.124-0.319,0.116-1.404,0.116-1.83v-2.569
		c0-0.249-0.009-0.437-0.196-0.64c-0.124-0.125-0.338-0.187-0.551-0.214l-0.151-0.018c-0.053-0.054-0.053-0.187,0.019-0.223
		c0.373,0.027,0.844,0.027,1.004,0.027c0.142,0,0.293-0.009,0.409-0.027c0.178,0.454,1.227,1.627,1.519,1.956l0.863,0.968
		c0.613,0.686,1.048,1.183,1.467,1.609h0.017c0.036-0.044,0.036-0.187,0.036-0.373v-1.902c0-0.418-0.009-1.572-0.178-1.84
		c-0.053-0.08-0.195-0.134-0.551-0.178l-0.151-0.018c-0.062-0.054-0.053-0.195,0.018-0.223c0.409,0.019,0.711,0.027,1.05,0.027
		c0.382,0,0.612-0.009,0.915-0.027c0.07,0.045,0.07,0.169,0.018,0.223l-0.125,0.018c-0.284,0.044-0.462,0.116-0.498,0.187
		c-0.15,0.32-0.133,1.422-0.133,1.831V126.361z"/>
	<path clip-path="url(#SVGID_12_)" fill="#002D73" d="M240.336,128.015c-0.747,0-1.218-0.231-1.388-0.329
		c-0.106-0.195-0.222-0.826-0.239-1.244c0.045-0.062,0.178-0.08,0.213-0.025c0.134,0.451,0.498,1.323,1.53,1.323
		c0.745,0,1.11-0.488,1.11-1.021c0-0.393-0.081-0.827-0.729-1.245l-0.845-0.551c-0.443-0.293-0.96-0.8-0.96-1.529
		c0-0.844,0.658-1.528,1.814-1.528c0.275,0,0.594,0.054,0.826,0.115c0.116,0.036,0.239,0.054,0.311,0.054
		c0.08,0.214,0.16,0.711,0.16,1.084c-0.036,0.054-0.178,0.08-0.222,0.027c-0.116-0.427-0.355-1.005-1.209-1.005
		c-0.871,0-1.059,0.578-1.059,0.987c0,0.515,0.428,0.888,0.755,1.093l0.713,0.444c0.56,0.347,1.11,0.862,1.11,1.706
		C242.229,127.348,241.49,128.015,240.336,128.015"/>
</g>
<g>
	<defs>
		<rect id="SVGID_13_" x="8.4" y="109.909" width="117.6" height="25.855"/>
	</defs>
	<clipPath id="SVGID_14_">
		<use xlink:href="#SVGID_13_"  overflow="visible"/>
	</clipPath>
	<path clip-path="url(#SVGID_14_)" fill="#A0C9EB" d="M12.065,123.447c0,1.294-0.335,2.4-1.004,3.32
		c-0.67,0.919-1.47,1.379-2.401,1.379v-8.206c0-1.294,0.335-2.4,1.005-3.32c0.669-0.919,1.469-1.379,2.4-1.379V123.447z"/>
	<path clip-path="url(#SVGID_14_)" fill="#76B3DD" d="M28.204,123.72c0,1.227-0.431,2.271-1.294,3.133
		c-0.863,0.862-1.907,1.293-3.132,1.293H18.5c-1.226,0-2.27-0.431-3.132-1.293c-0.863-0.862-1.294-1.906-1.294-3.133v-4.052
		c0-1.226,0.431-2.27,1.294-3.132c0.862-0.863,1.906-1.294,3.132-1.294h5.72c0,0.939-0.454,1.731-1.362,2.373
		c-0.908,0.642-2.02,0.985-3.336,1.031H18.5c-0.681,0.023-1.021,0.363-1.021,1.021v4.052c0,0.681,0.34,1.021,1.021,1.021h5.278
		c0.681,0,1.021-0.341,1.021-1.021v-8.546c0-1.294,0.332-2.401,0.997-3.32s1.468-1.379,2.408-1.379V123.72z"/>
	<path clip-path="url(#SVGID_14_)" fill="#A0C9EB" d="M33.618,123.447c0,1.294-0.335,2.4-1.004,3.32
		c-0.67,0.919-1.47,1.379-2.401,1.379v-8.206c0-1.294,0.335-2.4,1.005-3.32c0.669-0.919,1.469-1.379,2.4-1.379V123.447z"/>
	<path clip-path="url(#SVGID_14_)" fill="#A0C9EB" d="M49.757,128.146h-9.704c-1.226,0-2.27-0.432-3.132-1.294
		c-0.863-0.862-1.294-1.906-1.294-3.133v-4.052c0-1.226,0.431-2.27,1.294-3.133c0.862-0.862,1.906-1.293,3.132-1.293h5.278
		c1.226,0,2.269,0.431,3.132,1.293c0.863,0.863,1.294,1.907,1.294,3.133v0.034c0,1.226-0.431,2.27-1.294,3.132
		c-0.863,0.863-1.906,1.294-3.132,1.294h-4.903c0-0.939,0.459-1.742,1.379-2.407c0.919-0.665,2.026-0.998,3.319-0.998l0.205-0.032
		c0.681-0.112,1.021-0.446,1.021-1.005v-0.033c0-0.67-0.34-1.006-1.021-1.006h-5.278c-0.681,0-1.021,0.341-1.021,1.021v4.052
		c0,0.682,0.34,1.021,1.021,1.021h5.005c1.294,0,2.401,0.333,3.32,0.998C49.297,126.404,49.757,127.206,49.757,128.146"/>
	<path clip-path="url(#SVGID_14_)" fill="#A0C9EB" d="M65.896,115.242c0,0.939-0.458,1.742-1.373,2.407
		c-0.915,0.665-2.016,0.997-3.303,0.997h-9.454c0-0.939,0.457-1.743,1.372-2.407s2.016-0.997,3.304-0.997H65.896z M65.896,123.72
		c0,1.227-0.431,2.271-1.294,3.133c-0.863,0.862-1.906,1.293-3.132,1.293h-9.704c0-0.939,0.459-1.742,1.379-2.406
		c0.919-0.665,2.026-0.998,3.32-0.998h5.005c0.681,0,1.021-0.341,1.021-1.021v-0.034c0-0.681-0.34-1.021-1.021-1.021h-4.972
		c-1.293,0-2.4-0.332-3.319-0.998c-0.919-0.665-1.379-1.467-1.379-2.407h9.67c1.226,0,2.269,0.431,3.132,1.294
		c0.863,0.862,1.294,1.906,1.294,3.132V123.72z"/>
	
		<circle clip-path="url(#SVGID_14_)" fill="none" stroke="#A0C9EB" stroke-width="0.416" stroke-miterlimit="10" cx="31.908" cy="112.126" r="1.732"/>
	
		<circle clip-path="url(#SVGID_14_)" fill="none" stroke="#A0C9EB" stroke-width="0.416" stroke-miterlimit="10" cx="10.339" cy="111.849" r="1.731"/>
	<g clip-path="url(#SVGID_14_)">
		<text transform="matrix(1 0 0 1 8.6079 134.043)"><tspan x="0" y="0" fill="#4E4E4E" font-family="'Oswald-Regular'" font-size="5.4095">The Institu</tspan><tspan x="22.568" y="0" fill="#4E4E4E" font-family="'Oswald-Regular'" font-size="5.4095">t</tspan><tspan x="24.395" y="0" fill="#4E4E4E" font-family="'Oswald-Regular'" font-size="5.4095">e </tspan><tspan x="27.958" y="0" fill="#4E4E4E" font-family="'Oswald-Regular'" font-size="5.4095">f</tspan><tspan x="29.617" y="0" fill="#4E4E4E" font-family="'Oswald-Regular'" font-size="5.4095">or D</tspan><tspan x="38.058" y="0" fill="#4E4E4E" font-family="'Oswald-Regular'" font-size="5.4095">a</tspan><tspan x="40.494" y="0" fill="#4E4E4E" font-family="'Oswald-Regular'" font-size="5.4095">ta In</tspan><tspan x="50.016" y="0" fill="#4E4E4E" font-family="'Oswald-Regular'" font-size="5.4095">t</tspan><tspan x="51.849" y="0" fill="#4E4E4E" font-family="'Oswald-Regular'" font-size="5.4095">ensi</tspan><tspan x="60.6" y="0" fill="#4E4E4E" font-family="'Oswald-Regular'" font-size="5.4095">v</tspan><tspan x="62.865" y="0" fill="#4E4E4E" font-family="'Oswald-Regular'" font-size="5.4095">e Engineering and Science</tspan></text>
	</g>
</g>
<text transform="matrix(1 0 0 1 171.9131 21)"><tspan x="0" y="0" fill="#072241" font-family="'Quark-Bold'" font-size="16" letter-spacing="-1">Y</tspan><tspan x="8.416" y="0" fill="#072241" font-family="'Quark-Bold'" font-size="16">our Name</tspan></text>
<text transform="matrix(1 0 0 1 226.4326 30.6001)" font-family="'Quark-Bold'" font-size="8">IDIES</text>
<text transform="matrix(1 0 0 1 162.7852 40.2002)"><tspan x="0" y="0" font-family="'Quark-Bold'" font-size="8">Johns Hopkins Uni</tspan><tspan x="58.551" y="0" font-family="'Quark-Bold'" font-size="8">v</tspan><tspan x="62.438" y="0" font-family="'Quark-Bold'" font-size="8">ersity</tspan></text>
<text transform="matrix(1 0 0 1 243.001 40.2002)" font-family="'Quark-Bold'" font-size="8"> </text>
<text transform="matrix(0.9848 0 -0.1736 0.9848 188.2891 49.7998)" font-family="'Quark-Bold'" font-size="8.1234">(410) 516-8889</text>
<text transform="matrix(1 0 0 1 202.5127 59.3999)"><tspan x="0" y="0" font-family="'Quark-Bold'" font-size="8">y</tspan><tspan x="3.84" y="0" font-family="'Quark-Bold'" font-size="8">ou@jhu.edu</tspan></text>
<text transform="matrix(1 0 0 1 159.2451 99)"><tspan x="0" y="0" fill="#072241" font-family="'Quark-Bold'" font-size="12.1">ww</tspan><tspan x="15.271" y="0" fill="#072241" font-family="'Quark-Bold'" font-size="12.1">w</tspan><tspan x="22.542" y="0" fill="#072241" font-family="'Quark-Bold'" font-size="12.1">.sciser</tspan><tspan x="51.412" y="0" fill="#072241" font-family="'Quark-Bold'" font-size="12.1">v</tspan><tspan x="57.293" y="0" fill="#072241" font-family="'Quark-Bold'" font-size="12.1">e</tspan><tspan x="63.016" y="0" fill="#072241" font-family="'Quark-Bold'" font-size="12.1">r</tspan><tspan x="66.477" y="0" fill="#072241" font-family="'Quark-Bold'" font-size="12.1">.</tspan></text>
<text transform="matrix(1 0 0 1 227.5 99)"><tspan x="0" y="0" fill="#072241" font-family="'Quark-Bold'" font-size="12.1">o</tspan><tspan x="6.22" y="0" fill="#072241" font-family="'Quark-Bold'" font-size="12.1">r</tspan><tspan x="10.043" y="0" fill="#072241" font-family="'Quark-Bold'" font-size="12.1">g</tspan></text>
</svg>
