<svg id="Layer_1" data-name="Layer 1" xmlns="http://www.w3.org/2000/svg" viewBox="0 0 79.29 75.69"><defs><style>.cls-1{fill:#213a70;}</style></defs><path class="cls-1" d="M305.8,354.73a39.65,39.65,0,0,0-16.87,75.52c-2-2.64-3-6.08-3-10.33a15.67,15.67,0,0,1,1.56-7.35,14.68,14.68,0,0,1,5.94-5.47l.47-.15a1,1,0,0,1-.39-.08c-.16-.05-.24-.13-.24-.23a11.63,11.63,0,0,1-4.37-4.06,13.83,13.83,0,0,1,.62-14.38,5.22,5.22,0,0,1,1.72-2.19,2.66,2.66,0,0,1,.39-.31,2.21,2.21,0,0,0,.39-.31,19.47,19.47,0,0,1,5.39-2.89,22.11,22.11,0,0,1,7.58-1.17l.63-.16h.15l.47.16a22.11,22.11,0,0,1,7.58,1.17,19.47,19.47,0,0,1,5.39,2.89,1.7,1.7,0,0,1,.78.62,11.12,11.12,0,0,1,1.88,2.19,12.61,12.61,0,0,1,2.26,7.5,13.43,13.43,0,0,1-1.8,6.88,10.33,10.33,0,0,1-4.37,4.06,1.91,1.91,0,0,1-.47.31l.47.15a16.12,16.12,0,0,1,5.94,5.47,15.68,15.68,0,0,1,1.72,7.35,16.06,16.06,0,0,1-3.35,10.5,39.64,39.64,0,0,0-16.5-75.69Z" transform="translate(-266.16 -354.73)"/><path class="cls-1" d="M299.4,425.7a6.49,6.49,0,0,0,4.68,2h.32a2.53,2.53,0,0,0,1.09.16H306a2.56,2.56,0,0,0,1.09-.16h.31a7.85,7.85,0,0,0,4.69-2,8.27,8.27,0,0,0,2.35-6.1,7.73,7.73,0,0,0-1.25-4.37,8,8,0,0,0-7.35-3.91h-.15c-3.55,0-6,1.31-7.5,3.91a7.53,7.53,0,0,0-1.1,4.37A8.23,8.23,0,0,0,299.4,425.7Z" transform="translate(-266.16 -354.73)"/><path class="cls-1" d="M305.65,402.89q4.05,0,5.93-1.8a6.1,6.1,0,0,0,1.88-4.61,6.22,6.22,0,0,0-2-4.61,9.56,9.56,0,0,0-11.57,0,6.51,6.51,0,0,0-.23,9.22C300.83,402.29,302.83,402.89,305.65,402.89Z" transform="translate(-266.16 -354.73)"/></svg>