<svg id="Layer_1" data-name="Layer 1" xmlns="http://www.w3.org/2000/svg" viewBox="0 0 79.29 76.64"><defs><style>.cls-1{fill:#213a70;}</style></defs><path class="cls-1" d="M305.8,354.73a39.64,39.64,0,0,0-16.39,75.74A17.46,17.46,0,0,1,286,420.23h10.62a7.71,7.71,0,0,0,2.5,5.78,8.22,8.22,0,0,0,5.78,1.88c3,0,5.32-.84,6.88-2.5a11.62,11.62,0,0,0,2.34-7.66q0-4.68-2.5-7.19a8.48,8.48,0,0,0-6.72-2.65,9.38,9.38,0,0,0-4.22.93,7,7,0,0,0-3,2.82l-10-.47L291.35,382H317.6a6,6,0,0,1,3.83,1.72,5.17,5.17,0,0,1,1.64,3.9v3.75H299.16l-1.4,10.47a10.54,10.54,0,0,1,4.06-2,17.71,17.71,0,0,1,5.31-.78q8.28,0,13.28,5a18,18,0,0,1,5.16,13.28q0,8.82-5.52,14.11a39.64,39.64,0,0,0-14.25-76.64Z" transform="translate(-266.16 -354.73)"/></svg>