<svg id="Layer_1" data-name="Layer 1" xmlns="http://www.w3.org/2000/svg" viewBox="0 0 79.29 77.64"><defs><style>.cls-1{fill:#213a70;}</style></defs><path class="cls-1" d="M305.8,354.73a39.64,39.64,0,0,0-16.21,75.82l-.27-.32a6.19,6.19,0,0,1-1.41-4.06c0-2.08,1.25-3.13,3.75-3.13h6.72a5.34,5.34,0,0,0,2,3.91,8.6,8.6,0,0,0,4.85,1.25,7.52,7.52,0,0,0,6.4-3.6c1.46-2.5,2.29-6,2.5-10.62a14.6,14.6,0,0,1-4.53,3,18.24,18.24,0,0,1-5.94.78q-8.28,0-13.12-4.69t-4.69-12.81q0-13,10.78-17.34a20.68,20.68,0,0,1,8.44-1.72q10.15,0,15.47,6.87,5.16,6.88,5.15,19.85,0,13.91-5.62,21.4a18,18,0,0,1-3,3.07,39.64,39.64,0,0,0-11.34-77.63Z" transform="translate(-266.16 -354.73)"/><path class="cls-1" d="M305.1,389.92a7.62,7.62,0,0,0-3.83.86,6.18,6.18,0,0,0-2.11,1.8,10.84,10.84,0,0,0-2.34,7.18,9.68,9.68,0,0,0,2.34,6.88,8.09,8.09,0,0,0,6.41,2.5,7.69,7.69,0,0,0,6.09-2.5,8,8,0,0,0,1.95-4.22,13.3,13.3,0,0,0-.07-5.55,10.18,10.18,0,0,0-2.66-4.84A7.64,7.64,0,0,0,305.1,389.92Z" transform="translate(-266.16 -354.73)"/></svg>