<svg id="Layer_1" data-name="Layer 1" xmlns="http://www.w3.org/2000/svg" viewBox="0 0 79.29 79.29"><defs><style>.cls-1{fill:#213a70;}</style></defs><path class="cls-1" d="M305.8,355.59A39.64,39.64,0,0,0,293.62,433a60.79,60.79,0,0,1,5.31-19.68,87.92,87.92,0,0,1,13.75-21.88H285.49V382h35.63c2.81,0,4.42,1,4.84,3.05a5.84,5.84,0,0,1-1.25,5.23,102.84,102.84,0,0,0-8,10.39,63.51,63.51,0,0,0-5.86,10.86,68.17,68.17,0,0,0-5.71,23.3l.71,0a39.65,39.65,0,1,0,0-79.29Z" transform="translate(-266.16 -355.59)"/></svg>