<svg id="Layer_1" data-name="Layer 1" xmlns="http://www.w3.org/2000/svg" viewBox="0 0 79.29 76.08"><defs><style>.cls-1{fill:#213a70;}</style></defs><path class="cls-1" d="M305.8,354.73a39.64,39.64,0,0,0-16.43,75.72c-2.21-2.83-3.33-6.64-3.33-11.47v-.16h10.47c0,3,.72,5.27,2.18,6.72a8.86,8.86,0,0,0,6.57,2.35c2.91,0,5.05-.73,6.4-2.19,1.56-1.35,2.35-3.38,2.35-6.09a7.47,7.47,0,0,0-2.66-6.1q-2.5-2-8-2h-.78a2.4,2.4,0,0,0-.78.16v-7.5h1.09q4.84,0,7.19-1.88a7.55,7.55,0,0,0,.31-10.62q-1.73-1.72-5.31-1.72c-2.61,0-4.48.68-5.63,2-1.35,1.35-2,3.39-2,6.09v.32h-5.62c-2.19,0-3.49-.6-3.91-1.8a6.7,6.7,0,0,1-.15-3.83,13.87,13.87,0,0,1,4.21-7q5-4.53,13.6-4.53,8.28,0,13.12,4.06a13,13,0,0,1,5,10.63,11.23,11.23,0,0,1-1.72,6.25,12.7,12.7,0,0,1-5,4.37,16.8,16.8,0,0,1,6.41,5,13,13,0,0,1,2.19,7.66q0,7.19-4.13,11.67a39.65,39.65,0,0,0-15.64-76.08Z" transform="translate(-266.16 -354.73)"/></svg>