<svg id="Layer_1" data-name="Layer 1" xmlns="http://www.w3.org/2000/svg" viewBox="0 0 79.29 74.67"><defs><style>.cls-1{fill:#213a70;}</style></defs><path class="cls-1" d="M305.8,354.73a39.64,39.64,0,0,0-18.58,74.66,23.06,23.06,0,0,1,2.65-6,33.81,33.81,0,0,1,9.84-9.85c.31-.21.78-.49,1.41-.86s1.35-.8,2.18-1.33a46.51,46.51,0,0,0,8-6.09,8.33,8.33,0,0,0,2.81-5.94,7.53,7.53,0,0,0-2.18-5.78,8,8,0,0,0-5.94-2.19A8.29,8.29,0,0,0,299.4,394a11.61,11.61,0,0,0-2.19,7.34v.47h-5.63c-2.18,0-3.46-.59-3.82-1.79a9.05,9.05,0,0,1-.24-4,18.64,18.64,0,0,1,4.53-8.9q5.16-5,14.53-5,8.76,0,13.75,4.53a16.6,16.6,0,0,1,5,12.5,16.11,16.11,0,0,1-2.65,9.53q-2.82,4.21-10.31,9.22c-1.78,1.25-4,2.71-6.65,4.37s-4.14,3.28-4.45,4.85h23.6v2a39.65,39.65,0,0,0-19.07-74.41Z" transform="translate(-266.16 -354.73)"/></svg>